<?xml version="1.0" encoding="utf-8"?>
<!-- Generator: Adobe Illustrator 25.1.0, SVG Export Plug-In . SVG Version: 6.00 Build 0)  -->
<svg version="1.1" id="Layer_1" xmlns="http://www.w3.org/2000/svg" xmlns:xlink="http://www.w3.org/1999/xlink" x="0px" y="0px"
	 viewBox="0 0 612.6 175.1" style="enable-background:new 0 0 612.6 175.1;" xml:space="preserve">
<style type="text/css">
	.st0{fill:#001E28;}
	.st1{fill:#009245;}
	.st2{fill:#FC4755;}
	.st3{fill:#00B4FF;}
	.st4{fill:#FFAF00;}
	.st5{fill:none;stroke:#FFAF00;stroke-width:3;stroke-miterlimit:10;}
	.st6{fill:#1A1A1A;}
	.st7{fill:#FFFFFF;}
	.st8{fill:#FF7A00;}
	.st9{fill:url(#SVGID_1_);}
	.st10{fill:#F08221;}
	.st11{fill:#DBB425;}
	.st12{fill:#A4B73A;}
	.st13{fill:#72B144;}
	.st14{fill:#EC6F25;}
	.st15{fill:#ED4E25;}
	.st16{fill:#579041;}
	.st17{fill:#F39B23;}
	.st18{fill:#9A3C2E;}
	.st19{stroke:#F7F7F7;stroke-width:4.7867;stroke-miterlimit:10;}
	.st20{fill:#231F21;}
	.st21{fill:#FDD29E;}
	.st22{fill:#734540;}
	.st23{fill:#827168;}
	.st24{fill:#F05B45;}
	.st25{fill:#807E80;}
	.st26{fill:#8E6051;}
	.st27{fill:#AFB0B4;}
	.st28{fill:#B0B0B4;}
	.st29{fill:#DD896E;}
	.st30{fill:#67544A;}
	.st31{fill:#DD896D;}
	.st32{fill:#FCFDFB;}
	.st33{fill:#72443F;}
	.st34{fill:#DD8B6C;}
	.st35{fill:#FFFFFC;}
	.st36{fill:#4C494E;}
	.st37{fill:#8B5E50;}
	.st38{fill:#FAD19E;}
	.st39{fill:#FCD29E;}
	.st40{fill:#DC8A6D;}
	.st41{fill:#DD8A6E;}
	.st42{fill:#4C494F;}
	.st43{fill:#4B494E;}
	.st44{fill:#DC8A6E;}
	.st45{fill:#807D80;}
	.st46{fill:#4D4A4F;}
	.st47{fill:#4B494F;}
	.st48{fill:#FAFAFA;}
	.st49{fill:#F6F7F7;}
	.st50{fill:#EDECEC;}
	.st51{fill:#221F21;}
	.st52{fill:#9B3A2C;}
	.st53{fill:#F9CFA0;}
	.st54{fill:#ED5A44;}
	.st55{fill:#C45748;}
	.st56{fill:#D1CFCF;}
	.st57{fill:#2D292B;}
	.st58{fill:#DC8B6D;}
	.st59{fill:#DA8B6E;}
	.st60{fill:#322D2C;}
	.st61{fill:#2D2A2B;}
	.st62{fill:#FBFBF9;}
	.st63{fill:#F7F7F7;}
	.st64{stroke:#F7F7F7;stroke-width:4.7867;stroke-linecap:round;stroke-linejoin:round;stroke-miterlimit:10;}
	.st65{fill:#38373A;}
	.st66{fill:#5F6060;}
	.st67{fill:#8C191B;}
	.st68{fill:#EB1F27;}
	.st69{fill:#3C4FA1;}
	.st70{fill:#229FD9;}
	.st71{fill:#E48924;}
	.st72{fill:#FBCD0B;}
	.st73{fill:#606060;}
	.st74{fill:#FACE0B;}
	.st75{fill:#FACF0A;}
	.st76{fill:#616262;}
	.st77{fill:#383639;}
	.st78{fill:#DD8A6D;}
	.st79{fill:#8E191C;}
	.st80{fill:#383739;}
	.st81{fill:#606061;}
	.st82{fill:#8D191B;}
	.st83{fill:#5F5E5E;}
	.st84{fill:#222021;}
	.st85{fill:#5F5F60;}
	.st86{fill:#E91F28;}
	.st87{fill:#E28925;}
	.st88{fill:#249ED9;}
	.st89{fill:#636464;}
	.st90{fill:#D98A6E;}
	.st91{fill:#575657;}
	.st92{fill:#D98A6D;}
	.st93{fill:#E5C293;}
	.st94{fill:#333233;}
	.st95{fill:#312D2F;}
	.st96{fill:#EB2229;}
	.st97{fill:#BB2630;}
	.st98{fill:#019147;}
	.st99{fill:#36B04A;}
	.st100{opacity:0.24;clip-path:url(#SVGID_3_);}
	.st101{fill:#885E3B;}
	.st102{fill:#240F0F;}
	.st103{fill:#A81F24;}
	.st104{fill:none;}
	.st105{fill:#EA202C;}
	.st106{fill:#211E1F;}
	.st107{fill:#F8A81A;}
	.st108{fill:#28A6DE;}
	.st109{fill:#F79420;}
	.st110{fill:#C99C66;}
	.st111{fill:#EC1B34;}
	.st112{fill:#3B2314;}
	.st113{fill:#FE7D15;}
	.st114{fill:#151E27;}
	.st115{fill:#FD7C15;}
	.st116{fill:#570A0B;}
	.st117{fill:#E82429;}
	.st118{fill:#F4831F;}
	.st119{fill:#111320;}
	.st120{fill:none;stroke:#211E1F;stroke-width:0.1212;stroke-miterlimit:10;}
	.st121{fill:#EA6427;}
	.st122{fill:none;stroke:#211E1F;stroke-width:0.1266;stroke-miterlimit:10;}
	.st123{fill:#20808C;}
	.st124{fill:#0D743D;}
	.st125{fill:#E6252B;}
</style>
<g>
	<g>
		<path d="M556.6,112c1-1.1,1.6-1.8,2.3-2.6c10-10.3,20.1-20.6,30.1-30.9c7.2-7.4,14.4-14.8,21.6-22.2c0.7-0.7,1.5-1.7,1.6-2.6
			c0.2-2.5,0.1-4.9,0-7.6c-30.1,0.1-59.8,0.2-89.6,0.3c0,4.9,0,9.7,0.1,14.7c18.8-0.1,37.4-0.1,56-0.2c-1,1.1-1.6,1.8-2.3,2.6
			c-10,10.3-20.1,20.6-30.1,30.9c-7.2,7.4-14.4,14.8-21.6,22.2c-0.7,0.7-1.5,1.7-1.6,2.6c-0.2,2.5-0.1,4.9,0,7.6
			c30.1-0.1,59.8-0.2,89.6-0.3c0-4.9,0-9.7-0.1-14.7C593.8,111.8,575.2,111.9,556.6,112z"/>
		<path d="M251.2,49.4c-0.8-1.3-2.2-2.1-3.7-2.1l-7.6,0l-0.2,0l-7.6,0c-1.5,0-2.9,0.8-3.7,2.1l-43.9,76.7c-0.5,0.8,0.1,1.9,1.1,1.9
			l17.7-0.1c1.8,0,3.4-1,4.2-2.5l5.5-10.7c0.8-1.6,2.5-2.7,4.4-2.7l22-0.1l1.2,0l22-0.1c1.8,0,3.5,1,4.4,2.6l5.6,10.7
			c0.8,1.5,2.4,2.5,4.2,2.5l17.7-0.1c1,0,1.5-1,1.1-1.9L251.2,49.4z M240.6,98.3l-1.2,0l-15,0.1c-1.2,0-1.9-1.2-1.4-2.3l15.5-29.2
			c0.6-1.1,2.2-1.1,2.7,0L257,96c0.6,1-0.2,2.3-1.4,2.3L240.6,98.3z"/>
		<path d="M402.1,125.1l-26.8-29.8l7,0c7.2,0,13-5.7,13.4-12.8l0.1,0l-0.1-24.9l-0.2,0c-0.9-6.7-6.5-11.8-13.4-11.8l-73.4,0.3
			c-0.6,0-1,0.5-1,1l0,11.5c0,0.6,0.5,1,1,1l64.8-0.2c1.6,0,3,1.3,3,3l0.1,16.4c0,1.7-1.4,3.1-3.1,3.1l-64.3,0.2
			c-0.8,0-1.4,0.6-1.4,1.4l0,10.6l0,1.5L308,125c0,0.7,0.6,1.4,1.4,1.4l15.4-0.1c0.7,0,1.4-0.6,1.4-1.4L326,95.5l25-0.1l27.6,30.7
			c0.7,0.8,1.7,1.2,2.8,1.2l19.8-0.2C402.3,127.1,402.8,125.9,402.1,125.1z"/>
		<path d="M497.9,44.9l-73.6,0.3c-5.8,0-10.5,4.7-10.5,10.6l0.2,60.9c0,5.8,4.7,10.5,10.6,10.5l73.6-0.3c5.8,0,10.5-4.8,10.5-10.6
			l-0.2-60.9C508.4,49.6,503.7,44.9,497.9,44.9z M490.8,109.2c0,1.3-1,2.3-2.2,2.3l-54.6,0.2c-1.3,0-2.3-1-2.3-2.3l-0.2-46.6
			c0-1.3,1-2.3,2.3-2.3l54.6-0.2c1.2,0,2.2,1,2.2,2.3L490.8,109.2z"/>
	</g>
	<g>
		<g>
			<polygon class="st10" points="76,0 127.1,86.5 152.5,43.7 			"/>
			<polygon class="st11" points="152.1,43.6 127.1,86.6 153.2,131.1 			"/>
			<polygon class="st12" points="127.1,86.5 76.6,175.1 152.8,131.3 			"/>
			<polygon class="st13" points="101.5,131.4 0.3,131.8 76.6,175.1 			"/>
			<polygon class="st14" points="102.2,43.9 0,44.3 2.2,43 76,0 			"/>
			<path class="st15" d="M59.4,68.3l-46.5,0.2C5.8,68.5,0.1,62.7,0,55.6l0-11.3L59.2,44L65.8,57C68.6,62,65.1,68.3,59.4,68.3z"/>
			<path class="st16" d="M59.5,107.3L13,107.5c-7.1,0-12.8,5.9-12.7,13l0,11.3l59.2-0.2l6.5-13C68.8,113.6,65.2,107.3,59.5,107.3z"
				/>
		</g>
	</g>
</g>
</svg>
