<?xml version="1.0" encoding="utf-8"?>
<!-- Generator: Adobe Illustrator 25.1.0, SVG Export Plug-In . SVG Version: 6.00 Build 0)  -->
<svg version="1.1" id="Layer_1" xmlns="http://www.w3.org/2000/svg" xmlns:xlink="http://www.w3.org/1999/xlink" x="0px" y="0px"
	 viewBox="0 0 504.4 278.5" style="enable-background:new 0 0 504.4 278.5;" xml:space="preserve">
<style type="text/css">
	.st0{fill:#001E28;}
	.st1{fill:#009245;}
	.st2{fill:#FC4755;}
	.st3{fill:#00B4FF;}
	.st4{fill:#FFAF00;}
	.st5{fill:none;stroke:#FFAF00;stroke-width:3;stroke-miterlimit:10;}
	.st6{fill:#1A1A1A;}
	.st7{fill:#FFFFFF;}
	.st8{fill:#FF7A00;}
	.st9{fill:url(#SVGID_1_);}
	.st10{fill:#F08221;}
	.st11{fill:#DBB425;}
	.st12{fill:#A4B73A;}
	.st13{fill:#72B144;}
	.st14{fill:#EC6F25;}
	.st15{fill:#ED4E25;}
	.st16{fill:#579041;}
	.st17{fill:#F39B23;}
	.st18{fill:#9A3C2E;}
	.st19{stroke:#F7F7F7;stroke-width:4.7867;stroke-miterlimit:10;}
	.st20{fill:#231F21;}
	.st21{fill:#FDD29E;}
	.st22{fill:#734540;}
	.st23{fill:#827168;}
	.st24{fill:#F05B45;}
	.st25{fill:#807E80;}
	.st26{fill:#8E6051;}
	.st27{fill:#AFB0B4;}
	.st28{fill:#B0B0B4;}
	.st29{fill:#DD896E;}
	.st30{fill:#67544A;}
	.st31{fill:#DD896D;}
	.st32{fill:#FCFDFB;}
	.st33{fill:#72443F;}
	.st34{fill:#DD8B6C;}
	.st35{fill:#FFFFFC;}
	.st36{fill:#4C494E;}
	.st37{fill:#8B5E50;}
	.st38{fill:#FAD19E;}
	.st39{fill:#FCD29E;}
	.st40{fill:#DC8A6D;}
	.st41{fill:#DD8A6E;}
	.st42{fill:#4C494F;}
	.st43{fill:#4B494E;}
	.st44{fill:#DC8A6E;}
	.st45{fill:#807D80;}
	.st46{fill:#4D4A4F;}
	.st47{fill:#4B494F;}
	.st48{fill:#FAFAFA;}
	.st49{fill:#F6F7F7;}
	.st50{fill:#EDECEC;}
	.st51{fill:#221F21;}
	.st52{fill:#9B3A2C;}
	.st53{fill:#F9CFA0;}
	.st54{fill:#ED5A44;}
	.st55{fill:#C45748;}
	.st56{fill:#D1CFCF;}
	.st57{fill:#2D292B;}
	.st58{fill:#DC8B6D;}
	.st59{fill:#DA8B6E;}
	.st60{fill:#322D2C;}
	.st61{fill:#2D2A2B;}
	.st62{fill:#FBFBF9;}
	.st63{fill:#F7F7F7;}
	.st64{stroke:#F7F7F7;stroke-width:4.7867;stroke-linecap:round;stroke-linejoin:round;stroke-miterlimit:10;}
	.st65{fill:#38373A;}
	.st66{fill:#5F6060;}
	.st67{fill:#8C191B;}
	.st68{fill:#EB1F27;}
	.st69{fill:#3C4FA1;}
	.st70{fill:#229FD9;}
	.st71{fill:#E48924;}
	.st72{fill:#FBCD0B;}
	.st73{fill:#606060;}
	.st74{fill:#FACE0B;}
	.st75{fill:#FACF0A;}
	.st76{fill:#616262;}
	.st77{fill:#383639;}
	.st78{fill:#DD8A6D;}
	.st79{fill:#8E191C;}
	.st80{fill:#383739;}
	.st81{fill:#606061;}
	.st82{fill:#8D191B;}
	.st83{fill:#5F5E5E;}
	.st84{fill:#222021;}
	.st85{fill:#5F5F60;}
	.st86{fill:#E91F28;}
	.st87{fill:#E28925;}
	.st88{fill:#249ED9;}
	.st89{fill:#636464;}
	.st90{fill:#D98A6E;}
	.st91{fill:#575657;}
	.st92{fill:#D98A6D;}
	.st93{fill:#E5C293;}
	.st94{fill:#333233;}
	.st95{fill:#312D2F;}
	.st96{fill:#EB2229;}
	.st97{fill:#BB2630;}
	.st98{fill:#019147;}
	.st99{fill:#36B04A;}
	.st100{opacity:0.24;clip-path:url(#SVGID_3_);}
	.st101{fill:#885E3B;}
	.st102{fill:#240F0F;}
	.st103{fill:#A81F24;}
	.st104{fill:none;}
	.st105{fill:#EA202C;}
	.st106{fill:#211E1F;}
	.st107{fill:#F8A81A;}
	.st108{fill:#28A6DE;}
	.st109{fill:#F79420;}
	.st110{fill:#C99C66;}
	.st111{fill:#EC1B34;}
	.st112{fill:#3B2314;}
	.st113{fill:#FE7D15;}
	.st114{fill:#151E27;}
	.st115{fill:#FD7C15;}
	.st116{fill:#570A0B;}
	.st117{fill:#E82429;}
	.st118{fill:#F4831F;}
	.st119{fill:#111320;}
	.st120{fill:none;stroke:#211E1F;stroke-width:0.1212;stroke-miterlimit:10;}
	.st121{fill:#EA6427;}
	.st122{fill:none;stroke:#211E1F;stroke-width:0.1266;stroke-miterlimit:10;}
	.st123{fill:#20808C;}
	.st124{fill:#0D743D;}
	.st125{fill:#E6252B;}
</style>
<g>
	<g>
		<path d="M34.1,222.7c-2.9,0-5.5-0.6-7.8-1.9c-2.2-1.3-3.9-3.1-5.2-5.6c-1.2-2.5-1.8-5.4-1.8-8.9s0.6-6.4,1.8-8.9
			c1.2-2.5,2.9-4.3,5.2-5.6c2.2-1.3,4.8-1.9,7.8-1.9c3.5,0,6.3,0.8,8.6,2.5c2.3,1.7,3.9,4.1,4.9,7.2h-5.7c-0.8-1.6-1.8-2.8-3-3.6
			c-1.2-0.8-2.8-1.2-4.8-1.2c-1.9,0-3.5,0.4-4.9,1.3c-1.4,0.9-2.5,2.2-3.3,3.9c-0.8,1.7-1.2,3.8-1.2,6.3c0,2.5,0.4,4.6,1.2,6.3
			c0.8,1.7,1.9,3,3.3,3.9c1.4,0.9,3,1.3,4.9,1.3c1.9,0,3.5-0.4,4.8-1.2c1.2-0.8,2.2-2,3-3.6h5.7c-1,3.1-2.6,5.5-4.9,7.2
			C40.4,221.8,37.6,222.7,34.1,222.7z"/>
		<path d="M61,222.7c-2.3,0-4.3-0.5-6-1.5c-1.7-1-3-2.4-4-4.2c-0.9-1.9-1.4-4.1-1.4-6.7c0-2.6,0.5-4.8,1.4-6.7
			c0.9-1.9,2.2-3.3,4-4.2c1.7-1,3.7-1.5,6-1.5c2.3,0,4.3,0.5,6,1.6c1.7,1.1,3,2.5,3.9,4.3c0.9,1.8,1.3,3.7,1.3,5.8
			c0,0.5,0,0.9-0.1,1.3c0,0.4-0.1,0.8-0.2,1.1H53v-3.9h14.1c-0.1-1-0.4-1.9-0.9-2.8c-0.5-0.9-1.2-1.6-2.1-2.1
			c-0.9-0.5-2-0.8-3.2-0.8c-1.4,0-2.5,0.3-3.5,1c-1,0.7-1.7,1.6-2.1,2.7c-0.5,1.1-0.7,2.5-0.7,4c0,1.8,0.2,3.3,0.7,4.5
			c0.5,1.3,1.2,2.2,2.2,2.9c1,0.7,2.2,1,3.6,1c1.3,0,2.3-0.2,3.1-0.7c0.8-0.5,1.5-1.2,2.1-2.2h5.3c-0.5,1.5-1.1,2.7-2.1,3.8
			c-0.9,1.1-2.1,2-3.5,2.6C64.5,222.3,62.8,222.7,61,222.7z"/>
		<path d="M76.9,222.2v-23.9H81l0.6,3h0.2c0.8-1.2,1.7-2,2.9-2.6c1.2-0.6,2.4-0.8,3.7-0.8c1.7,0,3.2,0.4,4.6,1.2
			c1.4,0.8,2.4,1.9,3.2,3.4c0.8,1.5,1.1,3.2,1.1,5.1v14.7h-5V208c0-1.2-0.2-2.2-0.6-3.1c-0.4-0.9-1-1.5-1.8-1.9
			c-0.8-0.4-1.7-0.7-2.7-0.7c-1,0-2,0.2-2.8,0.7c-0.8,0.5-1.5,1.2-1.9,2c-0.5,0.9-0.7,1.8-0.7,2.9v14.2H76.9z"/>
		<path d="M110.9,222.2c-1.4,0-2.6-0.3-3.6-0.8c-1-0.5-1.8-1.3-2.3-2.3c-0.5-1-0.8-2.1-0.8-3.5v-12.8h-3.8v-4.6h3.8l0.7-6.4h4.3v6.4
			h5.9v4.6h-5.9v12.2c0,0.7,0.2,1.3,0.7,1.8c0.5,0.5,1.1,0.7,1.8,0.7h3.4v4.6H110.9z"/>
		<path d="M129.4,222.7c-2.3,0-4.3-0.5-6-1.5c-1.7-1-3-2.4-4-4.2c-0.9-1.9-1.4-4.1-1.4-6.7c0-2.6,0.5-4.8,1.4-6.7
			c0.9-1.9,2.2-3.3,4-4.2c1.7-1,3.7-1.5,6-1.5c2.3,0,4.3,0.5,6,1.6c1.7,1.1,3,2.5,3.9,4.3c0.9,1.8,1.3,3.7,1.3,5.8
			c0,0.5,0,0.9-0.1,1.3c0,0.4-0.1,0.8-0.2,1.1h-18.8v-3.9h14.1c-0.1-1-0.4-1.9-0.9-2.8c-0.5-0.9-1.2-1.6-2.1-2.1
			c-0.9-0.5-2-0.8-3.2-0.8c-1.4,0-2.5,0.3-3.5,1c-1,0.7-1.7,1.6-2.1,2.7c-0.5,1.1-0.7,2.5-0.7,4c0,1.8,0.2,3.3,0.7,4.5
			c0.5,1.3,1.2,2.2,2.2,2.9c1,0.7,2.2,1,3.6,1c1.3,0,2.3-0.2,3.1-0.7c0.8-0.5,1.5-1.2,2.1-2.2h5.3c-0.5,1.5-1.1,2.7-2.1,3.8
			c-0.9,1.1-2.1,2-3.5,2.6C132.9,222.3,131.3,222.7,129.4,222.7z"/>
		<path d="M145.3,222.2v-23.9h4.1l0.6,3h0.2c0.6-1.1,1.5-1.8,2.5-2.3s2.2-0.7,3.6-0.7h2.7v4.7h-2.5c-1.2,0-2.3,0.3-3.3,0.8
			c-0.9,0.5-1.7,1.2-2.2,2.1c-0.5,0.9-0.8,1.9-0.8,3.1v13.3H145.3z"/>
		<path d="M168.9,202.9v-4.6h14.7v4.6H168.9z M172.7,196.1c0-2,0.6-3.6,1.8-4.8c1.2-1.2,2.9-1.8,4.9-1.8h4.1v4.5h-3.4
			c-0.7,0-1.3,0.2-1.8,0.7c-0.5,0.5-0.7,1.1-0.7,1.8v25.6h-5V196.1z"/>
		<path d="M197,222.7c-2.3,0-4.3-0.5-6-1.5c-1.7-1-3-2.4-4-4.2c-0.9-1.9-1.4-4.1-1.4-6.7c0-2.6,0.5-4.8,1.4-6.7
			c0.9-1.9,2.3-3.3,4-4.2c1.7-1,3.7-1.5,6-1.5c2.3,0,4.3,0.5,6,1.5c1.7,1,3,2.4,4,4.2c0.9,1.9,1.4,4.1,1.4,6.7
			c0,2.6-0.5,4.9-1.4,6.7c-0.9,1.9-2.3,3.3-4,4.2C201.3,222.2,199.3,222.7,197,222.7z M197,218.1c1.2,0,2.4-0.3,3.3-0.9
			c1-0.6,1.7-1.5,2.3-2.7c0.6-1.2,0.8-2.7,0.8-4.4c0-1.7-0.3-3.2-0.8-4.4c-0.6-1.2-1.3-2.1-2.3-2.7c-1-0.6-2.1-0.9-3.3-0.9
			c-1.2,0-2.3,0.3-3.3,0.9c-1,0.6-1.7,1.5-2.3,2.7c-0.6,1.2-0.8,2.7-0.8,4.4c0,1.7,0.3,3.2,0.8,4.4c0.6,1.2,1.3,2.1,2.3,2.7
			C194.7,217.8,195.8,218.1,197,218.1z"/>
		<path d="M213.2,222.2v-23.9h4.1l0.6,3h0.2c0.6-1.1,1.5-1.8,2.5-2.3s2.2-0.7,3.6-0.7h2.7v4.7h-2.5c-1.2,0-2.3,0.3-3.3,0.8
			c-0.9,0.5-1.7,1.2-2.2,2.1c-0.5,0.9-0.8,1.9-0.8,3.1v13.3H213.2z"/>
		<path d="M240,222.2v-31.9h20.9v4.8h-15.5v22.3h15.9v4.8H240z M244.5,208.4v-4.6H260v4.6H244.5z"/>
		<path d="M274.5,222.7c-2,0-3.8-0.5-5.4-1.4c-1.6-1-2.8-2.4-3.6-4.2c-0.9-1.9-1.3-4.1-1.3-6.8c0-2.6,0.4-4.9,1.3-6.7
			c0.9-1.9,2.1-3.3,3.6-4.2c1.6-1,3.3-1.4,5.4-1.4c1.6,0,3.1,0.3,4.2,0.9s2.1,1.4,2.8,2.3h0.2v-10.7h5v31.9h-4.1l-0.6-3h-0.2
			c-0.8,1.1-1.8,1.9-3,2.5C277.5,222.3,276.1,222.7,274.5,222.7z M275.4,218.1c1.2,0,2.3-0.3,3.3-0.9c0.9-0.6,1.7-1.5,2.2-2.7
			c0.5-1.2,0.8-2.7,0.8-4.4c0-1.7-0.3-3.2-0.8-4.4c-0.5-1.2-1.3-2.1-2.2-2.7c-0.9-0.6-2-0.9-3.3-0.9c-1.2,0-2.3,0.3-3.3,0.9
			c-0.9,0.6-1.7,1.5-2.2,2.7c-0.5,1.2-0.8,2.7-0.8,4.4c0,2.6,0.6,4.6,1.8,5.9C272,217.5,273.5,218.1,275.4,218.1z"/>
		<path d="M301.8,222.7c-1.7,0-3.3-0.4-4.6-1.2c-1.3-0.8-2.4-1.9-3.1-3.4c-0.8-1.5-1.1-3.2-1.1-5.2v-14.7h5v14.2
			c0,1.2,0.2,2.2,0.6,3.1c0.4,0.9,1,1.5,1.8,1.9c0.8,0.4,1.7,0.7,2.7,0.7c1.1,0,2-0.3,2.8-0.8s1.5-1.2,1.9-2.1
			c0.5-0.9,0.7-1.8,0.7-2.9v-14.2h5v23.9h-4.2l-0.5-3h-0.2c-0.8,1.2-1.8,2-2.9,2.6C304.3,222.4,303.1,222.7,301.8,222.7z"/>
		<path d="M329.5,222.7c-2.3,0-4.3-0.5-6-1.5c-1.7-1-3-2.4-4-4.2c-0.9-1.9-1.4-4.1-1.4-6.7c0-2.6,0.5-4.8,1.4-6.7
			c0.9-1.9,2.3-3.3,4-4.2c1.7-1,3.7-1.5,6-1.5c1.9,0,3.5,0.3,4.9,1c1.4,0.6,2.6,1.5,3.5,2.7c0.9,1.2,1.6,2.5,2.1,4H335
			c-0.6-1.1-1.4-1.9-2.2-2.4c-0.9-0.5-2-0.8-3.2-0.8c-1.2,0-2.4,0.3-3.3,0.9c-1,0.6-1.7,1.5-2.3,2.7c-0.5,1.2-0.8,2.6-0.8,4.3
			c0,1.7,0.3,3.1,0.8,4.3c0.5,1.2,1.3,2.1,2.3,2.7c1,0.6,2.1,0.9,3.3,0.9c1.3,0,2.4-0.3,3.2-0.8c0.9-0.5,1.6-1.3,2.2-2.4h5.1
			c-0.5,1.6-1.1,2.9-2.1,4.1c-0.9,1.2-2.1,2.1-3.5,2.7C333,222.3,331.4,222.7,329.5,222.7z"/>
		<path d="M351.4,222.7c-1.7,0-3.1-0.3-4.4-1c-1.3-0.6-2.2-1.5-2.9-2.6c-0.7-1.1-1-2.4-1-3.8c0-1.4,0.3-2.7,1-3.8
			c0.7-1.1,1.7-2,3.1-2.6c1.4-0.6,3-1,5-1h7.6v3.9h-7.4c-1.4,0-2.5,0.3-3.2,0.9c-0.7,0.6-1.1,1.4-1.1,2.4c0,1,0.4,1.9,1.1,2.5
			c0.7,0.6,1.8,0.9,3.1,0.9c1.2,0,2.3-0.2,3.2-0.7c0.9-0.5,1.6-1.1,2.1-2c0.5-0.8,0.8-1.8,0.8-2.9v-6.4c0-1.3-0.4-2.4-1.3-3.1
			c-0.9-0.8-2.1-1.1-3.6-1.1c-1.2,0-2.1,0.3-2.9,0.8s-1.3,1.1-1.6,1.9h-5.1c0.5-2.1,1.7-3.8,3.3-5.1c1.7-1.3,3.8-1.9,6.4-1.9
			c2,0,3.8,0.4,5.2,1c1.4,0.7,2.6,1.7,3.4,3c0.8,1.3,1.2,2.9,1.2,4.7v15.6h-4.2l-0.5-3h-0.2c-0.6,0.9-1.5,1.7-2.7,2.4
			C354.5,222.3,353.1,222.7,351.4,222.7z"/>
		<path d="M376.9,222.2c-1.4,0-2.6-0.3-3.6-0.8c-1-0.5-1.8-1.3-2.3-2.3c-0.5-1-0.8-2.1-0.8-3.5v-12.8h-3.8v-4.6h3.8l0.7-6.4h4.3v6.4
			h5.9v4.6h-5.9v12.2c0,0.7,0.2,1.3,0.7,1.8c0.5,0.5,1.1,0.7,1.8,0.7h3.4v4.6H376.9z"/>
		<path d="M388.3,193.9c-0.9,0-1.6-0.3-2.2-0.9c-0.6-0.6-0.9-1.3-0.9-2.1c0-0.9,0.3-1.6,0.9-2.2s1.3-0.9,2.2-0.9
			c0.9,0,1.6,0.3,2.2,0.9s0.9,1.3,0.9,2.2c0,0.9-0.3,1.6-0.9,2.1C389.9,193.6,389.1,193.9,388.3,193.9z M385.8,222.2v-23.9h5v23.9
			H385.8z"/>
		<path d="M407,222.7c-2.3,0-4.3-0.5-6-1.5c-1.7-1-3-2.4-4-4.2c-0.9-1.9-1.4-4.1-1.4-6.7c0-2.6,0.5-4.8,1.4-6.7
			c0.9-1.9,2.3-3.3,4-4.2c1.7-1,3.7-1.5,6-1.5c2.3,0,4.3,0.5,6,1.5c1.7,1,3,2.4,4,4.2c0.9,1.9,1.4,4.1,1.4,6.7
			c0,2.6-0.5,4.9-1.4,6.7c-0.9,1.9-2.3,3.3-4,4.2C411.3,222.2,409.3,222.7,407,222.7z M407,218.1c1.2,0,2.4-0.3,3.3-0.9
			c1-0.6,1.7-1.5,2.3-2.7c0.6-1.2,0.8-2.7,0.8-4.4c0-1.7-0.3-3.2-0.8-4.4c-0.6-1.2-1.3-2.1-2.3-2.7c-1-0.6-2.1-0.9-3.3-0.9
			c-1.2,0-2.3,0.3-3.3,0.9c-1,0.6-1.7,1.5-2.3,2.7c-0.6,1.2-0.8,2.7-0.8,4.4c0,1.7,0.3,3.2,0.8,4.4c0.6,1.2,1.3,2.1,2.3,2.7
			C404.7,217.8,405.8,218.1,407,218.1z"/>
		<path d="M423.2,222.2v-23.9h4.2l0.6,3h0.2c0.8-1.2,1.7-2,2.9-2.6c1.2-0.6,2.4-0.8,3.7-0.8c1.7,0,3.2,0.4,4.6,1.2
			c1.4,0.8,2.4,1.9,3.2,3.4c0.8,1.5,1.1,3.2,1.1,5.1v14.7h-5V208c0-1.2-0.2-2.2-0.6-3.1c-0.4-0.9-1-1.5-1.8-1.9
			c-0.8-0.4-1.7-0.7-2.7-0.7s-2,0.2-2.8,0.7c-0.8,0.5-1.5,1.2-1.9,2c-0.5,0.9-0.7,1.8-0.7,2.9v14.2H423.2z"/>
		<path d="M456.2,222.7c-1.7,0-3.1-0.3-4.4-1c-1.3-0.6-2.2-1.5-2.9-2.6c-0.7-1.1-1-2.4-1-3.8c0-1.4,0.3-2.7,1-3.8
			c0.7-1.1,1.7-2,3.1-2.6c1.4-0.6,3-1,5-1h7.6v3.9h-7.4c-1.4,0-2.5,0.3-3.2,0.9c-0.7,0.6-1.1,1.4-1.1,2.4c0,1,0.4,1.9,1.1,2.5
			c0.7,0.6,1.8,0.9,3.1,0.9c1.2,0,2.3-0.2,3.2-0.7c0.9-0.5,1.6-1.1,2.1-2c0.5-0.8,0.8-1.8,0.8-2.9v-6.4c0-1.3-0.4-2.4-1.3-3.1
			c-0.9-0.8-2.1-1.1-3.6-1.1c-1.2,0-2.1,0.3-2.9,0.8s-1.3,1.1-1.6,1.9h-5.1c0.5-2.1,1.7-3.8,3.3-5.1c1.7-1.3,3.8-1.9,6.4-1.9
			c2,0,3.8,0.4,5.2,1c1.4,0.7,2.6,1.7,3.4,3c0.8,1.3,1.2,2.9,1.2,4.7v15.6H464l-0.5-3h-0.2c-0.6,0.9-1.5,1.7-2.7,2.4
			C459.3,222.3,457.9,222.7,456.2,222.7z"/>
		<path d="M474.1,222.2v-31.9h5v31.9H474.1z"/>
		<path d="M0,269.4v-31.9h11.5c2.9,0,5.5,0.6,7.7,1.9c2.2,1.2,3.9,3.1,5.1,5.5c1.2,2.4,1.8,5.3,1.8,8.6c0,3.3-0.6,6.2-1.8,8.6
			c-1.2,2.4-2.9,4.2-5.1,5.5c-2.2,1.2-4.7,1.9-7.7,1.9H0z M11.4,264.6c1.8,0,3.3-0.4,4.7-1.3c1.4-0.9,2.5-2.1,3.3-3.8
			c0.8-1.7,1.2-3.7,1.2-6.1c0-2.4-0.4-4.4-1.2-6.1c-0.8-1.7-1.9-2.9-3.3-3.8c-1.4-0.9-3-1.3-4.7-1.3h-6v22.3H11.4z"/>
		<path d="M41.3,269.9c-2.3,0-4.3-0.5-6-1.5c-1.7-1-3-2.4-4-4.2c-0.9-1.9-1.4-4.1-1.4-6.7c0-2.6,0.5-4.8,1.4-6.7
			c0.9-1.9,2.2-3.3,4-4.2c1.7-1,3.7-1.5,6-1.5c2.3,0,4.3,0.5,6,1.6c1.7,1.1,3,2.5,3.9,4.3c0.9,1.8,1.3,3.7,1.3,5.8
			c0,0.5,0,0.9-0.1,1.3c0,0.4-0.1,0.8-0.2,1.1H33.3v-3.9h14.1c-0.1-1-0.4-1.9-0.9-2.8c-0.5-0.9-1.2-1.6-2.1-2.1
			c-0.9-0.5-2-0.8-3.2-0.8c-1.4,0-2.5,0.3-3.5,1c-1,0.7-1.7,1.6-2.1,2.7c-0.5,1.1-0.7,2.5-0.7,4c0,1.8,0.2,3.3,0.7,4.5
			c0.5,1.3,1.2,2.2,2.2,2.9c1,0.7,2.2,1,3.6,1c1.3,0,2.3-0.2,3.1-0.7c0.8-0.5,1.5-1.2,2.1-2.2h5.3c-0.5,1.5-1.1,2.7-2.1,3.8
			c-0.9,1.1-2.1,2-3.5,2.6C44.8,269.5,43.2,269.9,41.3,269.9z"/>
		<path d="M62.5,269.4l-8.9-23.9H59l6.5,18.5h0.2l6.4-18.5h5.3l-8.9,23.9H62.5z"/>
		<path d="M90.1,269.9c-2.3,0-4.3-0.5-6-1.5c-1.7-1-3-2.4-4-4.2c-0.9-1.9-1.4-4.1-1.4-6.7c0-2.6,0.5-4.8,1.4-6.7
			c0.9-1.9,2.2-3.3,4-4.2c1.7-1,3.7-1.5,6-1.5c2.3,0,4.3,0.5,6,1.6c1.7,1.1,3,2.5,3.9,4.3c0.9,1.8,1.3,3.7,1.3,5.8
			c0,0.5,0,0.9-0.1,1.3c0,0.4-0.1,0.8-0.2,1.1H82.1v-3.9h14.1c-0.1-1-0.4-1.9-0.9-2.8c-0.5-0.9-1.2-1.6-2.1-2.1
			c-0.9-0.5-2-0.8-3.2-0.8c-1.4,0-2.5,0.3-3.5,1c-1,0.7-1.7,1.6-2.1,2.7c-0.5,1.1-0.7,2.5-0.7,4c0,1.8,0.2,3.3,0.7,4.5
			c0.5,1.3,1.2,2.2,2.2,2.9c1,0.7,2.2,1,3.6,1c1.3,0,2.3-0.2,3.1-0.7c0.8-0.5,1.5-1.2,2.1-2.2h5.3c-0.5,1.5-1.1,2.7-2.1,3.8
			c-0.9,1.1-2.1,2-3.5,2.6C93.6,269.5,91.9,269.9,90.1,269.9z"/>
		<path d="M106.2,269.4v-31.9h5v31.9H106.2z"/>
		<path d="M127.5,269.9c-2.3,0-4.3-0.5-6-1.5c-1.7-1-3-2.4-4-4.2c-0.9-1.9-1.4-4.1-1.4-6.7c0-2.6,0.5-4.8,1.4-6.7
			c0.9-1.9,2.3-3.3,4-4.2c1.7-1,3.7-1.5,6-1.5c2.3,0,4.3,0.5,6,1.5c1.7,1,3,2.4,4,4.2c0.9,1.9,1.4,4.1,1.4,6.7
			c0,2.6-0.5,4.9-1.4,6.7c-0.9,1.9-2.3,3.3-4,4.2C131.9,269.4,129.9,269.9,127.5,269.9z M127.5,265.3c1.2,0,2.4-0.3,3.3-0.9
			c1-0.6,1.7-1.5,2.3-2.7c0.6-1.2,0.8-2.7,0.8-4.4c0-1.7-0.3-3.2-0.8-4.4c-0.6-1.2-1.3-2.1-2.3-2.7c-1-0.6-2.1-0.9-3.3-0.9
			c-1.2,0-2.3,0.3-3.3,0.9c-1,0.6-1.7,1.5-2.3,2.7c-0.6,1.2-0.8,2.7-0.8,4.4c0,1.7,0.3,3.2,0.8,4.4c0.6,1.2,1.3,2.1,2.3,2.7
			C125.2,265.1,126.3,265.3,127.5,265.3z"/>
		<path d="M143.7,269.4v-23.9h4.1l0.6,3h0.2c0.7-1.2,1.6-2.1,2.6-2.6s2.1-0.8,3.4-0.8c1.5,0,2.8,0.4,4,1.1c1.2,0.7,2.1,1.7,2.7,3
			h0.2c0.7-1.3,1.7-2.3,3-3c1.3-0.7,2.8-1.1,4.4-1.1c1.6,0,3.1,0.4,4.4,1.2c1.3,0.8,2.3,1.9,3.1,3.3c0.7,1.4,1.1,3.1,1.1,5.1v14.8
			h-5V255c0-1.2-0.2-2.2-0.6-3.1c-0.4-0.8-1-1.4-1.7-1.8c-0.7-0.4-1.5-0.6-2.5-0.6c-0.9,0-1.6,0.2-2.4,0.7s-1.3,1.1-1.7,1.9
			c-0.4,0.8-0.6,1.8-0.6,2.9v14.4h-5V255c0-1.2-0.2-2.2-0.6-3.1c-0.4-0.8-1-1.4-1.7-1.8c-0.7-0.4-1.6-0.6-2.5-0.6
			c-0.9,0-1.7,0.2-2.4,0.7s-1.3,1.1-1.7,1.9c-0.4,0.8-0.6,1.8-0.6,2.9v14.4H143.7z"/>
		<path d="M193.6,269.9c-2.3,0-4.3-0.5-6-1.5c-1.7-1-3-2.4-4-4.2c-0.9-1.9-1.4-4.1-1.4-6.7c0-2.6,0.5-4.8,1.4-6.7
			c0.9-1.9,2.2-3.3,4-4.2c1.7-1,3.7-1.5,6-1.5c2.3,0,4.3,0.5,6,1.6c1.7,1.1,3,2.5,3.9,4.3c0.9,1.8,1.3,3.7,1.3,5.8
			c0,0.5,0,0.9-0.1,1.3c0,0.4-0.1,0.8-0.2,1.1h-18.8v-3.9h14.1c-0.1-1-0.4-1.9-0.9-2.8c-0.5-0.9-1.2-1.6-2.1-2.1
			c-0.9-0.5-2-0.8-3.2-0.8c-1.4,0-2.5,0.3-3.5,1c-1,0.7-1.7,1.6-2.1,2.7c-0.5,1.1-0.7,2.5-0.7,4c0,1.8,0.2,3.3,0.7,4.5
			c0.5,1.3,1.2,2.2,2.2,2.9c1,0.7,2.2,1,3.6,1c1.3,0,2.3-0.2,3.1-0.7c0.8-0.5,1.5-1.2,2.1-2.2h5.3c-0.5,1.5-1.1,2.7-2.1,3.8
			c-0.9,1.1-2.1,2-3.5,2.6C197.1,269.5,195.4,269.9,193.6,269.9z"/>
		<path d="M209.5,269.4v-23.9h4.1l0.6,3h0.2c0.8-1.2,1.7-2,2.9-2.6c1.2-0.6,2.4-0.8,3.7-0.8c1.7,0,3.2,0.4,4.6,1.2
			c1.4,0.8,2.4,1.9,3.2,3.4c0.8,1.5,1.1,3.2,1.1,5.1v14.7h-5v-14.2c0-1.2-0.2-2.2-0.6-3.1c-0.4-0.9-1-1.5-1.8-1.9
			c-0.8-0.4-1.7-0.7-2.7-0.7c-1,0-2,0.2-2.8,0.7c-0.8,0.5-1.5,1.2-1.9,2c-0.5,0.9-0.7,1.8-0.7,2.9v14.2H209.5z"/>
		<path d="M243.5,269.4c-1.4,0-2.6-0.3-3.6-0.8c-1-0.5-1.8-1.3-2.3-2.3c-0.5-1-0.8-2.1-0.8-3.5v-12.8h-3.8v-4.6h3.8l0.7-6.4h4.3v6.4
			h5.9v4.6h-5.9v12.2c0,0.7,0.2,1.3,0.7,1.8c0.5,0.5,1.1,0.7,1.8,0.7h3.4v4.6H243.5z"/>
		<path d="M271,269.9c-2.1,0-3.8-0.4-5.3-1.1c-1.5-0.7-2.6-1.7-3.4-3c-0.8-1.3-1.1-2.7-1.1-4.3c0-1.6,0.4-3.1,1.2-4.4
			c0.8-1.3,1.9-2.5,3.4-3.4l2.3-1.5l3.3,3l-2.1,1.4c-1,0.7-1.7,1.4-2.1,2.1c-0.4,0.7-0.6,1.6-0.6,2.6c0,1.2,0.4,2.2,1.3,3
			c0.9,0.7,2,1.1,3.3,1.1c1.4,0,2.7-0.3,3.8-0.9c1.2-0.6,2.2-1.4,3.2-2.5l3.3,3.4c-1,0.9-2,1.6-2.9,2.2c-0.9,0.6-2,1.2-3.3,1.6
			C274,269.6,272.5,269.9,271,269.9z M266,251.2c-0.9-0.9-1.6-1.9-2.1-2.9c-0.5-1-0.7-2.2-0.7-3.5c0-1.4,0.4-2.7,1.1-3.9
			c0.7-1.2,1.8-2.1,3.1-2.8c1.3-0.7,2.9-1,4.6-1c1.8,0,3.3,0.3,4.6,1c1.3,0.7,2.3,1.6,2.9,2.7c0.7,1.2,1,2.5,1,4
			c0,1.3-0.3,2.6-1,3.8c-0.6,1.2-1.7,2.2-3.1,3.1l-2.6,1.6l-3.2-2.8l2.6-1.9c0.8-0.5,1.3-1.1,1.7-1.7c0.4-0.6,0.6-1.2,0.6-2
			c0-0.9-0.3-1.7-1-2.4c-0.7-0.7-1.5-1-2.6-1c-0.8,0-1.5,0.2-2,0.5c-0.6,0.3-1,0.8-1.3,1.3c-0.3,0.6-0.5,1.2-0.5,1.9
			c0,0.6,0.2,1.2,0.5,1.8c0.3,0.6,0.9,1.2,1.8,2l20.9,20.5h-6.7L266,251.2z M283.6,262.8l-3.1-3.1l4.1-4.3h6.3L283.6,262.8z"/>
		<path d="M299.1,269.4l11.7-31.9h6.5l11.7,31.9h-5.5l-9.4-25.9h-0.2l-9.3,25.9H299.1z M305.7,262.5l1.8-4.7h13l1.8,4.7H305.7z"/>
		<path d="M340.5,269.9c-2,0-3.8-0.5-5.4-1.4c-1.6-1-2.8-2.4-3.6-4.2c-0.9-1.9-1.3-4.1-1.3-6.8c0-2.6,0.4-4.9,1.3-6.7
			c0.9-1.9,2.1-3.3,3.6-4.2c1.6-1,3.3-1.4,5.4-1.4c1.6,0,3.1,0.3,4.2,0.9s2.1,1.4,2.8,2.3h0.2v-10.7h5v31.9h-4.1l-0.6-3h-0.2
			c-0.8,1.1-1.8,1.9-3,2.5C343.5,269.6,342.1,269.9,340.5,269.9z M341.4,265.3c1.2,0,2.3-0.3,3.3-0.9c0.9-0.6,1.7-1.5,2.2-2.7
			c0.5-1.2,0.8-2.7,0.8-4.4c0-1.7-0.3-3.2-0.8-4.4c-0.5-1.2-1.3-2.1-2.2-2.7c-0.9-0.6-2-0.9-3.3-0.9c-1.2,0-2.3,0.3-3.3,0.9
			c-0.9,0.6-1.7,1.5-2.2,2.7c-0.5,1.2-0.8,2.7-0.8,4.4c0,2.6,0.6,4.6,1.8,5.9C338,264.7,339.5,265.3,341.4,265.3z"/>
		<path d="M364.9,269.4l-8.9-23.9h5.3l6.5,18.5h0.2l6.4-18.5h5.3l-8.9,23.9H364.9z"/>
		<path d="M392.5,269.9c-2.3,0-4.3-0.5-6-1.5c-1.7-1-3-2.4-4-4.2c-0.9-1.9-1.4-4.1-1.4-6.7c0-2.6,0.5-4.8,1.4-6.7
			c0.9-1.9,2.3-3.3,4-4.2c1.7-1,3.7-1.5,6-1.5c2.3,0,4.3,0.5,6,1.5c1.7,1,3,2.4,4,4.2c0.9,1.9,1.4,4.1,1.4,6.7
			c0,2.6-0.5,4.9-1.4,6.7c-0.9,1.9-2.3,3.3-4,4.2C396.8,269.4,394.8,269.9,392.5,269.9z M392.5,265.3c1.2,0,2.4-0.3,3.3-0.9
			c1-0.6,1.7-1.5,2.3-2.7c0.6-1.2,0.8-2.7,0.8-4.4c0-1.7-0.3-3.2-0.8-4.4c-0.6-1.2-1.3-2.1-2.3-2.7c-1-0.6-2.1-0.9-3.3-0.9
			c-1.2,0-2.3,0.3-3.3,0.9c-1,0.6-1.7,1.5-2.3,2.7c-0.6,1.2-0.8,2.7-0.8,4.4c0,1.7,0.3,3.2,0.8,4.4c0.6,1.2,1.3,2.1,2.3,2.7
			C390.1,265.1,391.2,265.3,392.5,265.3z"/>
		<path d="M418.9,269.9c-2.3,0-4.3-0.5-6-1.5c-1.7-1-3-2.4-4-4.2c-0.9-1.9-1.4-4.1-1.4-6.7c0-2.6,0.5-4.8,1.4-6.7
			c0.9-1.9,2.3-3.3,4-4.2c1.7-1,3.7-1.5,6-1.5c1.9,0,3.5,0.3,4.9,1c1.4,0.6,2.6,1.5,3.5,2.7c0.9,1.2,1.6,2.5,2.1,4h-5.1
			c-0.6-1.1-1.4-1.9-2.2-2.4c-0.9-0.5-2-0.8-3.2-0.8c-1.2,0-2.4,0.3-3.3,0.9c-1,0.6-1.7,1.5-2.3,2.7c-0.5,1.2-0.8,2.6-0.8,4.3
			c0,1.7,0.3,3.1,0.8,4.3c0.5,1.2,1.3,2.1,2.3,2.7c1,0.6,2.1,0.9,3.3,0.9c1.3,0,2.4-0.3,3.2-0.8c0.9-0.5,1.6-1.3,2.2-2.4h5.1
			c-0.5,1.6-1.1,2.9-2.1,4.1c-0.9,1.2-2.1,2.1-3.5,2.7C422.4,269.5,420.8,269.9,418.9,269.9z"/>
		<path d="M440.8,269.9c-1.7,0-3.1-0.3-4.4-1c-1.3-0.6-2.2-1.5-2.9-2.6c-0.7-1.1-1-2.4-1-3.8c0-1.4,0.3-2.7,1-3.8
			c0.7-1.1,1.7-2,3.1-2.6c1.4-0.6,3-1,5-1h7.6v3.9h-7.4c-1.4,0-2.5,0.3-3.2,0.9c-0.7,0.6-1.1,1.4-1.1,2.4c0,1,0.4,1.9,1.1,2.5
			c0.7,0.6,1.8,0.9,3.1,0.9c1.2,0,2.3-0.2,3.2-0.7c0.9-0.5,1.6-1.1,2.1-2c0.5-0.8,0.8-1.8,0.8-2.9v-6.4c0-1.3-0.4-2.4-1.3-3.1
			c-0.9-0.8-2.1-1.1-3.6-1.1c-1.2,0-2.1,0.3-2.9,0.8s-1.3,1.1-1.6,1.9h-5.1c0.5-2.1,1.7-3.8,3.3-5.1c1.7-1.3,3.8-1.9,6.4-1.9
			c2,0,3.8,0.4,5.2,1c1.4,0.7,2.6,1.7,3.4,3c0.8,1.3,1.2,2.9,1.2,4.7v15.6h-4.2l-0.5-3h-0.2c-0.6,0.9-1.5,1.7-2.7,2.4
			C443.9,269.5,442.5,269.9,440.8,269.9z"/>
		<path d="M468.7,269.9c-2.3,0-4.3-0.5-6-1.5c-1.7-1-3-2.4-4-4.2c-0.9-1.9-1.4-4.1-1.4-6.7c0-2.6,0.5-4.8,1.4-6.7
			c0.9-1.9,2.3-3.3,4-4.2c1.7-1,3.7-1.5,6-1.5c1.9,0,3.5,0.3,4.9,1c1.4,0.6,2.6,1.5,3.5,2.7c0.9,1.2,1.6,2.5,2.1,4h-5.1
			c-0.6-1.1-1.4-1.9-2.2-2.4c-0.9-0.5-2-0.8-3.2-0.8c-1.2,0-2.4,0.3-3.3,0.9s-1.7,1.5-2.3,2.7c-0.5,1.2-0.8,2.6-0.8,4.3
			c0,1.7,0.3,3.1,0.8,4.3c0.5,1.2,1.3,2.1,2.3,2.7c1,0.6,2.1,0.9,3.3,0.9c1.3,0,2.4-0.3,3.2-0.8c0.9-0.5,1.6-1.3,2.2-2.4h5.1
			c-0.5,1.6-1.1,2.9-2.1,4.1c-0.9,1.2-2.1,2.1-3.5,2.7C472.1,269.5,470.5,269.9,468.7,269.9z"/>
		<path d="M486.1,278.5l3.6-9.1l-9.8-23.9h5.3l6.9,17.5h0.2l6.7-17.5h5.2l-13.1,33.1H486.1z"/>
	</g>
	<g>
		<path class="st119" d="M169.2,91.3c-4.2,7.8-12.4,13.1-21.8,13.1c-13.7,0-24.7-11.1-24.7-24.7s11.1-24.7,24.7-24.7
			c9.4,0,17.6,5.3,21.8,13.1c-3.8-5.7-10.3-9.5-17.7-9.5c-11.7,0-21.2,9.5-21.2,21.2c0,11.7,9.5,21.2,21.2,21.2
			C158.9,100.8,165.4,97.1,169.2,91.3z"/>
		<path class="st119" d="M345.4,102.9c-7.8-4.2-13.1-12.4-13.1-21.8c0-13.7,11.1-24.7,24.7-24.7s24.7,11.1,24.7,24.7
			c0,9.4-5.3,17.6-13.1,21.8c5.7-3.8,9.5-10.3,9.5-17.7c0-11.7-9.5-21.2-21.2-21.2s-21.2,9.5-21.2,21.2
			C335.9,92.6,339.6,99.1,345.4,102.9z"/>
		<path class="st119" d="M249.2,150.9c-1.6,0.1-3.1,0.2-4.7,0.2c-39.4,0-71.4-32-71.4-71.4c0-39.4,32-71.4,71.4-71.4
			c1.6,0,3.2,0.1,4.7,0.2c-37.2,2.4-66.7,33.4-66.7,71.2C182.6,117.5,212,148.5,249.2,150.9z"/>
		<path class="st119" d="M190.5,75.2H224c0.6,0,0.9,0.6,0.7,1.1c-3.6,6.3-10.2,10.2-17.5,10.2c-7.2,0-13.8-3.9-17.3-10.2
			C189.5,75.8,189.9,75.2,190.5,75.2z"/>
		<path class="st120" d="M253.1,8.3c0,0.2,0,0.3,0,0.5L253.1,8.3L253.1,8.3z"/>
		<path class="st121" d="M328.2,90.2c-5.4,34.4-37,60.8-75.2,60.8V14.5c0.8,18.4,8.7,37.3,23.5,52.2
			C291.2,81.4,309.9,89.3,328.2,90.2z"/>
		<path class="st119" d="M329,79.7c0,3.6-0.3,7.1-0.8,10.5c-18.3-0.9-36.9-8.8-51.6-23.5C261.7,51.9,253.8,33,253,14.5V8.8
			c0-0.2,0-0.3,0-0.5C295,8.3,329,40.3,329,79.7z"/>
		<path class="st122" d="M253,8.8v5.8C253,12.6,253,10.7,253,8.8z"/>
		<path class="st119" d="M230.2,11.3c-0.2-1.3-0.6-2.9-1.3-4.7c-1.3-3.2-3.2-5.3-4.6-6.6c1.8,0.1,4.4,0.6,7.3,2
			c4.4,2.2,6.9,5.4,8,7.1C236.5,9.8,233.3,10.6,230.2,11.3z"/>
		<g>
			<polygon class="st117" points="299.5,27.4 307.2,20 312.2,34 			"/>
			<circle class="st117" cx="312.6" cy="34" r="2.3"/>
			<polygon class="st117" points="312.6,34 327.5,37.9 321.7,47.1 			"/>
		</g>
		<path class="st119" d="M372.9,79.7c-11-4.8-28.8-4.8-39.8,0l0,0l0,0C344.1,84.5,361.9,84.5,372.9,79.7L372.9,79.7L372.9,79.7z"/>
	</g>
</g>
</svg>
