<?xml version="1.0" encoding="utf-8"?>
<!-- Generator: Adobe Illustrator 25.1.0, SVG Export Plug-In . SVG Version: 6.00 Build 0)  -->
<svg version="1.1" id="Layer_1" xmlns="http://www.w3.org/2000/svg" xmlns:xlink="http://www.w3.org/1999/xlink" x="0px" y="0px"
	 viewBox="0 0 989.2 182.1" style="enable-background:new 0 0 989.2 182.1;" xml:space="preserve">
<style type="text/css">
	.st0{fill:#001E28;}
	.st1{fill:#009245;}
	.st2{fill:#FC4755;}
	.st3{fill:#00B4FF;}
	.st4{fill:#FFAF00;}
	.st5{fill:none;stroke:#FFAF00;stroke-width:3;stroke-miterlimit:10;}
	.st6{fill:#1A1A1A;}
	.st7{fill:#FFFFFF;}
	.st8{fill:#FF7A00;}
	.st9{fill:url(#SVGID_1_);}
	.st10{fill:#F08221;}
	.st11{fill:#DBB425;}
	.st12{fill:#A4B73A;}
	.st13{fill:#72B144;}
	.st14{fill:#EC6F25;}
	.st15{fill:#ED4E25;}
	.st16{fill:#579041;}
	.st17{fill:#F39B23;}
	.st18{fill:#9A3C2E;}
	.st19{stroke:#F7F7F7;stroke-width:4.7867;stroke-miterlimit:10;}
	.st20{fill:#231F21;}
	.st21{fill:#FDD29E;}
	.st22{fill:#734540;}
	.st23{fill:#827168;}
	.st24{fill:#F05B45;}
	.st25{fill:#807E80;}
	.st26{fill:#8E6051;}
	.st27{fill:#AFB0B4;}
	.st28{fill:#B0B0B4;}
	.st29{fill:#DD896E;}
	.st30{fill:#67544A;}
	.st31{fill:#DD896D;}
	.st32{fill:#FCFDFB;}
	.st33{fill:#72443F;}
	.st34{fill:#DD8B6C;}
	.st35{fill:#FFFFFC;}
	.st36{fill:#4C494E;}
	.st37{fill:#8B5E50;}
	.st38{fill:#FAD19E;}
	.st39{fill:#FCD29E;}
	.st40{fill:#DC8A6D;}
	.st41{fill:#DD8A6E;}
	.st42{fill:#4C494F;}
	.st43{fill:#4B494E;}
	.st44{fill:#DC8A6E;}
	.st45{fill:#807D80;}
	.st46{fill:#4D4A4F;}
	.st47{fill:#4B494F;}
	.st48{fill:#FAFAFA;}
	.st49{fill:#F6F7F7;}
	.st50{fill:#EDECEC;}
	.st51{fill:#221F21;}
	.st52{fill:#9B3A2C;}
	.st53{fill:#F9CFA0;}
	.st54{fill:#ED5A44;}
	.st55{fill:#C45748;}
	.st56{fill:#D1CFCF;}
	.st57{fill:#2D292B;}
	.st58{fill:#DC8B6D;}
	.st59{fill:#DA8B6E;}
	.st60{fill:#322D2C;}
	.st61{fill:#2D2A2B;}
	.st62{fill:#FBFBF9;}
	.st63{fill:#F7F7F7;}
	.st64{stroke:#F7F7F7;stroke-width:4.7867;stroke-linecap:round;stroke-linejoin:round;stroke-miterlimit:10;}
	.st65{fill:#38373A;}
	.st66{fill:#5F6060;}
	.st67{fill:#8C191B;}
	.st68{fill:#EB1F27;}
	.st69{fill:#3C4FA1;}
	.st70{fill:#229FD9;}
	.st71{fill:#E48924;}
	.st72{fill:#FBCD0B;}
	.st73{fill:#606060;}
	.st74{fill:#FACE0B;}
	.st75{fill:#FACF0A;}
	.st76{fill:#616262;}
	.st77{fill:#383639;}
	.st78{fill:#DD8A6D;}
	.st79{fill:#8E191C;}
	.st80{fill:#383739;}
	.st81{fill:#606061;}
	.st82{fill:#8D191B;}
	.st83{fill:#5F5E5E;}
	.st84{fill:#222021;}
	.st85{fill:#5F5F60;}
	.st86{fill:#E91F28;}
	.st87{fill:#E28925;}
	.st88{fill:#249ED9;}
	.st89{fill:#636464;}
	.st90{fill:#D98A6E;}
	.st91{fill:#575657;}
	.st92{fill:#D98A6D;}
	.st93{fill:#E5C293;}
	.st94{fill:#333233;}
	.st95{fill:#312D2F;}
	.st96{fill:#EB2229;}
	.st97{fill:#BB2630;}
	.st98{fill:#019147;}
	.st99{fill:#36B04A;}
	.st100{opacity:0.24;clip-path:url(#SVGID_3_);}
	.st101{fill:#885E3B;}
	.st102{fill:#240F0F;}
	.st103{fill:#A81F24;}
	.st104{fill:none;}
	.st105{fill:#EA202C;}
	.st106{fill:#211E1F;}
	.st107{fill:#F8A81A;}
	.st108{fill:#28A6DE;}
	.st109{fill:#F79420;}
	.st110{fill:#C99C66;}
	.st111{fill:#EC1B34;}
	.st112{fill:#3B2314;}
	.st113{fill:#FE7D15;}
	.st114{fill:#151E27;}
	.st115{fill:#FD7C15;}
	.st116{fill:#570A0B;}
	.st117{fill:#E82429;}
	.st118{fill:#F4831F;}
	.st119{fill:#111320;}
	.st120{fill:none;stroke:#211E1F;stroke-width:0.1212;stroke-miterlimit:10;}
	.st121{fill:#EA6427;}
	.st122{fill:none;stroke:#211E1F;stroke-width:0.1266;stroke-miterlimit:10;}
	.st123{fill:#20808C;}
	.st124{fill:#0D743D;}
	.st125{fill:#E6252B;}
</style>
<g>
	<g>
		<g>
			<path class="st117" d="M64.2,58.5c-7,0-12.7,8.3-12.7,18.6s5.7,18.6,12.7,18.6c7,0,12.7-8.3,12.7-18.6c0-0.4,0-0.9,0-1.3
				c0,0.1,0,0.1,0,0.2c0-0.5-0.1-1-0.1-1.6c-0.1-0.9-0.1-1.9-0.3-3c-0.1-0.7-0.3-2.3-0.7-4.5c-1.7-9.2-7.2-28.8-23.3-36.5
				c-0.4-0.2-0.9-0.4-1.5-0.7c-2.5-1-5.2-1.5-7.8-1.4c-0.5,0-0.9,0-1.4,0C18.7,28.3,0,61.4,0,102.2s18.7,73.9,41.8,73.9
				c0.4,0,0.9,0,1.3,0c0.9,0,1.5,0,2,0c13-1,21.1-14.2,22.9-17c3-4.9,4.4-9.3,5.7-14.1c0.5-1.8,1-3.6,1.3-5.2
				c0.8-3.5,1.2-6.8,1.5-9.5c0-0.3,0.1-0.6,0.1-0.9c-2.6,14.3-6.2,22.7-10,28.5c-1.1,1.8-2.3,3.5-3.9,5.2c0,0,0,0,0,0
				c-7.7,9.1-13.9,9.6-15.3,9.6c-0.5,0-1,0-1.5,0h0c-0.7,0-1.3,0-2-0.1c-2.1-0.3-4.1-1.2-6-2.6c-0.5-0.3-0.9-0.6-1.1-0.7
				c-11.4-7.8-11-29.6-10.9-71.9c0.1-31.3-0.1-51.5,9-60.5c0,0,0,0,0,0c1.8-2,4-3.7,6.7-4.6c0.5-0.2,1.8-0.6,3.6-0.7c0,0,0,0,0,0
				c0.7-0.1,1.5-0.1,2.3-0.1c0.8,0,3.4,0.2,7.1,2.4c0,0,0,0,0,0c5.8,3.3,10.2,9.4,12.6,13.5c0,0.1,0.1,0.1,0.1,0.2
				c0.6,0.9,1.1,2,1.7,3c0,0,0,0.1,0.1,0.1c0,0,0,0.1,0.1,0.1l0.1,0.2c1,1.9,1.8,3.8,2.5,5.7c1.2,3.3,2.4,7.1,3.5,11.6
				C73.1,62.4,68.9,58.5,64.2,58.5z"/>
		</g>
		<g>
			<path class="st117" d="M165.3,45.2c-7.3,0-13.2,8.5-13.2,18.9S158,83,165.3,83c7.3,0,13.2-8.5,13.2-18.9c0-0.1,0-0.3,0-0.4
				c0,0,0,0,0,0c-0.1-15.1-8.1-28.1-20.1-32.9c-13.2-5.3-25.6,1.5-29.2,3.7c-18.1,11.2-22,37-16.3,54.8c0.1,0.2,0.1,0.4,0.2,0.5
				c2.3,7.1,6.6,13.4,12.3,18.3c1.1,1,2.4,2,3.8,3c8.5,6.4,13,6.8,17.6,9.9c12.3,8.5,18.6,32.6,8.4,44.5c-6.3,7.4-16.3,7.3-16.7,7.3
				c-9.7-0.3-19.3-7.7-24.5-19.5c2.4,3.7,5.9,6.1,9.7,6.1c7.3,0,13.2-8.5,13.2-18.9c0-10.4-5.9-18.9-13.2-18.9
				c-7.3,0-13.2,8.5-13.2,18.9c0,0.1,0,0.3,0,0.4c0,0,0,0,0,0c0.1,15.1,8.1,28.1,20.1,32.9c13.2,5.3,25.6-1.5,29.2-3.7
				c18.1-11.2,22-37,16.3-54.8c-0.1-0.2-0.1-0.4-0.2-0.5c-2.3-7.1-6.6-13.4-12.3-18.3c-1.1-1-2.4-2-3.8-3c-8.5-6.4-13-6.8-17.6-9.9
				c-12.3-8.5-18.6-32.6-8.4-44.5c6.3-7.4,16.3-7.3,16.7-7.3c9.7,0.3,19.3,7.7,24.5,19.5C172.5,47.5,169.1,45.2,165.3,45.2z"/>
		</g>
		<g>
			<path class="st118" d="M98.3,28.9h-9.3c-0.6,0-1.1-0.5-1.1-1.1v-0.1c0-2.5,2-4.5,4.5-4.5h2.7c2.5,0,4.5,2,4.5,4.5v0.1
				C99.4,28.4,98.9,28.9,98.3,28.9z M92.2,23.8c-2.1,0-3.9,1.7-3.9,3.9v0.1c0,0.3,0.2,0.5,0.5,0.5h9.3c0.3,0,0.5-0.2,0.5-0.5v-0.1
				c0-2.1-1.7-3.9-3.9-3.9H92.2z"/>
		</g>
		<g>
			<path class="st118" d="M96.6,58.1h-6c-1.5,0-2.8-1.3-2.8-2.8v-24c0-1.5,1.3-2.8,2.8-2.8h6c1.5,0,2.8,1.3,2.8,2.8v24
				C99.4,56.9,98.1,58.1,96.6,58.1z M90.6,29.1c-1.2,0-2.2,1-2.2,2.2v24c0,1.2,1,2.2,2.2,2.2h6c1.2,0,2.2-1,2.2-2.2v-24
				c0-1.2-1-2.2-2.2-2.2H90.6z"/>
		</g>
		<g>
			<path class="st118" d="M96.5,105h-5.8c-1.6,0-2.9-1.3-2.9-2.9V60.4c0-1.6,1.3-2.9,2.9-2.9h5.8c1.6,0,2.9,1.3,2.9,2.9v41.7
				C99.4,103.7,98.1,105,96.5,105z M90.7,58.1c-1.3,0-2.3,1-2.3,2.3v41.7c0,1.3,1,2.3,2.3,2.3h5.8c1.3,0,2.3-1,2.3-2.3V60.4
				c0-1.3-1-2.3-2.3-2.3H90.7z"/>
		</g>
		<g>
			<path class="st118" d="M98.1,110.8h-9.8c-0.5,0-0.9-0.4-0.9-0.9v-4.6c0-0.5,0.4-0.9,0.9-0.9h9.8c1,0,1.8,0.8,1.8,1.8v2.8
				C99.9,110,99.1,110.8,98.1,110.8z M88.3,105c-0.2,0-0.3,0.1-0.3,0.3v4.6c0,0.2,0.1,0.3,0.3,0.3h9.8c0.7,0,1.2-0.5,1.2-1.2v-2.8
				c0-0.7-0.5-1.2-1.2-1.2H88.3z"/>
		</g>
		<g>
			<path class="st118" d="M93.6,182.1c-1.9,0-3.6-0.6-4.7-1.6h-0.2v-0.2c-0.3-0.5-0.6-1-0.7-1.5c-0.1-0.4-0.2-0.8-0.2-1.2v-67.5
				h11.5v67.5c0,0.4-0.1,0.8-0.2,1.2c-0.1,0.5-0.4,1.1-0.7,1.5v0.2h-0.2C97.2,181.5,95.5,182.1,93.6,182.1z M89.3,180
				c0.9,0.9,2.6,1.5,4.3,1.5s3.4-0.6,4.3-1.5c0.3-0.4,0.6-0.9,0.7-1.4c0.1-0.3,0.1-0.7,0.1-1v-66.9H88.5v66.9c0,0.4,0,0.7,0.1,1
				C88.7,179.2,89,179.6,89.3,180z"/>
		</g>
		<g>
			<path class="st118" d="M93.6,182.1c-1.9,0-3.6-0.6-4.7-1.6h-0.2v-0.2c-0.4-0.5-0.7-1-0.8-1.6c0-0.1,0-0.2,0-0.3
				c0-2,2.5-3.6,5.6-3.6c3.1,0,5.6,1.6,5.6,3.6c0,0.1,0,0.2,0,0.3c-0.1,0.6-0.3,1.1-0.8,1.6v0.2h-0.2
				C97.2,181.5,95.5,182.1,93.6,182.1z M89.3,180L89.3,180c0.9,0.9,2.6,1.5,4.3,1.5c1.8,0,3.4-0.6,4.3-1.5l0,0
				c0.4-0.4,0.6-0.8,0.7-1.3c0-0.1,0-0.1,0-0.2c0-1.7-2.2-3-5-3s-5,1.4-5,3c0,0.1,0,0.1,0,0.2C88.7,179.2,88.9,179.6,89.3,180z"/>
		</g>
		<g>
			<path class="st118" d="M93.6,167.6c-1,0-1.9-0.8-1.9-1.9l0.9-35.7c-0.7-0.7-1.1-2-1.1-3.5c0-2.2,0.9-4,2.1-4s2.1,1.7,2.1,4
				c0,1.5-0.4,2.8-1.1,3.5l0.9,35.7C95.5,166.7,94.6,167.6,93.6,167.6z M93.6,123.1c-0.7,0-1.5,1.4-1.5,3.4c0,1.4,0.4,2.6,1,3.1
				l0.1,0.1l0,0.1l-0.9,35.9c0,0.7,0.6,1.3,1.3,1.3s1.3-0.6,1.3-1.3l-0.9-36l0.1-0.1c0.6-0.5,1-1.8,1-3.1
				C95.1,124.5,94.3,123.1,93.6,123.1z"/>
		</g>
		<g>
			<path class="st118" d="M97.5,105h-2.3c-0.2,0-0.3-0.1-0.3-0.3V85.4c0-2.7,0.8-5.2,2.4-7.4c0.1-0.1,0.2-0.2,0.3-0.1
				c0.1,0,0.2,0.2,0.2,0.3v26.6C97.8,104.8,97.6,105,97.5,105z M95.5,104.4h1.7V79.1c-1.1,1.9-1.7,4-1.7,6.2V104.4z"/>
		</g>
		<g>
			<g>
				<path class="st118" d="M93.8,3.1c1.1,0,1.1-3.1,0-3.1C92.7,0,92.7,3.1,93.8,3.1L93.8,3.1z"/>
			</g>
		</g>
		<g>
			<g>
				<path class="st118" d="M93.8,8.4c0.8,0,0.8-2.3,0-2.3C93,6.1,93,8.4,93.8,8.4L93.8,8.4z"/>
			</g>
		</g>
		<g>
			<g>
				<path class="st118" d="M93.8,13.4c0.6,0,0.7-2,0-2C93.2,11.4,93.2,13.4,93.8,13.4L93.8,13.4z"/>
			</g>
		</g>
		<g>
			<g>
				<path class="st118" d="M93.8,17.9c0.5,0,0.5-1.5,0-1.5C93.3,16.4,93.3,17.9,93.8,17.9L93.8,17.9z"/>
			</g>
		</g>
		<g>
			<g>
				<g>
					<path class="st118" d="M95.1,5.7c0.8,0,0.8-2.3,0-2.3C94.3,3.4,94.3,5.7,95.1,5.7L95.1,5.7z"/>
				</g>
			</g>
			<g>
				<g>
					<path class="st118" d="M95.5,8.4c0.6,0.3,1.6-1.6,1-1.9C95.8,6.1,94.9,8,95.5,8.4L95.5,8.4z"/>
				</g>
			</g>
			<g>
				<g>
					<path class="st118" d="M95.5,13.6c0.6,0.3,1.5-1.5,0.9-1.8C95.8,11.5,94.8,13.3,95.5,13.6L95.5,13.6z"/>
				</g>
			</g>
			<g>
				<g>
					<path class="st118" d="M96.7,11c0.5,0.4,1.7-1.3,1.2-1.6C97.3,9,96.2,10.6,96.7,11L96.7,11z"/>
				</g>
			</g>
			<g>
				<g>
					<path class="st118" d="M94.6,10.9c0.6,0.2,1.1-1.8,0.5-1.9C94.4,8.8,93.9,10.7,94.6,10.9L94.6,10.9z"/>
				</g>
			</g>
			<g>
				<g>
					<path class="st118" d="M94.3,15.7c0.5,0.2,1-1.5,0.5-1.6C94.3,14,93.8,15.6,94.3,15.7L94.3,15.7z"/>
				</g>
			</g>
			<g>
				<g>
					<path class="st118" d="M94.3,19.8c0.5,0.1,0.8-1.4,0.3-1.5C94.1,18.3,93.8,19.7,94.3,19.8L94.3,19.8z"/>
				</g>
			</g>
			<g>
				<g>
					<path class="st118" d="M94.7,21.7c0.4,0.1,0.9-1.2,0.4-1.3C94.6,20.2,94.2,21.5,94.7,21.7L94.7,21.7z"/>
				</g>
			</g>
			<g>
				<g>
					<path class="st118" d="M95.9,22.1c0.3,0.2,0.9-0.8,0.6-1C96.2,20.9,95.6,21.9,95.9,22.1L95.9,22.1z"/>
				</g>
			</g>
			<g>
				<g>
					<path class="st118" d="M96.8,20.8c0.3,0.3,1.2-0.8,0.8-1C97.3,19.5,96.4,20.5,96.8,20.8L96.8,20.8z"/>
				</g>
			</g>
			<g>
				<g>
					<path class="st118" d="M97.9,19.5c0.4,0.4,1.6-0.7,1.3-1.1C98.8,17.9,97.5,19.1,97.9,19.5L97.9,19.5z"/>
				</g>
			</g>
			<g>
				<g>
					<path class="st118" d="M94.4,23.8c0.4,0.1,0.6-1.1,0.2-1.2C94.2,22.5,94,23.7,94.4,23.8L94.4,23.8z"/>
				</g>
			</g>
			<g>
				<g>
					<path class="st118" d="M94.9,23.7c0.3,0.2,0.8-0.8,0.5-1C95.1,22.6,94.6,23.5,94.9,23.7L94.9,23.7z"/>
				</g>
			</g>
			<g>
				<g>
					<path class="st118" d="M95,17.9c0.5,0.1,0.9-1.3,0.4-1.4C95,16.3,94.6,17.8,95,17.9L95,17.9z"/>
				</g>
			</g>
			<g>
				<g>
					<path class="st118" d="M95.9,16.2c0.5,0.2,1.2-1.4,0.7-1.6C96.1,14.3,95.4,15.9,95.9,16.2L95.9,16.2z"/>
				</g>
			</g>
			<g>
				<g>
					<path class="st118" d="M97,14.3c0.5,0.4,1.8-1.1,1.3-1.6C97.8,12.3,96.4,13.9,97,14.3L97,14.3z"/>
				</g>
			</g>
			<g>
				<g>
					<path class="st118" d="M95.5,19.9c0.4,0.2,1.1-1.1,0.7-1.3C95.8,18.4,95,19.7,95.5,19.9L95.5,19.9z"/>
				</g>
			</g>
			<g>
				<g>
					<path class="st118" d="M96.5,18.4c0.4,0.3,1.3-1.1,0.8-1.3C96.9,16.8,96.1,18.1,96.5,18.4L96.5,18.4z"/>
				</g>
			</g>
			<g>
				<g>
					<path class="st118" d="M97.6,16.9c0.5,0.4,1.6-1.1,1.1-1.5C98.2,15,97.1,16.5,97.6,16.9L97.6,16.9z"/>
				</g>
			</g>
		</g>
		<g>
			<g>
				<g>
					<path class="st118" d="M92.5,5.7c-0.8,0-0.8-2.3,0-2.3C93.2,3.4,93.2,5.7,92.5,5.7L92.5,5.7z"/>
				</g>
			</g>
			<g>
				<g>
					<path class="st118" d="M92,8.4c-0.6,0.3-1.6-1.6-1-1.9C91.7,6.1,92.6,8,92,8.4L92,8.4z"/>
				</g>
			</g>
			<g>
				<g>
					<path class="st118" d="M92.1,13.6c-0.6,0.3-1.5-1.5-0.9-1.8C91.8,11.5,92.7,13.3,92.1,13.6L92.1,13.6z"/>
				</g>
			</g>
			<g>
				<g>
					<path class="st118" d="M90.8,11c-0.5,0.4-1.7-1.3-1.2-1.6C90.2,9,91.4,10.6,90.8,11L90.8,11z"/>
				</g>
			</g>
			<g>
				<g>
					<path class="st118" d="M92.9,10.9c-0.6,0.2-1.1-1.8-0.5-1.9C93.1,8.8,93.6,10.7,92.9,10.9L92.9,10.9z"/>
				</g>
			</g>
			<g>
				<g>
					<path class="st118" d="M93.2,15.7c-0.5,0.2-1-1.5-0.5-1.6C93.3,14,93.7,15.6,93.2,15.7L93.2,15.7z"/>
				</g>
			</g>
			<g>
				<g>
					<path class="st118" d="M93.2,19.8c-0.5,0.1-0.8-1.4-0.3-1.5C93.4,18.3,93.7,19.7,93.2,19.8L93.2,19.8z"/>
				</g>
			</g>
			<g>
				<g>
					<path class="st118" d="M92.9,21.7c-0.4,0.1-0.9-1.2-0.4-1.3C92.9,20.2,93.3,21.5,92.9,21.7L92.9,21.7z"/>
				</g>
			</g>
			<g>
				<g>
					<path class="st118" d="M91.6,22.1c-0.3,0.2-0.9-0.8-0.6-1C91.3,20.9,91.9,21.9,91.6,22.1L91.6,22.1z"/>
				</g>
			</g>
			<g>
				<g>
					<path class="st118" d="M90.7,20.8c-0.3,0.3-1.2-0.8-0.8-1C90.2,19.5,91.1,20.5,90.7,20.8L90.7,20.8z"/>
				</g>
			</g>
			<g>
				<g>
					<path class="st118" d="M89.7,19.5c-0.4,0.4-1.6-0.7-1.3-1.1C88.8,17.9,90,19.1,89.7,19.5L89.7,19.5z"/>
				</g>
			</g>
			<g>
				<g>
					<path class="st118" d="M93.1,23.8c-0.4,0.1-0.6-1.1-0.2-1.2C93.3,22.5,93.5,23.7,93.1,23.8L93.1,23.8z"/>
				</g>
			</g>
			<g>
				<g>
					<path class="st118" d="M92.6,23.7c-0.3,0.2-0.8-0.8-0.5-1C92.4,22.6,92.9,23.5,92.6,23.7L92.6,23.7z"/>
				</g>
			</g>
			<g>
				<g>
					<path class="st118" d="M92.5,17.9C92,18,91.6,16.6,92,16.5C92.5,16.3,92.9,17.8,92.5,17.9L92.5,17.9z"/>
				</g>
			</g>
			<g>
				<g>
					<path class="st118" d="M91.6,16.2c-0.5,0.2-1.2-1.4-0.7-1.6C91.4,14.3,92.1,15.9,91.6,16.2L91.6,16.2z"/>
				</g>
			</g>
			<g>
				<g>
					<path class="st118" d="M90.6,14.3c-0.5,0.4-1.8-1.1-1.3-1.6C89.7,12.3,91.1,13.9,90.6,14.3L90.6,14.3z"/>
				</g>
			</g>
			<g>
				<g>
					<path class="st118" d="M92.1,19.9c-0.4,0.2-1.1-1.1-0.7-1.3C91.8,18.4,92.5,19.7,92.1,19.9L92.1,19.9z"/>
				</g>
			</g>
			<g>
				<g>
					<path class="st118" d="M91,18.4c-0.4,0.3-1.3-1.1-0.8-1.3C90.6,16.8,91.5,18.1,91,18.4L91,18.4z"/>
				</g>
			</g>
			<g>
				<g>
					<path class="st118" d="M89.9,16.9c-0.5,0.4-1.6-1.1-1.1-1.5C89.3,15,90.4,16.5,89.9,16.9L89.9,16.9z"/>
				</g>
			</g>
		</g>
		<g>
			<g>
				<path class="st118" d="M93.8,21.6c0.4,0,0.4-1.4,0-1.4C93.4,20.2,93.4,21.6,93.8,21.6L93.8,21.6z"/>
			</g>
		</g>
		<g>
			<g>
				<path class="st118" d="M93.8,23.7c0.4,0,0.4-1.2,0-1.2C93.4,22.5,93.4,23.7,93.8,23.7L93.8,23.7z"/>
			</g>
		</g>
	</g>
	<g>
		<path d="M241.8,42.9c2.9-5,7-9,12.1-11.8c5.1-2.9,10.8-4.3,17.1-4.3c4.7,0,9.1,0.9,13.2,2.6c4,1.7,7.5,4,10.3,6.8
			c2.8,2.8,5,5.8,6.5,9.1l-13.6,5.1c-1.5-3-3.6-5.4-6.5-7.3c-2.9-1.9-6.2-2.9-9.9-2.9c-3.5,0-6.6,0.9-9.5,2.6c-2.9,1.7-5.1,4-6.7,7
			c-1.6,2.9-2.4,6.2-2.4,9.9c0,3.6,0.8,6.9,2.4,9.9c1.6,2.9,3.8,5.3,6.7,7c2.9,1.7,6,2.6,9.5,2.6c3.7,0,7-1,9.9-2.9
			c2.9-1.9,5.1-4.4,6.5-7.3l13.6,5.1c-1.5,3.3-3.7,6.3-6.5,9.1c-2.8,2.8-6.3,5.1-10.3,6.8c-4,1.7-8.4,2.6-13.2,2.6
			c-6.3,0-12-1.4-17.1-4.3c-5.1-2.9-9.2-6.8-12.1-11.8c-2.9-5-4.4-10.6-4.4-16.6C237.4,53.4,238.8,47.9,241.8,42.9z"/>
		<path d="M308.5,27.6h43.2v12.8H323V53h27.8V66H323v12.6h28.7v12.8h-43.2V27.6z"/>
		<path d="M360.2,27.6h26.1c6.1,0,11.7,1.4,16.7,4.2c5,2.8,8.9,6.6,11.7,11.5c2.8,4.9,4.2,10.3,4.2,16.2c0,6-1.4,11.4-4.2,16.2
			c-2.8,4.9-6.7,8.7-11.7,11.5c-5,2.8-10.5,4.2-16.7,4.2h-26.1V27.6z M394.8,76.1c2.9-1.6,5.1-3.9,6.7-6.8c1.6-2.9,2.4-6.2,2.4-9.8
			c0-3.6-0.8-6.9-2.4-9.8c-1.6-2.9-3.8-5.1-6.7-6.8c-2.9-1.6-6.1-2.5-9.8-2.5h-10.3v38.1H385C388.7,78.5,392,77.7,394.8,76.1z"/>
		<path d="M442.7,27.6h16.2l25.3,63.8h-15.5L444,27.7h12.6l-24.7,63.7h-14.6L442.7,27.6z M433.3,65.5h35v12.8h-35V65.5z"/>
		<path d="M239.8,110.6h9.9v63.8h-9.9V110.6z"/>
		<path d="M260.6,127.8h9.5v11l-1.5-1.9c1.6-3.1,3.8-5.5,6.8-7.3c2.9-1.8,6.3-2.7,10-2.7c3.7,0,7,0.9,10,2.6
			c2.9,1.7,5.3,4.1,6.9,7.1c1.7,3,2.5,6.4,2.5,10.1v27.8h-9.5v-26.3c0-2.4-0.5-4.5-1.6-6.4c-1.1-1.9-2.6-3.4-4.5-4.5
			c-1.9-1.1-4.1-1.6-6.4-1.6c-2.4,0-4.6,0.5-6.5,1.6c-1.9,1.1-3.4,2.6-4.5,4.5c-1.1,1.9-1.6,4.1-1.6,6.4v26.3h-9.5V127.8z"/>
		<path d="M315.1,127.8h9.5v11l-1.5-1.9c1.6-3.1,3.8-5.5,6.8-7.3c2.9-1.8,6.3-2.7,10-2.7c3.7,0,7,0.9,10,2.6
			c2.9,1.7,5.3,4.1,6.9,7.1c1.7,3,2.5,6.4,2.5,10.1v27.8h-9.5v-26.3c0-2.4-0.5-4.5-1.6-6.4c-1.1-1.9-2.6-3.4-4.5-4.5
			c-1.9-1.1-4.1-1.6-6.4-1.6c-2.4,0-4.6,0.5-6.5,1.6c-1.9,1.1-3.4,2.6-4.5,4.5c-1.1,1.9-1.6,4.1-1.6,6.4v26.3h-9.5V127.8z"/>
		<path d="M371,138.9c2.2-3.7,5.1-6.6,8.9-8.7c3.7-2.1,7.9-3.2,12.5-3.2c4.6,0,8.8,1.1,12.5,3.2c3.7,2.1,6.7,5,8.9,8.7
			c2.2,3.7,3.3,7.8,3.3,12.3c0,4.5-1.1,8.6-3.3,12.3c-2.2,3.7-5.1,6.6-8.9,8.7c-3.7,2.1-7.9,3.2-12.5,3.2c-4.6,0-8.8-1.1-12.5-3.2
			c-3.7-2.1-6.7-5-8.9-8.7c-2.2-3.7-3.3-7.8-3.3-12.3C367.8,146.7,368.9,142.6,371,138.9z M379.5,159c1.3,2.4,3.1,4.3,5.4,5.6
			c2.3,1.3,4.8,2,7.6,2c2.8,0,5.3-0.7,7.6-2c2.3-1.3,4.1-3.2,5.4-5.6c1.3-2.4,2-5,2-7.9c0-2.9-0.7-5.5-2-7.9
			c-1.3-2.4-3.1-4.3-5.4-5.6c-2.3-1.3-4.8-2-7.6-2c-2.8,0-5.3,0.7-7.6,2c-2.3,1.3-4.1,3.2-5.4,5.6c-1.3,2.4-2,5-2,7.9
			C377.5,154,378.2,156.6,379.5,159z"/>
		<path d="M417.9,127.8h10.2l18,46.3h-6.9l18-46.3h9.6l-19,46.6h-10.7L417.9,127.8z"/>
		<path d="M472.7,152.1c3.2-2.3,7.3-3.7,12.3-4.2l9-0.9c1.8-0.2,3.1-0.6,3.9-1.4c0.8-0.7,1.2-1.8,1.2-3.3c0-2.3-0.9-4.1-2.6-5.5
			c-1.7-1.3-4-2-6.8-2c-2.9,0-5.3,0.7-7.2,2.2c-2,1.5-3.3,3.6-3.9,6.5l-9.4-2.3c0.6-2.9,1.8-5.4,3.7-7.5c1.9-2.2,4.2-3.8,7.1-5
			c2.9-1.2,6.1-1.8,9.7-1.8c5.6,0,10.1,1.5,13.6,4.4c3.5,2.9,5.2,7.1,5.2,12.5v30.5h-9.5v-8.7l0.9,0.3c-1.8,2.9-4.1,5.2-7.1,6.8
			c-3,1.6-6.3,2.5-10,2.5c-2.9,0-5.5-0.5-7.7-1.6c-2.2-1.1-4-2.6-5.3-4.6c-1.3-2-2-4.3-2-6.9C467.9,157.8,469.5,154.4,472.7,152.1z
			 M479.5,166c1.4,1.1,3.2,1.6,5.6,1.6c2.6,0,5-0.6,7.2-1.9c2.2-1.2,3.9-2.9,5.1-5c1.2-2.1,1.9-4.2,1.9-6.5V151l0.9,0.3
			c-0.4,0.9-1,1.5-1.9,1.9c-0.9,0.4-2.3,0.7-4.3,0.9l-8.8,1c-2.4,0.3-4.2,1-5.6,2.1c-1.4,1.1-2.1,2.6-2.1,4.5
			C477.4,163.5,478.1,164.9,479.5,166z"/>
		<path d="M512.6,127.8h10v-15.2l9.4-2.9v18.1h13.1v8.4H532v21.7c0,2.9,0.6,4.9,1.9,6.2c1.3,1.3,3.3,1.9,6.2,1.9h5v8.4h-5
			c-6,0-10.4-1.4-13.2-4.2c-2.9-2.8-4.3-7-4.3-12.8v-21.2h-10V127.8z"/>
		<path d="M554.7,110.3c1.1-1.2,2.5-1.7,4.1-1.7c1.6,0,3,0.6,4.2,1.7c1.2,1.2,1.7,2.5,1.7,4.1c0,1.6-0.6,3-1.7,4.2
			c-1.2,1.2-2.6,1.7-4.2,1.7c-1.6,0-3-0.6-4.1-1.7c-1.1-1.2-1.7-2.6-1.7-4.2C553,112.9,553.6,111.5,554.7,110.3z M554.1,127.8h9.5
			v46.6h-9.5V127.8z"/>
		<path d="M568.9,127.8h10.2l18,46.3h-6.9l18-46.3h9.6l-19,46.6h-10.7L568.9,127.8z"/>
		<path d="M626.8,146.9h32.9l-2.2,3c-0.1-2.8-0.8-5.3-2.1-7.5c-1.3-2.2-3.1-4-5.3-5.3c-2.2-1.3-4.7-2-7.4-2c-2.8,0-5.3,0.7-7.6,2.1
			c-2.3,1.4-4.1,3.3-5.4,5.8c-1.3,2.5-2,5.2-2,8.2c0,3,0.7,5.7,2,8.1c1.3,2.4,3.2,4.3,5.6,5.7c2.4,1.4,5.1,2.1,8.1,2.1
			c3,0,5.8-0.7,8.2-2.2c2.4-1.5,4.3-3.5,5.6-6.1l7.9,3.5c-2.1,4-5,7.1-8.9,9.5c-3.9,2.4-8.2,3.6-13.2,3.6c-4.6,0-8.8-1.1-12.5-3.2
			c-3.7-2.1-6.7-5-8.9-8.7c-2.2-3.7-3.3-7.8-3.3-12.3c0-4.5,1.1-8.6,3.2-12.3c2.1-3.7,5-6.6,8.7-8.7c3.7-2.1,7.8-3.2,12.3-3.2
			c4.9,0,9.2,1.2,13.1,3.7c3.9,2.5,6.8,5.8,8.7,9.9c1.9,4.2,2.6,8.8,2,13.8h-39.7V146.9z"/>
		<path d="M716.7,163.8c2.5,1.9,5.8,2.9,10,2.9c2.5,0,4.7-0.4,6.7-1.2c2-0.8,3.5-1.9,4.6-3.4c1.1-1.4,1.6-3,1.6-4.8
			c0-2.1-0.7-3.9-2-5.2c-1.3-1.3-2.9-2.4-4.9-3.1c-1.9-0.8-4.6-1.6-8-2.5c-4.5-1.2-8.1-2.3-10.9-3.5c-2.8-1.2-5.2-3-7.2-5.5
			s-3-5.7-3-9.8c0-3.3,1-6.4,2.9-9.1c1.9-2.7,4.6-4.9,8-6.5c3.4-1.6,7.2-2.4,11.4-2.4c4.3,0,8,0.7,11.4,2.2c3.3,1.5,6,3.6,8,6.2
			c2,2.6,3.3,5.7,3.8,9.1l-10,2.1c-0.5-3.3-2-5.9-4.4-7.9c-2.4-2-5.4-3-9.1-3c-2.3,0-4.3,0.4-6.1,1.1c-1.8,0.8-3.2,1.8-4.2,3.1
			c-1,1.3-1.5,2.9-1.5,4.6c0,2,0.6,3.6,1.9,4.8c1.3,1.2,2.8,2.2,4.7,2.9c1.9,0.7,4.4,1.5,7.7,2.4c4.6,1.2,8.3,2.3,11.2,3.6
			c2.9,1.2,5.4,3.1,7.4,5.7c2.1,2.6,3.1,6.1,3.1,10.5c0,3.5-1,6.6-3.1,9.3c-2.1,2.8-4.9,4.9-8.4,6.5c-3.6,1.6-7.5,2.4-11.9,2.4
			c-6.7,0-12.2-1.6-16.6-4.7c-4.4-3.2-7-7.4-7.7-12.8l10-2.1C712.7,159.2,714.2,161.9,716.7,163.8z"/>
		<path d="M760.5,138.9c2.2-3.7,5.1-6.6,8.9-8.7c3.7-2.1,7.9-3.2,12.5-3.2c5,0,9.5,1.3,13.5,3.9c3.9,2.6,6.9,6.2,8.8,10.8l-8.7,3
			c-1.3-2.8-3.1-5-5.5-6.6c-2.4-1.6-5.1-2.4-8.2-2.4c-2.8,0-5.3,0.7-7.6,2c-2.3,1.3-4.1,3.2-5.4,5.6c-1.3,2.4-2,5-2,7.9
			c0,2.9,0.7,5.5,2,7.9c1.3,2.4,3.1,4.3,5.4,5.6c2.3,1.3,4.8,2,7.6,2c3,0,5.8-0.8,8.2-2.4c2.4-1.6,4.2-3.8,5.5-6.5l8.7,2.9
			c-1.9,4.6-4.9,8.1-8.8,10.8c-3.9,2.6-8.4,3.9-13.5,3.9c-4.6,0-8.8-1.1-12.5-3.2c-3.7-2.1-6.7-5-8.9-8.7c-2.2-3.7-3.3-7.8-3.3-12.3
			C757.2,146.7,758.3,142.6,760.5,138.9z"/>
		<path d="M812.7,107h9.5v31.9l-1.5-1.9c1.6-3.1,3.8-5.5,6.8-7.3c2.9-1.8,6.3-2.7,10-2.7c3.7,0,7,0.9,10,2.6
			c2.9,1.7,5.3,4.1,6.9,7.1c1.7,3,2.5,6.4,2.5,10.1v27.8h-9.5v-26.3c0-2.4-0.5-4.5-1.6-6.4c-1.1-1.9-2.6-3.4-4.5-4.5
			c-1.9-1.1-4.1-1.6-6.4-1.6c-2.4,0-4.6,0.5-6.5,1.6c-1.9,1.1-3.4,2.6-4.5,4.5c-1.1,1.9-1.6,4.1-1.6,6.4v26.3h-9.5V107z"/>
		<path d="M868.7,138.9c2.2-3.7,5.1-6.6,8.9-8.7c3.7-2.1,7.9-3.2,12.5-3.2c4.6,0,8.8,1.1,12.5,3.2c3.7,2.1,6.7,5,8.9,8.7
			c2.2,3.7,3.3,7.8,3.3,12.3c0,4.5-1.1,8.6-3.3,12.3c-2.2,3.7-5.1,6.6-8.9,8.7c-3.7,2.1-7.9,3.2-12.5,3.2c-4.6,0-8.8-1.1-12.5-3.2
			c-3.7-2.1-6.7-5-8.9-8.7c-2.2-3.7-3.3-7.8-3.3-12.3C865.4,146.7,866.5,142.6,868.7,138.9z M877.1,159c1.3,2.4,3.1,4.3,5.4,5.6
			c2.3,1.3,4.8,2,7.6,2c2.8,0,5.3-0.7,7.6-2c2.3-1.3,4.1-3.2,5.4-5.6c1.3-2.4,2-5,2-7.9c0-2.9-0.7-5.5-2-7.9
			c-1.3-2.4-3.1-4.3-5.4-5.6c-2.3-1.3-4.8-2-7.6-2c-2.8,0-5.3,0.7-7.6,2c-2.3,1.3-4.1,3.2-5.4,5.6c-1.3,2.4-2,5-2,7.9
			C875.1,154,875.8,156.6,877.1,159z"/>
		<path d="M924.7,138.9c2.2-3.7,5.1-6.6,8.9-8.7c3.7-2.1,7.9-3.2,12.5-3.2c4.6,0,8.8,1.1,12.5,3.2c3.7,2.1,6.7,5,8.9,8.7
			c2.2,3.7,3.3,7.8,3.3,12.3c0,4.5-1.1,8.6-3.3,12.3c-2.2,3.7-5.1,6.6-8.9,8.7c-3.7,2.1-7.9,3.2-12.5,3.2c-4.6,0-8.8-1.1-12.5-3.2
			c-3.7-2.1-6.7-5-8.9-8.7c-2.2-3.7-3.3-7.8-3.3-12.3C921.4,146.7,922.5,142.6,924.7,138.9z M933.1,159c1.3,2.4,3.1,4.3,5.4,5.6
			c2.3,1.3,4.8,2,7.6,2c2.8,0,5.3-0.7,7.6-2c2.3-1.3,4.1-3.2,5.4-5.6c1.3-2.4,2-5,2-7.9c0-2.9-0.7-5.5-2-7.9
			c-1.3-2.4-3.1-4.3-5.4-5.6c-2.3-1.3-4.8-2-7.6-2c-2.8,0-5.3,0.7-7.6,2c-2.3,1.3-4.1,3.2-5.4,5.6c-1.3,2.4-2,5-2,7.9
			C931.2,154,931.8,156.6,933.1,159z"/>
		<path d="M979.7,107h9.5v67.4h-9.5V107z"/>
	</g>
</g>
</svg>
