<?xml version="1.0" encoding="utf-8"?>
<!-- Generator: Adobe Illustrator 25.1.0, SVG Export Plug-In . SVG Version: 6.00 Build 0)  -->
<svg version="1.1" id="Layer_1" xmlns="http://www.w3.org/2000/svg" xmlns:xlink="http://www.w3.org/1999/xlink" x="0px" y="0px"
	 viewBox="0 0 318.5 215.4" style="enable-background:new 0 0 318.5 215.4;" xml:space="preserve">
<style type="text/css">
	.st0{fill:#001E28;}
	.st1{fill:#009245;}
	.st2{fill:#FC4755;}
	.st3{fill:#00B4FF;}
	.st4{fill:#FFAF00;}
	.st5{fill:none;stroke:#FFAF00;stroke-width:3;stroke-miterlimit:10;}
	.st6{fill:#1A1A1A;}
	.st7{fill:#FFFFFF;}
	.st8{fill:#FF7A00;}
	.st9{fill:url(#SVGID_1_);}
	.st10{fill:#F08221;}
	.st11{fill:#DBB425;}
	.st12{fill:#A4B73A;}
	.st13{fill:#72B144;}
	.st14{fill:#EC6F25;}
	.st15{fill:#ED4E25;}
	.st16{fill:#579041;}
	.st17{fill:#F39B23;}
	.st18{fill:#9A3C2E;}
	.st19{stroke:#F7F7F7;stroke-width:4.7867;stroke-miterlimit:10;}
	.st20{fill:#231F21;}
	.st21{fill:#FDD29E;}
	.st22{fill:#734540;}
	.st23{fill:#827168;}
	.st24{fill:#F05B45;}
	.st25{fill:#807E80;}
	.st26{fill:#8E6051;}
	.st27{fill:#AFB0B4;}
	.st28{fill:#B0B0B4;}
	.st29{fill:#DD896E;}
	.st30{fill:#67544A;}
	.st31{fill:#DD896D;}
	.st32{fill:#FCFDFB;}
	.st33{fill:#72443F;}
	.st34{fill:#DD8B6C;}
	.st35{fill:#FFFFFC;}
	.st36{fill:#4C494E;}
	.st37{fill:#8B5E50;}
	.st38{fill:#FAD19E;}
	.st39{fill:#FCD29E;}
	.st40{fill:#DC8A6D;}
	.st41{fill:#DD8A6E;}
	.st42{fill:#4C494F;}
	.st43{fill:#4B494E;}
	.st44{fill:#DC8A6E;}
	.st45{fill:#807D80;}
	.st46{fill:#4D4A4F;}
	.st47{fill:#4B494F;}
	.st48{fill:#FAFAFA;}
	.st49{fill:#F6F7F7;}
	.st50{fill:#EDECEC;}
	.st51{fill:#221F21;}
	.st52{fill:#9B3A2C;}
	.st53{fill:#F9CFA0;}
	.st54{fill:#ED5A44;}
	.st55{fill:#C45748;}
	.st56{fill:#D1CFCF;}
	.st57{fill:#2D292B;}
	.st58{fill:#DC8B6D;}
	.st59{fill:#DA8B6E;}
	.st60{fill:#322D2C;}
	.st61{fill:#2D2A2B;}
	.st62{fill:#FBFBF9;}
	.st63{fill:#F7F7F7;}
	.st64{stroke:#F7F7F7;stroke-width:4.7867;stroke-linecap:round;stroke-linejoin:round;stroke-miterlimit:10;}
	.st65{fill:#38373A;}
	.st66{fill:#5F6060;}
	.st67{fill:#8C191B;}
	.st68{fill:#EB1F27;}
	.st69{fill:#3C4FA1;}
	.st70{fill:#229FD9;}
	.st71{fill:#E48924;}
	.st72{fill:#FBCD0B;}
	.st73{fill:#606060;}
	.st74{fill:#FACE0B;}
	.st75{fill:#FACF0A;}
	.st76{fill:#616262;}
	.st77{fill:#383639;}
	.st78{fill:#DD8A6D;}
	.st79{fill:#8E191C;}
	.st80{fill:#383739;}
	.st81{fill:#606061;}
	.st82{fill:#8D191B;}
	.st83{fill:#5F5E5E;}
	.st84{fill:#222021;}
	.st85{fill:#5F5F60;}
	.st86{fill:#E91F28;}
	.st87{fill:#E28925;}
	.st88{fill:#249ED9;}
	.st89{fill:#636464;}
	.st90{fill:#D98A6E;}
	.st91{fill:#575657;}
	.st92{fill:#D98A6D;}
	.st93{fill:#E5C293;}
	.st94{fill:#333233;}
	.st95{fill:#312D2F;}
	.st96{fill:#EB2229;}
	.st97{fill:#BB2630;}
	.st98{fill:#019147;}
	.st99{fill:#36B04A;}
	.st100{opacity:0.24;clip-path:url(#SVGID_3_);}
	.st101{fill:#885E3B;}
	.st102{fill:#240F0F;}
	.st103{fill:#A81F24;}
	.st104{fill:none;}
	.st105{fill:#EA202C;}
	.st106{fill:#211E1F;}
	.st107{fill:#F8A81A;}
	.st108{fill:#28A6DE;}
	.st109{fill:#F79420;}
	.st110{fill:#C99C66;}
	.st111{fill:#EC1B34;}
	.st112{fill:#3B2314;}
	.st113{fill:#FE7D15;}
	.st114{fill:#151E27;}
	.st115{fill:#FD7C15;}
	.st116{fill:#570A0B;}
	.st117{fill:#E82429;}
	.st118{fill:#F4831F;}
	.st119{fill:#111320;}
	.st120{fill:none;stroke:#211E1F;stroke-width:0.1212;stroke-miterlimit:10;}
	.st121{fill:#EA6427;}
	.st122{fill:none;stroke:#211E1F;stroke-width:0.1266;stroke-miterlimit:10;}
	.st123{fill:#20808C;}
	.st124{fill:#0D743D;}
	.st125{fill:#E6252B;}
</style>
<g>
	<g>
		<path class="st123" d="M3.5,146.2v-42.9h10.5v33.1h17.4v9.8H3.5z"/>
		<path class="st123" d="M31.9,146.2l14.5-42.9h12.2l14.5,42.9H62.1l-2-6.7H45l-2,6.7H31.9z M48.2,129.4h8.7l-4.3-14.1L48.2,129.4z"
			/>
		<path class="st123" d="M76.3,146.2v-42.9h13.3L103,130v-26.7h10.5v42.9h-13.4l-13.3-26.7v26.7H76.3z"/>
		<path class="st123" d="M124.5,141c-3.5-3.9-5.3-9.3-5.3-16.2c0-6.9,1.8-12.4,5.3-16.2c3.5-3.9,8.2-5.8,14.2-5.8
			c5.2,0,9.3,1.4,12.4,4.2s5,6.5,5.9,11.1h-10.7c-0.5-1-1-1.9-1.4-2.6c-0.5-0.7-1.2-1.3-2.3-2c-1.1-0.6-2.3-0.9-3.8-0.9
			c-6,0-9,4.4-9,12.2c0,7.8,3,12.3,9,12.3c4.1,0,6.7-1.9,7.8-5.8h-9v-8.6h20v4c0,6-1.7,10.9-5.1,14.6c-3.4,3.7-8,5.6-13.7,5.6
			C132.8,146.8,128.1,144.9,124.5,141z"/>
		<path class="st123" d="M180.8,146.8c-5.5,0-9.9-1.7-13-5.1c-3.1-3.4-4.7-8.1-4.7-14.2v-24.2h10.5v24.2c0,6.3,2.8,9.5,7.3,9.5
			c4.5,0,7.3-3.2,7.3-9.5v-24.2h10.4v24.2c0,6.1-1.6,10.8-4.7,14.2C190.6,145.1,186.3,146.8,180.8,146.8z"/>
		<path class="st123" d="M200.2,146.2l14.5-42.9h12.2l14.5,42.9h-11.1l-2-6.7h-15.1l-2,6.7H200.2z M216.4,129.4h8.7l-4.3-14.1
			L216.4,129.4z"/>
		<path class="st123" d="M247,141c-3.5-3.9-5.3-9.3-5.3-16.2c0-6.9,1.8-12.4,5.3-16.2c3.5-3.9,8.2-5.8,14.2-5.8
			c5.2,0,9.3,1.4,12.4,4.2c3,2.8,5,6.5,5.9,11.1h-10.7c-0.5-1-1-1.9-1.4-2.6c-0.5-0.7-1.2-1.3-2.3-2c-1.1-0.6-2.3-0.9-3.8-0.9
			c-6,0-9,4.4-9,12.2c0,7.8,3,12.3,9,12.3c4.1,0,6.7-1.9,7.8-5.8h-9v-8.6h20v4c0,6-1.7,10.9-5.1,14.6c-3.4,3.7-8,5.6-13.7,5.6
			C255.2,146.8,250.5,144.9,247,141z"/>
		<path class="st123" d="M285.8,146.2v-42.9h28.5v9.8h-18v6.7h16.8v9.2h-16.8v7.3h18.6v9.8H285.8z"/>
		<path class="st123" d="M45.7,211.8c-3.1-2.4-4.9-5.9-5.1-10.5h10.4c0.3,3.1,2.5,4.6,6.7,4.6c4.3,0,6.4-1.3,6.4-4
			c0-4-7.2-3.4-13.4-5.5c-3.1-1-5.8-2.5-7.5-5.9c-0.8-1.7-1.2-3.7-1.2-6.1c0-4.3,1.5-7.6,4.5-9.8c3-2.2,6.7-3.3,11.1-3.3
			c5.3,0,9.3,1.3,12,3.8c2.7,2.5,4.2,5.8,4.5,9.6H63.8c-0.3-2.4-2.4-4-5.8-4c-3.5,0-5.2,1.6-5.2,3.7c0,1.9,1.8,3.2,4.4,3.8
			c2.6,0.6,5.8,1,9,2.1c3.1,1,5.8,2.4,7.5,5.6c0.8,1.6,1.2,3.5,1.2,5.7c0,4.1-1.5,7.4-4.5,9.9c-3,2.5-7.2,3.8-12.6,3.8
			C52.9,215.4,48.9,214.2,45.7,211.8z"/>
		<path class="st123" d="M83.6,209.6c-3.5-3.9-5.3-9.3-5.3-16.2c0-6.9,1.8-12.4,5.3-16.2c3.5-3.9,8.2-5.8,14.2-5.8
			c5.2,0,9.3,1.4,12.4,4.2c3,2.8,5,6.5,5.9,11.1h-10.7c-0.5-1-1-1.9-1.4-2.6c-0.5-0.7-1.2-1.3-2.3-2c-1.1-0.6-2.3-0.9-3.8-0.9
			c-6,0-9,4.4-9,12.2c0,7.8,3,12.3,9,12.3c1.4,0,2.7-0.3,3.8-1c1.1-0.6,1.8-1.3,2.3-2c0.5-0.7,0.9-1.5,1.4-2.6h10.7
			c-0.9,4.6-2.9,8.3-5.9,11.1c-3,2.8-7.1,4.2-12.4,4.2C91.9,215.4,87.2,213.5,83.6,209.6z"/>
		<path class="st123" d="M121.6,214.8v-42.9H132v16.2h13.9v-16.2h10.5v42.9h-10.5V198H132v16.8H121.6z"/>
		<path class="st123" d="M181.6,215.4c-5.9,0-10.7-1.9-14.2-5.8c-3.5-3.9-5.3-9.3-5.3-16.2c0-6.9,1.8-12.4,5.3-16.2
			c3.5-3.9,8.2-5.8,14.2-5.8s10.6,1.9,14.2,5.8c3.5,3.9,5.3,9.3,5.3,16.2c0,6.9-1.8,12.4-5.3,16.2
			C192.3,213.5,187.6,215.4,181.6,215.4z M181.6,205.6c2.9,0,5.1-1.1,6.6-3.3c1.6-2.2,2.4-5.1,2.4-9c0-3.8-0.8-6.8-2.4-9
			c-1.6-2.2-3.8-3.2-6.6-3.2c-2.9,0-5.1,1.1-6.7,3.2c-1.6,2.2-2.4,5.2-2.4,9c0,3.9,0.8,6.9,2.4,9
			C176.5,204.6,178.8,205.6,181.6,205.6z"/>
		<path class="st123" d="M224.6,215.4c-5.9,0-10.7-1.9-14.2-5.8c-3.5-3.9-5.3-9.3-5.3-16.2c0-6.9,1.8-12.4,5.3-16.2
			c3.5-3.9,8.2-5.8,14.2-5.8c5.9,0,10.6,1.9,14.2,5.8c3.5,3.9,5.3,9.3,5.3,16.2c0,6.9-1.8,12.4-5.3,16.2
			C235.2,213.5,230.5,215.4,224.6,215.4z M224.6,205.6c2.9,0,5.1-1.1,6.6-3.3c1.6-2.2,2.4-5.1,2.4-9c0-3.8-0.8-6.8-2.4-9
			c-1.6-2.2-3.8-3.2-6.6-3.2c-2.9,0-5.1,1.1-6.7,3.2c-1.6,2.2-2.4,5.2-2.4,9c0,3.9,0.8,6.9,2.4,9
			C219.5,204.6,221.7,205.6,224.6,205.6z"/>
		<path class="st123" d="M249.8,214.8v-42.9h10.5V205h17.4v9.8H249.8z"/>
	</g>
	<g>
		<g>
			<path class="st123" d="M0,0v75.5h75.5V0H0z M30.6,48.2c1.7,2.5,4.3,3.7,7.8,3.7c1.7,0,3.1-0.4,4.4-1.1c1.2-0.7,2.1-1.5,2.7-2.3
				c0.5-0.8,1.1-1.8,1.7-3h12.4c-1.1,5.3-3.4,9.6-6.8,12.8c-3.5,3.2-8.3,4.9-14.3,4.9c-6.8,0-12.3-2.2-16.4-6.7
				C18,52,15.9,45.8,15.9,37.7S18,23.5,22,19c4.1-4.5,9.5-6.7,16.4-6.7c6,0,10.8,1.6,14.3,4.8c3.5,3.2,5.8,7.5,6.8,12.9H47.1
				c-0.6-1.2-1.2-2.2-1.7-3c-0.5-0.8-1.4-1.5-2.7-2.3c-1.2-0.7-2.7-1.1-4.4-1.1c-3.5,0-6,1.2-7.8,3.7c-1.7,2.5-2.6,6-2.6,10.5
				C28,42.3,28.9,45.8,30.6,48.2z"/>
		</g>
		<g>
			<path class="st123" d="M81,0v75.5h75.5V0H81z M135.5,62.5H102V12.9h32.9v11.3h-20.8v7.8h19.5v10.7h-19.5v8.5h21.5V62.5z"/>
		</g>
		<g>
			<path class="st123" d="M205,27.9c2,2.4,2.9,5.7,2.9,9.8c0,4.1-1,7.4-2.9,9.8c-2,2.4-4.3,3.6-7.2,3.6h-6.4V24.3h6.4
				C200.7,24.3,203.1,25.5,205,27.9z"/>
			<path class="st123" d="M162,0v75.5h75.5V0H162z M214.2,55.8c-3.9,4.5-9.1,6.7-15.7,6.7h-19.1V12.9h19.1c6.6,0,11.8,2.2,15.7,6.7
				c3.9,4.5,5.8,10.5,5.8,18.1C220,45.4,218.1,51.4,214.2,55.8z"/>
		</g>
		<g>
			<polygon class="st123" points="280.7,26.8 285.8,43.1 275.7,43.1 			"/>
			<path class="st123" d="M243,0v75.5h75.5V0H243z M291.8,62.5l-2.3-7.8H272l-2.3,7.8h-12.7l16.8-49.6h14.1l16.8,49.6H291.8z"/>
		</g>
	</g>
</g>
</svg>
