<?xml version="1.0" encoding="utf-8"?>
<!-- Generator: Adobe Illustrator 25.1.0, SVG Export Plug-In . SVG Version: 6.00 Build 0)  -->
<svg version="1.1" id="Layer_1" xmlns="http://www.w3.org/2000/svg" xmlns:xlink="http://www.w3.org/1999/xlink" x="0px" y="0px"
	 viewBox="0 0 554.1 233.8" style="enable-background:new 0 0 554.1 233.8;" xml:space="preserve">
<style type="text/css">
	.st0{fill:#001E28;}
	.st1{fill:#009245;}
	.st2{fill:#FC4755;}
	.st3{fill:#00B4FF;}
	.st4{fill:#FFAF00;}
	.st5{fill:none;stroke:#FFAF00;stroke-width:3;stroke-miterlimit:10;}
	.st6{fill:#1A1A1A;}
	.st7{fill:#FFFFFF;}
	.st8{fill:#FF7A00;}
	.st9{fill:url(#SVGID_1_);}
	.st10{fill:#F08221;}
	.st11{fill:#DBB425;}
	.st12{fill:#A4B73A;}
	.st13{fill:#72B144;}
	.st14{fill:#EC6F25;}
	.st15{fill:#ED4E25;}
	.st16{fill:#579041;}
	.st17{fill:#F39B23;}
	.st18{fill:#9A3C2E;}
	.st19{stroke:#F7F7F7;stroke-width:4.7867;stroke-miterlimit:10;}
	.st20{fill:#231F21;}
	.st21{fill:#FDD29E;}
	.st22{fill:#734540;}
	.st23{fill:#827168;}
	.st24{fill:#F05B45;}
	.st25{fill:#807E80;}
	.st26{fill:#8E6051;}
	.st27{fill:#AFB0B4;}
	.st28{fill:#B0B0B4;}
	.st29{fill:#DD896E;}
	.st30{fill:#67544A;}
	.st31{fill:#DD896D;}
	.st32{fill:#FCFDFB;}
	.st33{fill:#72443F;}
	.st34{fill:#DD8B6C;}
	.st35{fill:#FFFFFC;}
	.st36{fill:#4C494E;}
	.st37{fill:#8B5E50;}
	.st38{fill:#FAD19E;}
	.st39{fill:#FCD29E;}
	.st40{fill:#DC8A6D;}
	.st41{fill:#DD8A6E;}
	.st42{fill:#4C494F;}
	.st43{fill:#4B494E;}
	.st44{fill:#DC8A6E;}
	.st45{fill:#807D80;}
	.st46{fill:#4D4A4F;}
	.st47{fill:#4B494F;}
	.st48{fill:#FAFAFA;}
	.st49{fill:#F6F7F7;}
	.st50{fill:#EDECEC;}
	.st51{fill:#221F21;}
	.st52{fill:#9B3A2C;}
	.st53{fill:#F9CFA0;}
	.st54{fill:#ED5A44;}
	.st55{fill:#C45748;}
	.st56{fill:#D1CFCF;}
	.st57{fill:#2D292B;}
	.st58{fill:#DC8B6D;}
	.st59{fill:#DA8B6E;}
	.st60{fill:#322D2C;}
	.st61{fill:#2D2A2B;}
	.st62{fill:#FBFBF9;}
	.st63{fill:#F7F7F7;}
	.st64{stroke:#F7F7F7;stroke-width:4.7867;stroke-linecap:round;stroke-linejoin:round;stroke-miterlimit:10;}
	.st65{fill:#38373A;}
	.st66{fill:#5F6060;}
	.st67{fill:#8C191B;}
	.st68{fill:#EB1F27;}
	.st69{fill:#3C4FA1;}
	.st70{fill:#229FD9;}
	.st71{fill:#E48924;}
	.st72{fill:#FBCD0B;}
	.st73{fill:#606060;}
	.st74{fill:#FACE0B;}
	.st75{fill:#FACF0A;}
	.st76{fill:#616262;}
	.st77{fill:#383639;}
	.st78{fill:#DD8A6D;}
	.st79{fill:#8E191C;}
	.st80{fill:#383739;}
	.st81{fill:#606061;}
	.st82{fill:#8D191B;}
	.st83{fill:#5F5E5E;}
	.st84{fill:#222021;}
	.st85{fill:#5F5F60;}
	.st86{fill:#E91F28;}
	.st87{fill:#E28925;}
	.st88{fill:#249ED9;}
	.st89{fill:#636464;}
	.st90{fill:#D98A6E;}
	.st91{fill:#575657;}
	.st92{fill:#D98A6D;}
	.st93{fill:#E5C293;}
	.st94{fill:#333233;}
	.st95{fill:#312D2F;}
	.st96{fill:#EB2229;}
	.st97{fill:#BB2630;}
	.st98{fill:#019147;}
	.st99{fill:#36B04A;}
	.st100{opacity:0.24;clip-path:url(#SVGID_3_);}
	.st101{fill:#885E3B;}
	.st102{fill:#240F0F;}
	.st103{fill:#A81F24;}
	.st104{fill:none;}
	.st105{fill:#EA202C;}
	.st106{fill:#211E1F;}
	.st107{fill:#F8A81A;}
	.st108{fill:#28A6DE;}
	.st109{fill:#F79420;}
	.st110{fill:#C99C66;}
	.st111{fill:#EC1B34;}
	.st112{fill:#3B2314;}
	.st113{fill:#FE7D15;}
	.st114{fill:#151E27;}
	.st115{fill:#FD7C15;}
	.st116{fill:#570A0B;}
	.st117{fill:#E82429;}
	.st118{fill:#F4831F;}
	.st119{fill:#111320;}
	.st120{fill:none;stroke:#211E1F;stroke-width:0.1212;stroke-miterlimit:10;}
	.st121{fill:#EA6427;}
	.st122{fill:none;stroke:#211E1F;stroke-width:0.1266;stroke-miterlimit:10;}
	.st123{fill:#20808C;}
	.st124{fill:#0D743D;}
	.st125{fill:#E6252B;}
</style>
<g>
	<g>
		<g>
			<path class="st124" d="M120.4,219.5c-0.8,0.1-1.5,0.1-2.2,0.3c-1.5,0.3-1.7,0.2-2.3-1.3c-0.2-0.5-0.4-1-1-1
				c-1.2,0-2.3-0.2-3.5,0.2c-0.5,0.2-0.8,0.4-1.2,0.7c-0.5,0.5-1.2,1.2-1.9,1.3c-1.5,0.3-3,0.2-4.5-0.3c-0.6-0.2-1.3-0.3-1.9-0.4
				c-0.5-0.1-1,0-1.4,0.4c-0.3,0.3-0.7,0.6-1.1,0.6c-2,0.2-4,0.3-5.9-0.2c-0.2,0-0.3-0.2-0.7-0.5c0.6,0,1,0.1,1.3,0
				c0.3,0,0.6-0.2,0.7-0.4c0.1-0.5-0.3-0.6-0.6-0.6c-0.8-0.1-1.7-0.1-2.5-0.1c-2.3,0-4.6,0.1-6.9,0.1c-0.1,0-0.3,0.1-0.4,0.1
				c0.2,0.4,0.4,0.8,0.7,1.3c-0.9,0-1.5,0-2.2,0.1c-0.1,1.5-0.5,1.6-1.7,1c-0.6-0.3-1.3-0.5-1.9-0.9c-0.8-0.4-1.4-0.4-2.1,0.2
				c-0.3,0.3-0.7,0.3-1,0c-0.3-0.2-0.5-0.5-0.8-0.8c-0.3-0.2-0.6-0.4-1.1-0.7c-0.1,0.7-0.2,1.1-0.3,1.7c-0.9-0.2-1.7-0.3-2.5-0.6
				c-0.6-0.2-1.1-0.2-1.7,0.2c-0.3,0.3-0.8,0.3-1.3,0.3c-0.2,0-0.5,0-0.8-0.1c-0.3,0.6-0.3,1,0.2,1.3c0.3,0.3,0.6,0.6,0.9,0.8
				c0.4,0.3,0.5,0.7,0.4,1.2c-0.1,1.1-0.8,1.8-1.9,1.9c-1.3,0.1-2.7,0.2-4,0.2c-0.4,0-0.8-0.1-1.2-0.3c-0.2-0.1-0.5-0.4-0.5-0.6
				c0-0.2,0.4-0.4,0.6-0.5c0.1,0,0.2,0,0.3,0c0.7-0.1,0.9-0.2,0.8-0.9c-0.1-0.9-0.3-1.8-0.9-2.6c-0.2-0.3-0.3-0.7-0.3-1
				c0.3-1.3,0.6-2.7,1.1-3.9c0.8-1.8,1.8-3.6,2.7-5.4c0.1-0.2,0.2-0.4,0.2-0.6c0.2-0.5,0.3-0.9,0.5-1.4c0.8-1.4,1.6-2.8,2.4-4.3
				c0.8-1.5,1.6-3,2.5-4.3c0.7-1,0.9-1.8,0.5-3c-0.4-1.3-0.4-1.3-1.7-1.4c-0.6,0-1.2-0.1-1.7-0.2c-0.5-0.2-0.8-0.6-0.4-0.9
				c0.6-0.6,0.8-1.5,1.3-2.1c1.2-1.5,1.8-3.2,2.6-4.8c0.7-1.5,0.6-2.1-0.6-3.2c-0.2-0.2-0.4-0.4-0.5-0.6c-0.2-0.8-0.2-1.6-0.6-2.4
				c-0.3-0.7-0.3-1.5-0.3-2.2c0-0.5,0.1-1,0.2-1.4c0.1-0.6,0.3-1.2,0.1-1.7c-0.3-1.1,0-2.1,0.2-3c0.3-1.2,0.5-2.4,0.6-3.6
				c0-1.1,0.3-2,0.7-3c0.3-0.7,0.6-1.4,0.7-2.2c0.2-1.3,0.6-2.5,1.3-3.6c0.5-0.8,0.7-1.8,0.4-2.6c-0.6-1.6-0.9-3.3-1-5
				c-0.1-0.9-0.4-1.7-1.4-2c-0.3-0.1-0.6-0.6-0.8-0.9c-0.4-0.5-0.7-1.1-1-1.6c-0.3,0.1-0.4,0.1-0.6,0.1c-0.9,0.2-0.8,0.2-1.3-0.6
				c-0.3-0.6-0.7-1.3-1.2-1.8c-0.9-1.1-1.9-1.7-3.4-1.3c-0.2,0.6-0.1,1.2,0.2,1.7c0.4,0.6,0.7,1.3,1,2.1c0.5,1.3,0.2,1.9-1.2,2.3
				c-0.7,0.2-1,0.5-1.2,1.2c-0.2,1.3,0,1.7,1.1,2.4c0.3,0.2,0.6,0.3,0.8,0.6c1.1,1.3,1.5,3,2.8,4.2c0.5,0.5,0.6,1.1,0.5,1.8
				c-0.1,0.7-0.2,1.5,0.9,1.6c0.4,0,0.4,0.5,0.1,0.7c-0.7,0.6-0.5,1.2-0.2,1.8c0.1,0.3,0.3,0.7,0.2,1c-0.2,1.4-0.4,2.7-0.7,4
				c-1.6,0.3-1.7,0.3-2.3-0.9c-0.1-0.1-0.1-0.3-0.2-0.4c-0.2-0.2-0.5-0.4-0.8-0.3c-0.2,0.1-0.5,0.4-0.5,0.6c0,1,0.1,1.9,0.7,2.7
				c0.2,0.3,0.4,0.5,0.6,0.8c0.8,1.6,1.3,3.4,1.6,5.2c0,0.1-0.1,0.2-0.1,0.4c-0.3-0.1-0.6-0.2-0.8-0.3c-0.4,0.3-0.7,0.6-1,0.9
				c-0.7-0.3-0.9-0.9-1.2-1.4c-0.4-0.5-0.7-1.1-1.2-1.5c-1.9-1.4-3.4-3.2-4.6-5.2c-0.7-1.3-1.2-2.7-1.3-4.1c0-0.5,0-1.1,0.3-1.4
				c0.7-0.6,0.7-1.5,0.9-2.3c0.2-1,0.2-2-0.7-2.7c-0.1-0.1,0-0.2-0.1-0.3c0.4-0.4,0.8-0.3,1.3-0.1c0.3,0.2,0.6,0.5,0.9,0.7
				c0.7,0.6,1.2,0.4,1.4-0.4c0.2-0.7-0.1-1.1-0.5-1.7c-0.9-1.2-1.9-2.4-2.7-3.7c-0.5-0.7-0.5-1.1,0.1-1.7c0.5-0.5,0.6-1,0.4-1.6
				c-0.2-0.7-0.5-1.3-0.8-2c-0.3-0.8-0.7-1.5-1.1-2.3c-0.2-0.4-0.2-0.8-0.4-1.2c-0.4-0.6-0.4-1.1,0.2-1.6c0.4-0.3,0.4-0.7,0.1-1.1
				c-0.3-0.4-0.6-0.7-0.9-1c-0.2-0.2-0.6-0.4-0.8-0.6c-0.3-0.3-0.4-0.7-0.1-0.9c0.9-0.4,1.3-1.1,1.8-1.8c0.5-0.8,0.8-1.1,0.3-2
				c-0.3-0.5-0.7-1-1-1.5c-0.2-0.3-0.3-0.6-0.2-0.9c0.2-0.8,1.4-1.5,2.4-1.4c0,0.4-0.1,0.8,0,1.1c0.1,0.6,0.3,1.2,0.5,1.8
				c0.2,0.5,0.6,0.7,1.2,0.7c0.8,0,1.6-0.1,2.3-0.6c0.2-0.2,0.5-0.3,0.8-0.5c1.5-0.8,2.8-1.8,3.7-3.3c0.8-1.3,2-2.2,3.6-2.4
				c0.7-0.1,1.4-0.2,2-0.3c1.3-0.2,1.7,0,1.9,1.4c0.5,3.1,0,6.1-1.5,8.9c-0.4,0.7-0.5,1.4-0.1,2.2c0.4,0.8,0.5,1.6,0.2,2.5
				c-0.1,0.4-0.1,0.9-0.1,1.4c0,0.6,0.4,1,0.9,1.1c0.3,0.1,0.8-0.2,1.1-0.5c0.4-0.5,0.7-1.1,0.9-1.7c0.1-0.6,0.2-1.2,0.1-1.8
				c-0.3-1.9,0.4-3.2,2-4.1c0.5-0.3,1-0.6,1.4-1c0.4-0.3,0.7-0.7,0.9-1.2c0.2-0.7,0.3-1.4,0.4-2.1c0.1-2.1,0.2-4.1,0.2-6.2
				c0-1,0.1-2.1-0.7-3c-0.3-0.3-0.3-0.8-0.4-1.3c0.1-0.1,0.2-0.2,0.3-0.2c1-0.5,1.5-1.2,1.6-2.3c0.1-0.5,0.2-1,0.4-1.4
				c0.5-1.6,0.4-3.1-0.1-4.7c-0.1-0.3,0-0.7,0-1c0.1-1.7,0.2-3.5,0.4-5.2c0-0.6,0.1-1.1,0.2-1.7c0.5-2.2,0.6-4.4,0.6-6.6
				c0-2,0-4.1,0.6-6c0.1-0.5,0.4-0.9,0.7-1.3c0.4-0.4,0.5-0.7,0.3-1.2c-0.2-0.7-0.3-1.5-0.4-2.3c-0.1-2.5-0.2-5-0.3-7.4
				c0-0.2,0-0.4,0-0.6c0.1-1.3,0.1-2.6,0.2-3.9c0.1-1.5,0.1-3,0.2-4.5c0-0.5,0.2-1,0.4-1.4c0.4-0.7,0.4-1.4,0.1-2.1
				c-0.3-1-0.4-1.9-0.3-2.9c0.2-2.6,0.3-5.2,0.5-7.8c0.3-2.9-2-5.6-4-6.5c-1-0.5-1.9-1-2.7-1.8c-0.3-0.3-0.6-0.5-0.9-0.7
				c-0.9-0.6-1.9-1.2-2.8-1.8c-0.3-0.2-0.6-0.4-0.7-0.7c-0.4-0.6-1-1.2-1.7-1.3c-1.6-0.4-2.6-1.4-3.5-2.7c-0.7-1-1.7-1.5-3-1.4
				c-1.2,0.1-1.6-0.2-1.9-1.3c-0.6-2-1.1-3.9-1.2-6c0-1.4,0.2-2.6,1.4-3.6c0.2-0.2,0.4-0.4,0.6-0.7c0.7-0.8,1.3-1.6,1.5-2.6
				c0.1-0.8,0.4-1.6,0.5-2.5c0.3-1.5,0.9-2.7,2-3.7c0.2-0.1,0.4-0.3,0.4-0.5c0.3-1.2,0.5-2.4,0-3.5c-0.8-1.5-1.7-3-3.4-3.7
				c-0.3-0.1-0.5-0.4-0.8-0.6c-1.6-1.2-3.4-1.9-5.3-2.5c-0.2-0.1-0.5,0-0.7,0c-0.8,0-1.6,0.1-2.4-0.1c-1.5-0.3-3-0.7-4.4-1.3
				c-2.1-0.8-4.1-1.1-6.4-0.7c-1.6,0.3-3.1,0.6-4.4,1.7c-0.5,0.4-1,0.7-1.5,1c-0.2,0.1-0.4,0-0.6,0c0.1-0.2,0.1-0.5,0.2-0.7
				c0.1-0.1,0.3-0.2,0.5-0.3c0.4-0.1,0.5-0.4,0.6-0.7c0.2-1.3,1-2.3,2.1-3c0.2-0.1,0.4-0.4,0.6-0.6C42.2,7,41.9,7,41.6,7
				c-0.5,0-1,0.1-1.5,0c-0.8-0.1-1-0.4-0.6-1.1c0.8-1.4,1.5-2.8,2.9-3.8c0.1-0.1,0.1-0.2,0.2-0.4c-1.1-0.5-2.2-1-3.4-1.5
				c-0.6,1.6-0.4,3.3-0.4,4.8c0,1.6,0.1,3.3,0.1,5.2c-0.6-0.6-0.8-1-0.7-1.6c0.1-0.4,0.1-0.9-0.1-1.2c-0.4-0.8-0.3-1.6-0.2-2.4
				c0.2-1.1,0.3-2.2,0.3-3.3c0-1.2-1.4-2-2.5-1.4c-0.3,0.2-0.7,0.4-1,0.6c-1,0.7-2.1,1.3-3.4,1.5c-0.4,0-0.7,0.3-1,0.4
				c0.2,1.1,1.1,0.9,1.7,1.2c0.6,0.3,1.3,0.5,2.1,0.7c-0.5,0.7-0.9,1.3-1.3,1.8c0.5,0.7,0.8,1.3,1.3,1.9c0.5,0.7,0.8,1.4,0.2,2.2
				c0,0.1,0,0.2,0.1,0.5c0.5,0,1,0,1.6,0.1c0.9,0.1,1.7,0.7,1.9,1.6c0.2,0.9-0.1,1.5-1,2.1c-0.4,0.2-0.8,0.4-1.1,0.7
				c-0.4,0.3-0.7,0.7-0.9,1.1c-0.5,1-0.2,1.9,0.9,2.3c0.8,0.4,1.7,0.6,2.6,0.9c1.3,0.4,1.6,0.7,1.7,2c0,0.3,0,0.5,0,0.8
				c0.1,0.9,0.2,1.8,0.7,2.5c0.6,0.7,0.5,1.4,0.4,2.1c-0.1,0.9-0.2,1.7-0.3,2.6c-0.1,0.5,0.1,0.9,0.4,1.3c0.8,1.1,1.3,2.2,1.5,3.5
				c0.3,1.7,0.5,1.9,2.2,2.1c0.7,0.1,1.3,0.4,1.4,1.1c0.4,1.9,0.5,3.7-0.5,5.5c-0.5,0.9-1.2,1.3-2.1,1.3c-0.6,0-1.3-0.1-1.9-0.1
				c-0.8,0-1.4,0.2-1.8,1.1c-1,1.9-2.3,3.5-4.5,4.1c-1.2,0.4-2.4,0.9-3.5,1.3c-0.2,0.1-0.5,0.1-0.8,0.1c-2.2-0.1-4.1,0.4-6,1.6
				c-1.3,0.8-2.6,1.5-4.1,1.6c-1.3,0.1-2.5,0.1-3.8,0.2c-0.1,0-0.3-0.1-0.5-0.1c0-0.5-0.1-0.9,0.1-1.3c0.3-1.1,0.6-2.1,1.1-3.1
				c1-1.9,2.1-3.8,3.2-5.7c0.5-0.9,0.9-1.8,1.4-2.6c0.8-1,0.1-2,0.2-3c0.1-0.7,0.3-1,0.9-1.3c0.3-0.1,0.7-0.3,1-0.6c1-1,2-2,2.5-3.4
				c0.3-1,1.1-1.4,2.1-1.4c1,0,2-0.1,3-0.3c0.5-0.1,1-0.3,1.4-0.5c0.8-0.4,0.9-0.9,0.5-1.9c-0.8,0-1.7,0.1-2.8,0.1
				c0.4-0.6,0.5-1,0.8-1.3c1.7-1.6,3.5-3,5.5-4.1c0.4-0.2,0.7-0.4,1-0.7c0.4-0.4,0.5-1.1,0.3-1.5c-0.3-0.5-0.8-0.6-1.3-0.5
				c-1.7,0.1-3.2,0.6-4.7,1.2c-0.5,0.2-1.2,0.4-1.8,0.3c-2.6-0.2-4.9,0.7-6.9,2.3c-1.5,1.2-3,2.1-4.6,3c-1.9,1-3.6,2.1-4.9,3.8
				c-0.5,0.6-0.7,1-0.3,1.7c0.2,0.4,0.4,0.8,0.6,1.3c0.1,0.3,0.3,0.6,0.3,1c0.1,1.8-0.5,3.5-1.4,5.1c-0.9,1.5-1.7,3-2.6,4.4
				c-0.5,0.8-0.9,1.6-1.5,2.4C9,48.3,8.3,49,7.9,49.7c-0.7,1.1-0.4,2,0.8,2.4c1.2,0.4,2,1.3,2.5,2.5c0.2,0.4,0.3,0.8,0.4,1.2
				c0.5,1.3,1.3,1.6,2.5,0.9c0.7-0.4,1.3-0.9,1.9-1.4c0.4,0.8,0.3,1.2-0.4,1.7c-0.6,0.4-1.2,0.8-1.8,1.2c0.2,1.3,1.3,2.5,0.5,3.9
				c-0.8-0.7-1.5-1.3-2.2-1.9c-0.3-0.3-0.7-0.7-0.8-1.1c-0.4-1.1-0.4-2.3-1.1-3.2c-0.1-0.1,0-0.2,0-0.3c-0.1-1.2-0.7-1.9-1.9-2.2
				c-0.6-0.2-1.1-0.4-1.7-0.7c-1.1-0.6-1.1-1.5-0.2-2.2c0.2-0.1,0.4-0.3,0.5-0.4c1.5-1.1,2.2-2.7,2.2-4.5c0-0.2-0.1-0.5-0.2-0.7
				c-1,0.8-1.9,1.7-3,2.3c-1.7,1-2.5,2.4-2.9,4.2c-0.5,1.9-1.1,3.8-2,5.6c-0.4,0.9-0.6,1.8-0.8,2.7c-0.3,1.6,0.1,3,1.5,4.1
				c1.6,1.2,3.4,2.2,5.3,2.8c1.6,0.5,3.2,0.8,4.9,0.2c1.1-0.4,1.6,0.1,1.7,1.4c0,1.1,0.5,1.6,1.6,1.7c0.1,0,0.2,0,0.3,0
				c0.8,0.1,1.7,0.3,2.6,0.4c-0.1,0.4-0.2,0.7-0.2,0.9c-0.2,0.9-0.2,1.8,0.1,2.6c0.3,0.8,0.6,1.6,1.5,2c1.1,0.6,1.5,1.7,1.5,3
				c0,0.9-0.5,1.5-1.1,2c-0.6,0.7-0.8,1.4-1,2.3c0,0.2,0.1,0.5,0.2,0.6c0.2,0.1,0.6,0,0.7-0.1c0.2-0.2,0.3-0.6,0.5-0.9
				c0.4-0.6,0.8-1.2,1.3-1.7c0.4-0.4,0.9-0.2,1,0.4c0,0.1,0,0.3,0,0.5c-0.2,1.1,0.2,2.2,0.7,3.2c0.4,0.8,0.7,1.6,1.1,2.4
				c0.4,0.8,0.4,1.5,0.3,2.3c-0.1,0.6-0.2,1.3-0.2,1.9c0.1,3.4,0.5,6.7,0.2,10.1c0,0.4,0,0.8,0.1,1.2c0.2,0.8,0.4,0.9,1.2,0.9
				c2.3,0.1,4.6,0.3,6.9,0.3c2.9,0.1,5.5,1.1,8.2,1.8c1.4,0.3,2.7,0.6,4.1,0.4c0.5-0.1,1.1,0,1.6,0c0.8,0,1.7,0.1,2.5,0.1
				c1.1-0.1,2.2-0.3,3.3-0.5c1-0.1,2.1-0.2,3.1-0.2c1.3,0,2.4,0.5,3.3,1.5c0.6,0.7,1.1,1.3,1.7,2c0.8,0.9,1.9,1.1,2.9,0.5
				c1.2-0.7,2.3-1.6,2.9-3c0.1-0.2,0.2-0.5,0.3-0.7c0.6-1,1.5-1.4,2.6-1.2c0.8,0.2,1.3,0.8,1.5,1.9c0,0.3,0,0.5,0.1,0.8
				c0.1,0.5,0.2,1.2,0.5,1.6c0.6,0.8,1.2,1.6,1.9,2.2c0.9,0.7,1.6,1.6,2.1,2.6c0.3,0.7,0.2,1.1-0.6,1.1c-0.4,0-0.8-0.1-1.1-0.1
				c-0.4,0-0.9,0-1.2,0.1c-0.9,0.3-1,1.3-0.2,1.9c0.5,0.3,1.1,0.6,1.6,0.9c0.2,0.1,0.4,0.3,0.4,0.5c0,0.2-0.2,0.5-0.4,0.6
				c-1,0.4-1.9,0.7-3,0.5c-0.9-0.2-1.5,0.5-1.3,1.4c0.2,0.7,0.6,1.2,1.2,1.4c0.7,0.3,1.4,0.5,2.1,0.7c0.8,0.2,1.1,0.5,0.9,1.4
				c-0.2,1-0.6,1.7-1.7,1.9c-1,0.2-1.7,0.8-2.2,1.7c-0.6,1-1.4,1.7-2.4,2.2c-1.3,0.7-2.7,1.3-4.1,1.7c-1.1,0.3-1.6,0-2-1.1
				c-0.3-0.7-0.6-1.5-1-2.2c-0.3-0.5-0.7-1-1-1.5c-0.6-1.1-0.4-1.5,0.7-1.9c0.6-0.2,1.1-0.5,1.6-0.9c0.8-0.7,1.6-1.2,2.7-1.4
				c1.5-0.3,2.5-1.2,3.2-2.5c0.2-0.4,0.4-0.8,0.6-1.2c0.5-1.1,0.4-1.3-0.5-2c-2.1,0.9-4.1,1.7-6.1,2.6c-0.9,0.3-1.7,0.7-2.2,1.5
				c-0.1,0.2-0.4,0.4-0.6,0.5c-0.7,0.4-1.1,0-1.2-0.8c-0.1-1.4-0.1-2.7-0.3-4.1c-0.1-0.6-0.3-1.2-0.6-1.7c-0.4-0.7-1.3-1-2.2-0.8
				c-0.9,0.2-1.4,0.8-1.5,1.6c-0.1,1.6,0.2,3.1,0.8,4.5c0.6,1.4,0.6,3,0.7,4.5c0.1,0.8-0.2,0.9-0.9,1.1c-0.6,0.2-1.1,0.4-1.7,0.6
				c-0.8,0.4-1.2,0.2-1.2-0.7c0-0.9-0.1-1.8-1-2.4c-0.6-0.4-0.6-1-0.2-1.6c0.1-0.2,0.3-0.4,0.5-0.7c-0.7-1-1.8-0.9-3-0.6
				c0.5-1,1.4-1.4,1.9-1.9c-0.2-0.6-0.7-0.7-1.2-0.8c-0.8,0-1.2-0.4-1.3-1c-0.1-1.2,0.1-2.3,1.1-3.2c0.4-0.3,0.7-0.7,1-1.1
				c0.9-0.8,1.6-1.8,2.6-2.4c1.3-0.8,2.8-1.1,4.4-1.2c0.2,0,0.4-0.1,0.7-0.2c-0.5-0.7-1.1-0.8-1.8-0.8c-0.9,0-1.9,0.1-2.7-0.1
				c-1.4-0.4-2.8-0.2-4.2,0c-1.5,0.2-3,0.3-4.4,0c-0.9-0.2-1.8-0.5-2.7-0.5c-2.6-0.1-5-0.8-7.5-1.7c-0.8-0.3-1.5-0.4-2.4-0.2
				c-1.8,0.3-3.6,0.6-5.2,0.9c-1.2,1.2-2.3,2.3-3.5,3.6c1.1,0.7,1.2,1.7,1.2,2.7c0,0.2,0.1,0.4,0.1,0.7c0.1,0.8,0.4,1.4,1.3,1.6
				c0.4,0.1,0.9,0.3,0.8,0.9c-0.1,1.5,0,3-0.3,4.4c-0.3,1.3,0.3,2.3,0.7,3.5c0.3-0.1,0.6-0.1,0.8-0.3c0.3-0.2,0.7-0.4,0.9,0
				c0.1,0.2,0.1,0.7-0.1,0.9c-0.3,0.5-0.5,0.9-0.4,1.5c0,1.8,0,3.6,0,5.4c0,1,0.1,2.1,0.3,3.1c0.4,2.2,1,4.4,2.8,6
				c0.3,0.3,0.4,0.8,0.4,1.2c0.1,0.9,0.2,1.9,0.2,2.8c0,0.3,0,0.6,0,0.9c0,2.5-0.1,5.1-0.1,7.6c0,0.2,0.1,0.5,0.1,0.7
				c0.3,1.6,0.4,3.3,0,4.9c-0.1,0.3,0,0.6,0.1,0.9c0.2,0.5,0.1,1-0.2,1.4c-0.2,0.3-0.4,0.6-0.6,0.9c-0.4,0.9-0.6,1.7-0.2,2.7
				c0.8,1.7,1.4,3.5,2.2,5.3c0.5,1.3,1,2.7,1.7,3.8c0.7,1.1,1.3,2.4,2.6,3.1c0.2,0.1,0.3,0.3,0.4,0.5c0.5,1,1.1,2,1.4,3.1
				c0.5,2,1.4,3.7,2.3,5.5c0.6,1.1,1.2,2.1,1.7,3.2c0.6,1,0.4,2.4,1.3,3.3c0.2,0.1,0.1,0.5,0.2,0.8c0.2,1,0.4,1.9,0.6,2.9
				c0.2,0.8,0.7,1.5,1.5,1.9c0.5,0.2,0.8,0.1,1-0.4c0.1-0.3,0.2-0.7,0.4-0.9c0.1-0.2,0.4-0.3,0.6-0.3c0.2,0.1,0.4,0.3,0.5,0.6
				c0,0.4,0,0.8-0.1,1.1c-0.3,0.9-0.2,1.7,0.3,2.5c0.4,0.6,0.5,1.1,0.2,1.7c-0.2,0.5-0.1,1,0.5,1.3c0.6,0.3,0.8,0.8,1,1.3
				c0.6,1.8,0.6,3.6-0.3,5.3c-0.2,0.5-0.6,0.9-0.3,1.5c0.4,0.9,0.8,1.8,1.3,2.7c0.1,0.2,0.3,0.4,0.6,0.7c0.2-0.4,0.5-0.6,0.6-0.9
				c0.7-1.5,0.8-3.2,0.8-4.8c0-1.3,0.1-2.6,0.2-3.9c0.1-0.8,0.2-1.5,0.2-2.3c0-0.5,0-0.9,0.5-1.2c1.4-0.9,2-2.2,1.9-3.9
				c0-0.3,0-0.5,0.1-0.8c0-0.2,0.2-0.4,0.3-0.6c0.2,0.2,0.3,0.2,0.4,0.3c0.2,0.3,0.3,0.7,0.8,0.6c0.5-0.1,0.6-0.5,0.8-0.9
				c0.3-0.9,0.9-1.7,0.2-2.7c-0.1-0.1,0-0.4,0.1-0.6c0-0.3,0.2-0.6,0.1-0.8c-0.6-1.2,0.1-1.9,1-2.4c0.1-0.1,0.2-0.1,0.3-0.2
				c0.6-0.6,0.7-1.1,0.4-1.9c-0.8-1.9-1.6-3.9-2.3-5.8c-0.1-0.4-0.2-0.8-0.3-1.1c0.1,0,0.1-0.1,0.2-0.1c0.7,0.9,1.8,0.9,2.8,1.3
				c0.1-0.8,0.4-1.5,0.3-2.2c-0.1-0.7-0.5-1.3-1-2.2c0.6,0.2,1.1,0.3,1.5,0.5c0.7,0.3,1.3,0.7,2,1.1c0.9,0.5,1.8,0.7,2.7,0.2
				c0.4-0.2,0.8-0.2,1,0.2c0.8,1.3,0.9,2.8,0.7,4.3c-0.1,0.5-0.3,0.9-0.2,1.4c0.1,0.3,0,0.7,0,0.9c-0.6,0-1.1-0.1-1.4,0.1
				c-0.5,0.4-0.2,0.9,0.1,1.3c0.1,0.2,0,0.5,0,0.8c-0.3-0.1-0.5-0.2-0.6-0.3c-0.5-0.3-0.9-0.4-1.4-0.1c-0.4,0.4-0.4,0.9-0.2,1.4
				c0.3,1.2,0.7,2.4,1.1,3.6c0.4,1,0.4,2.1,0.2,3.2c0,0.3-0.2,0.6-0.4,1.1c-0.4-0.5-0.6-0.8-0.8-1.1c-0.4-0.7-0.8-1.5-1.2-2.2
				c-0.2-0.4-0.4-0.9-1-0.7c-0.6,0.2-0.7,0.6-0.5,1.2c0,0.2,0.1,0.4,0.1,0.5c-1.1,1.1-1.1,1.3-0.3,2.6c0.4,0.6,0.8,1.3,1.3,1.9
				c0.6,0.9,0.4,1.8,0.2,3c-0.4-0.3-0.6-0.4-0.8-0.5c-0.4-0.3-0.8-0.7-1.3-0.9c-0.5-0.3-1-0.2-1.4,0.4c0.7,1.3,0.8,2.7,0.9,4.1
				c0.1,1,0.2,2.1,1.2,2.7c0.4,0.3,0.5,0.7,0.5,1.2c0,1.1-0.4,1.9-1,2.7c-0.5,0.7-0.6,1.4-0.1,2.1c0.3,0.5,0.5,1,0.1,1.5
				c-0.4,0.5-0.9,0.5-1.5,0.4c-0.7-0.1-1.5-0.3-2.3-0.3c-0.9-0.1-1.9-0.2-2.8-0.3c-1.5-0.1-3-0.1-4.7-0.2c0.2,1.7,0.5,3.2,1.5,4.4
				c0.1,0.1,0.2,0.3,0.3,0.5c0.4,0.7,0.3,1-0.5,1.4c-0.4,0.2-0.8,0.3-1.1,0.5c-0.5,0.3-1.1,0.5-1.4,0.9c-0.7,0.9-1.3,1.9-1.7,2.9
				c-0.4,1-0.2,2.1,0.6,2.8c1.1,1,2.4,1.8,3.9,2.1c2.5,0.4,4.8,0.1,7.1-0.9c0.6-0.3,1.2-0.4,1.8-0.7c0.6-0.2,1.2-0.2,1.9,0
				c0.5,0.2,1,0.3,1.6,0.3c3.5-0.2,7,0.3,10.5,0.9c1.2,0.2,1.1,0.2,1.3-1c0-0.1,0.1-0.2,0.2-0.4c0.3,0,0.6,0.1,0.8,0.1
				c0.3,0.1,0.7,0.2,1,0.1c1.8,0,3.7-0.1,5.5-0.1c2.4-0.1,4.7,0.1,7,0.8c1.3,0.4,2.5,0.8,3.5,1.8c0.5,0.5,1,0.7,1.6,0.7
				c1.1,0,2.2,0.2,3.2,0.8c0.1,0.1,0.3,0.1,0.4,0.1c0.9-0.7,0.6-1.5-0.1-2.3c0.5-0.1,0.8-0.3,1.2-0.2c0.6,0.1,0.9-0.3,1.1-0.8
				c0.1-0.2,0.1-0.4,0.2-0.7c0.1-0.5,0.4-0.6,0.8-0.6c1.8,0.1,3.7,0.1,5.4,1c1.1,0.6,2.2,0,3.3-0.3c0.1,0,0.3-0.2,0.3-0.3
				c0-0.6,0.4-0.8,0.8-1.2c0.2-0.2,0.3-0.6,0.3-0.9c0-0.3-0.1-0.7-0.2-0.9c0.2-0.5,0.6-0.8,0.6-1.2c0.1-1.1,0.7-1.6,1.7-1.7
				c1.3-0.2,2.6-0.4,3.9-0.6c0.2,0,0.4,0,0.6,0c1.2,0,1.8-0.3,2.1-1.5C120.4,220.9,120.3,220.3,120.4,219.5z M41.5,21.2
				c-0.8,0.3-1.1-0.1-1-1.2c1.2-0.1,2.3-0.3,3.5-0.4c0,0.1,0.1,0.2,0.1,0.2C43.2,20.3,42.3,20.9,41.5,21.2z M21.7,30.8
				c0.4-1,0.9-2,1.4-3.2c0.7,0.5,1.2,0.4,1.8,0.1c1.1-0.4,2.2-0.7,3.2-1.5c0.3-0.3,0.8-0.4,1.1,0c0.2,0.4,0.2,0.8-0.2,1.1
				c-0.6,0.4-1.3,0.8-1.9,1.2c-0.6,0.4-1.2,0.8-1.8,1.2c-0.5,0.3-0.7,0.8-0.5,1.4c0,0.1,0.1,0.3,0.1,0.4c0,0.4,0,0.7,0.1,1.1
				c-0.4,0-0.9,0.1-1.2,0c-0.7-0.3-1.3-0.8-1.9-1.3C21.7,31.3,21.7,31,21.7,30.8z M15.5,61.1c0.2-0.8,0.6-1.3,1.1-1.7
				c1.5-0.9,3-1.7,4.6-2.6c0.1,0,0.2,0,0.4,0C20.1,59,18.4,60.7,15.5,61.1z M68.2,51.7c-1.9,0.4-3.9-0.1-5.8,0
				c-0.3,0-0.5-0.2-0.9-0.4C63.5,49.7,67.2,50,68.2,51.7z M32.2,68.4c-0.6-0.1-0.9,0.1-1.3,0.5c-0.6,0.8-1.1,0.8-1.8,0.2
				c-0.4-0.3-0.8-0.8-1-1.2c-0.4-1.1-0.7-2.3-1-3.4c-0.2-0.9,0-1.3,0.6-1.8c0.6-0.4,1.2-0.3,1.8,0.2c0.4,0.4,0.8,0.8,1.3,1.1
				c0.3,0.3,0.7,0.4,1,0.7c0.4,0.3,0.7,0.6,1.1,0.9c1.3-0.5,1.2-0.5,1.3-1.7c0.1-1.4-0.6-2.4-1.5-3.3c-0.2-0.2-0.4-0.4-0.7-0.4
				c-1.6-0.2-3.1-0.7-4.7,0c-0.5,0.2-1,0.5-1.3,0.8c-0.4,0.4-0.7,0.4-1.1,0.2c-0.5-0.2-1-0.5-1.3-0.9c-0.2-0.2-0.3-0.7-0.2-1
				c0-0.2,0.4-0.4,0.7-0.5c0.3-0.1,0.7-0.1,1,0c1.4,0.4,2.7,0.1,4-0.5c1.1-0.4,2.1-0.8,3.3-0.7c0.4,0,0.8-0.2,1.1-0.4
				c0.3-0.2,0.5-0.4,0.8-0.6c0.6-0.5,1.1-0.6,1.8-0.1c0.4,0.3,0.9,0.4,1.4,0.6c0.1-1.1-1.1-1.6-0.6-2.6c0.5,0.2,1,0.3,1.4,0.4
				c0.5,0.2,0.8,0.7,0.9,1.2c0,0.3,0.1,0.5,0.1,0.8c-0.4,2.4,0.7,4.4,1.7,6.4c0.3,0.7,0.5,1.4,0.3,2.2c-0.1,0.7-0.1,1.4,0,2.1
				c0.2,1.7-0.3,2-1.9,1.4c-0.9-0.4-1.9-0.7-2.8-0.9c-0.6-0.1-1.2-0.2-1.8,0C33.9,68.5,33,68.6,32.2,68.4z M51.4,94.6
				c-2,1-3.9,2.1-5.9,3c-1.2,0.5-1.8,1.4-2,2.7c-0.1,0.9-0.5,1.8-1,2.5c-0.1,0.2-0.2,0.4-0.4,0.6c-0.7,0.7-1.3,0.6-1.8-0.3
				c-0.4-0.9-0.7-1.8-1.2-2.7c-0.7-1.5-1.5-1.9-3.1-1.6c-1.5,0.2-2.4-0.5-2.9-1.3c-0.1-0.2-0.1-0.5-0.1-0.8c0.2,0,0.5,0,0.7,0.1
				c1,0.2,2.1,0.5,3.1,0.8c0.5,0.1,1,0.2,1.6,0.3c2,0.2,3.9,0,5.7-0.8c1.9-0.9,2.9-2.8,2.6-4.9c-0.2-1.1-0.2-2.1,0.5-3.1
				c0.3-0.4,0.7-0.7,1.1-1c0.6,1,1.2,1.8,1.7,2.6c0.6,0.9,1.2,1.8,1.8,2.7C52.3,93.9,52.3,94.1,51.4,94.6z M53,56.9
				c-0.1,0.6-0.2,1.2-0.2,1.8c0,0,0.1,0,0.1,0c-0.1,0.5-0.1,1-0.2,1.5c-0.2,1-0.9,1.7-1.7,2.2c-0.8,0.5-1.2,1.1-1.5,1.9
				c-0.5,1.3-1.4,2-2.8,2c-1,0-1.6-0.3-1.8-1.3c-0.3-1.8-0.6-3.5-0.7-5.3c-0.1-1.6,0.7-2.2,2.3-2.3c0.7-0.1,1.3-0.4,2-0.7
				c0.7-0.3,1.3-0.8,2-1c0.4-0.2,0.9-0.2,1.3-0.2C53.2,55.4,53.4,55.6,53,56.9z M51,35.1c-0.8,0.1-1.6,0.2-2.5,0.3
				c-0.4-1.6-1.3-2.4-2.7-2.8c-0.3-0.9,0.4-1.2,0.8-1.6c0.8-0.7,1-1.5,0.8-2.4c-0.1-0.4-0.1-0.7-0.2-1.1c-0.3-1.5-0.1-2,1.3-2.8
				c-0.2-0.7-0.7-0.9-1.3-1.1c-1-0.5-1.1-0.6-0.7-1.9c1.1,0,1.9,0.5,2.6,1.3c0.1,0.2,0.1,0.6,0,0.8c-0.2,0.5-0.2,0.8,0.4,0.9
				c0.6,0.1,0.7,0.6,0.5,1.1c-0.3,0.8-0.3,1.5,0.3,2.3c0.1,0.2,0.1,0.5,0,0.7c-0.2,0.6,0,1,0.3,1.5c0.6,0.8,1.2,1.6,1.1,2.8
				c0,0.6,0.5,0.9,0.9,1.2c0.2,0.2,0.5,0.3,0.9,0.5C52.7,35.4,51.8,35,51,35.1z M54.1,12.9c-1-0.4-2-0.9-3-1.3c-1-0.4-2-0.7-3-1.1
				c-0.1,0-0.2-0.1-0.4-0.2c0-0.1,0-0.2,0.1-0.2c0.8,0.1,1.5,0.1,2.3,0.3c0.5,0.1,1.1,0.4,1.6,0.6c2.2,1.2,4.5,1.5,7.1,1.4
				c-0.4,0.8-0.8,1-1.5,1C56.2,13.5,55.1,13.3,54.1,12.9z M56.9,49.4c0.6-0.4,1-0.7,1.5-0.9c2.1-0.9,4.2-1.8,6.3-2.7
				c1.1-0.5,2.2,0,3,1.2c-0.6,0.6-1.5,0.7-2.3,0.8c-1.3,0.1-2.5,0.4-3.6,1c-0.8,0.4-1.6,0.7-2.5,0.9C58.6,49.9,57.9,49.9,56.9,49.4z
				 M69.1,70.6c-0.3,2-0.6,4.1-0.9,6.1c-0.1,0.6-0.2,1.1-0.1,1.7c0.1,1.5,0.4,3,0.5,4.5c0.1,0.5,0.1,1.1,0,1.6
				c0,0.4-0.2,0.7-0.7,0.7c-0.4,0-0.5-0.4-0.5-0.7c-0.2-1.5-0.5-3.1-0.8-4.6c-0.1-0.7-0.5-1-1.2-1.2c-0.8-0.3-1.6-0.6-2.4-1
				c-0.1-0.1-0.3-0.2-0.4-0.3c-1.6-1.7-3-3.6-3.8-5.9c-0.4-1-0.3-2.2-0.3-3.4c0-0.6,0.1-1.2,0.1-1.8c0.1,0,0.2,0,0.3,0
				c0,0.4,0,0.7,0,1.1c0,0.4,0,0.8,0.2,1.2c0.2,0.7,0.5,0.9,1.3,0.8c0.3,0,0.5-0.2,0.8-0.1c0.9,0.1,1.2-0.4,1.5-1.1
				c0.1-0.3,0.3-0.6,0.6-0.7c0.4-0.1,0.6,0.2,0.7,0.6c0.2,0.5,0.6,0.8,1.1,0.8c0.8,0.1,1.6,0.1,2.4,0.1
				C68.8,69.1,69.3,69.4,69.1,70.6z M78.8,120.7c0.1,0,0.2,0,0.3,0c0,0.7-0.1,1.4-0.1,2.1C78.6,122.2,78.7,121.5,78.8,120.7z
				 M75.3,76.3c-0.5-0.1-1,0-1.4,0c-0.3,0-0.5,0-1.1,0c0.4-0.4,0.5-0.7,0.7-0.7c0.6-0.1,1.3-0.3,1.9-0.3c0.7,0,1.4,0.1,1.9-0.4
				c0.2-0.1,0.5-0.1,0.8-0.1c0.1,0.8-0.2,1.3-0.6,1.8c-0.2,0.2-0.7,0.2-1,0.2C76.1,76.6,75.7,76.4,75.3,76.3z M55.9,128
				c0.2-0.1,0.4-0.2,0.6-0.3c0.5,1,0.9,2,1.3,2.9c0.2,0.4,0.2,1-0.2,1.4c-0.2-0.1-0.4-0.2-0.4-0.3c-0.3-1.1-1.2-1.7-1.8-2.6
				C54.9,128.5,54.9,128.4,55.9,128z M26.9,121c-0.1-0.1-0.2-0.1-0.3-0.2c0-0.5,0-0.9,0.1-1.6c0.4,0.3,0.7,0.5,1.3,0.9
				C27.5,120.5,27.2,120.8,26.9,121z M28.8,117.4c-0.4,0.7-1.1,1.1-1.9,1.4c-0.5-0.5-0.5-1.1-0.2-1.7c0.2-0.5,0.4-1,0.6-1.5
				c0.4,0.1,0.7,0.2,1,0.4C29.1,116.3,29.2,116.7,28.8,117.4z M35.1,113.8c-1.2-0.2-2.5-0.4-3.7-0.6c-0.3-0.1-0.6-0.2-0.9-0.3
				c0-0.1,0-0.2,0-0.3c0.9-0.5,1.9-0.8,2.7-1.4c1.1-0.7,2.2-1.3,3.4-1.8c1.8-0.8,3.6-1,5.5-0.5c0.6,0.2,1.3,0.2,1.9,0.3
				c0.3,0.1,0.6,0.3,0.7,0.5c0.1,0.2-0.1,0.6-0.3,0.8c-0.8,0.6-1.2,1.5-1.7,2.3c-0.6,1-1.5,1.6-2.7,1.5
				C38.4,114.2,36.7,114,35.1,113.8z M39.9,120.2c1.2-0.9,2.3-1.8,3.7-2.2c0.7-0.2,1.4-0.2,2.4,0.2
				C44.1,119.7,42.1,120.1,39.9,120.2z"/>
			<path class="st124" d="M13,71c-0.2-0.1-0.4-0.2-0.6-0.2c-1.1-0.3-2.1-0.9-3-1.6c-0.6-0.5-1.4-0.6-2.2-0.9c-0.6-0.2-1,0.1-1.1,0.7
				c-0.1,0.7-0.5,1.2-1,1.6c-0.3,0.3-0.5,0.8-0.7,1.2c0.1,1.4,1,2.1,2.3,1.8c0.4-0.1,0.8-0.1,1.1-0.3c1.4-0.9,2.9-0.9,4.4-1
				c0.2,0,0.5,0,0.7-0.1c0.2-0.1,0.5-0.4,0.6-0.6C13.5,71.5,13.2,71.2,13,71z"/>
			<path class="st124" d="M68.4,144.6c0,0.7,0.3,1.2,0.8,1.2c0.4,0,0.6-0.3,0.7-1.4c0-0.1-0.1-0.5-0.3-0.7
				C69,143.3,68.4,143.8,68.4,144.6z"/>
			<path class="st124" d="M65.7,71.2c-1.4-0.3-2.7-0.7-4.1-1c-0.6-0.2-1,0.1-1.3,0.6c-0.6,1,0,1.7,0.5,2.4c1.2,1.6,2.7,2.7,4.2,3.9
				c0.9,0.7,1.8,0.3,2-0.8c0.1-0.3,0-0.7,0-1c0,0,0.1,0,0.1,0c-0.1-0.9-0.2-1.7-0.3-2.6C66.8,71.9,66.4,71.4,65.7,71.2z"/>
		</g>
	</g>
	<g>
		<path class="st124" d="M146.4,51.5h53.5v15.6h-36.1v20.5h34.9v15.6h-34.9v32.2h-17.5V51.5z"/>
		<path class="st124" d="M229.3,51.5h19.5l33.8,83.8h-18.7L231,51.6h15.2l-32.9,83.7h-17.7L229.3,51.5z M215.8,101.8h46.6v15.6
			h-46.6V101.8z"/>
		<path class="st124" d="M302.5,51.5v50.8c0,3.4,0.8,6.5,2.3,9.3c1.6,2.8,3.8,4.9,6.6,6.5c2.9,1.6,6.1,2.3,9.8,2.3
			c3.8,0,7.2-0.8,10-2.3c2.8-1.6,5-3.7,6.5-6.5c1.5-2.8,2.3-5.8,2.3-9.3V51.5h17.6v50.8c0,6.5-1.5,12.4-4.6,17.7
			c-3.1,5.2-7.4,9.3-12.9,12.2c-5.6,2.9-11.8,4.4-18.9,4.4c-6.9,0-13.2-1.5-18.7-4.4c-5.6-2.9-9.9-7-12.9-12.2
			c-3.1-5.2-4.6-11.1-4.6-17.7V51.5H302.5z"/>
		<path class="st124" d="M369,121.8l50.3-70.2l7.8,15.5H369V51.5h61.2V65l-50.3,70.2l-7.8-15.5h58.1v15.6H369V121.8z"/>
		<path class="st124" d="M442.6,51.5h17.5v83.8h-17.5V51.5z"/>
		<path class="st124" d="M500.8,51.5h19.5l33.8,83.8h-18.7l-32.9-83.7h15.2l-32.9,83.7h-17.7L500.8,51.5z M487.3,101.8h46.6v15.6
			h-46.6V101.8z"/>
	</g>
	<g>
		<path class="st125" d="M171.2,179.2l6.5,2.1c-1,3.6-2.7,6.3-5,8.1c-2.3,1.8-5.3,2.7-8.9,2.7c-4.4,0-8.1-1.5-10.9-4.5
			c-2.9-3-4.3-7.2-4.3-12.4c0-5.6,1.4-9.9,4.3-12.9c2.9-3.1,6.6-4.6,11.3-4.6c4.1,0,7.4,1.2,10,3.6c1.5,1.4,2.7,3.5,3.4,6.1
			l-6.7,1.6c-0.4-1.7-1.2-3.1-2.5-4.1c-1.3-1-2.8-1.5-4.6-1.5c-2.5,0-4.5,0.9-6,2.7c-1.5,1.8-2.3,4.7-2.3,8.6c0,4.2,0.8,7.2,2.3,9
			c1.5,1.8,3.5,2.7,5.9,2.7c1.8,0,3.3-0.6,4.6-1.7C169.7,183.5,170.6,181.7,171.2,179.2z"/>
		<path class="st125" d="M213.6,191.5h-7.3l-2.9-7.6H190l-2.8,7.6h-7.2l13-33.4h7.1L213.6,191.5z M201.2,178.3l-4.6-12.4l-4.5,12.4
			H201.2z"/>
		<path class="st125" d="M217.1,158.1h12.3c2.8,0,4.9,0.2,6.4,0.6c2,0.6,3.6,1.6,5,3.1c1.4,1.5,2.5,3.3,3.2,5.4
			c0.7,2.1,1.1,4.8,1.1,7.9c0,2.7-0.3,5.1-1,7.1c-0.8,2.4-2,4.4-3.6,5.9c-1.2,1.1-2.7,2-4.7,2.7c-1.5,0.5-3.5,0.7-6,0.7h-12.7V158.1
			z M223.9,163.8v22.1h5c1.9,0,3.2-0.1,4.1-0.3c1.1-0.3,2-0.7,2.7-1.4c0.7-0.7,1.3-1.7,1.8-3.2c0.5-1.5,0.7-3.5,0.7-6.1
			c0-2.6-0.2-4.6-0.7-5.9c-0.5-1.4-1.1-2.5-1.9-3.2c-0.8-0.8-1.9-1.3-3.1-1.6c-0.9-0.2-2.8-0.3-5.5-0.3H223.9z"/>
		<path class="st125" d="M250.8,191.5v-33.4h24.8v5.6h-18v7.4h16.8v5.6h-16.8v9.1h18.7v5.6H250.8z"/>
		<path class="st125" d="M289.5,191.5v-27.7h-9.9v-5.6h26.5v5.6h-9.9v27.7H289.5z"/>
		<path class="st125" d="M351.8,191.5h-7.3l-2.9-7.6h-13.3l-2.8,7.6h-7.2l13-33.4h7.1L351.8,191.5z M339.4,178.3l-4.6-12.4
			l-4.5,12.4H339.4z"/>
		<path class="st125" d="M376.7,179.2l6.5,2.1c-1,3.6-2.7,6.3-5,8.1c-2.3,1.8-5.3,2.7-8.9,2.7c-4.4,0-8.1-1.5-10.9-4.5
			c-2.9-3-4.3-7.2-4.3-12.4c0-5.6,1.4-9.9,4.3-12.9c2.9-3.1,6.6-4.6,11.3-4.6c4.1,0,7.4,1.2,10,3.6c1.5,1.4,2.7,3.5,3.4,6.1
			l-6.7,1.6c-0.4-1.7-1.2-3.1-2.5-4.1c-1.3-1-2.8-1.5-4.6-1.5c-2.5,0-4.5,0.9-6,2.7c-1.5,1.8-2.3,4.7-2.3,8.6c0,4.2,0.8,7.2,2.3,9
			c1.5,1.8,3.5,2.7,5.9,2.7c1.8,0,3.3-0.6,4.6-1.7C375.2,183.5,376.1,181.7,376.7,179.2z"/>
		<path class="st125" d="M419.1,191.5h-7.3l-2.9-7.6h-13.3l-2.8,7.6h-7.2l13-33.4h7.1L419.1,191.5z M406.7,178.3l-4.6-12.4
			l-4.5,12.4H406.7z"/>
		<path class="st125" d="M422.7,158.1H435c2.8,0,4.9,0.2,6.4,0.6c2,0.6,3.6,1.6,5,3.1c1.4,1.5,2.5,3.3,3.2,5.4
			c0.7,2.1,1.1,4.8,1.1,7.9c0,2.7-0.3,5.1-1,7.1c-0.8,2.4-2,4.4-3.6,5.9c-1.2,1.1-2.7,2-4.7,2.7c-1.5,0.5-3.5,0.7-6,0.7h-12.7V158.1
			z M429.4,163.8v22.1h5c1.9,0,3.2-0.1,4.1-0.3c1.1-0.3,2-0.7,2.7-1.4c0.7-0.7,1.3-1.7,1.8-3.2c0.5-1.5,0.7-3.5,0.7-6.1
			c0-2.6-0.2-4.6-0.7-5.9c-0.5-1.4-1.1-2.5-1.9-3.2c-0.8-0.8-1.9-1.3-3.1-1.6c-0.9-0.2-2.8-0.3-5.5-0.3H429.4z"/>
		<path class="st125" d="M456.4,191.5v-33.4h24.8v5.6h-18v7.4h16.8v5.6h-16.8v9.1h18.7v5.6H456.4z"/>
		<path class="st125" d="M487.4,191.5v-33.4h10.1l6.1,22.8l6-22.8h10.1v33.4h-6.3v-26.3l-6.6,26.3h-6.5l-6.6-26.3v26.3H487.4z"/>
		<path class="st125" d="M535.1,191.5v-14.1l-12.2-19.3h7.9l7.9,13.2l7.7-13.2h7.8l-12.3,19.4v14H535.1z"/>
	</g>
</g>
</svg>
