<?xml version="1.0" encoding="utf-8"?>
<!-- Generator: Adobe Illustrator 25.1.0, SVG Export Plug-In . SVG Version: 6.00 Build 0)  -->
<svg version="1.1" id="Layer_1" xmlns="http://www.w3.org/2000/svg" xmlns:xlink="http://www.w3.org/1999/xlink" x="0px" y="0px"
	 viewBox="0 0 255.8 254.1" style="enable-background:new 0 0 255.8 254.1;" xml:space="preserve">
<style type="text/css">
	.st0{fill:#001E28;}
	.st1{fill:#009245;}
	.st2{fill:#FC4755;}
	.st3{fill:#00B4FF;}
	.st4{fill:#FFAF00;}
	.st5{fill:none;stroke:#FFAF00;stroke-width:3;stroke-miterlimit:10;}
	.st6{fill:#1A1A1A;}
	.st7{fill:#FFFFFF;}
	.st8{fill:#FF7A00;}
	.st9{fill:url(#SVGID_1_);}
	.st10{fill:#F08221;}
	.st11{fill:#DBB425;}
	.st12{fill:#A4B73A;}
	.st13{fill:#72B144;}
	.st14{fill:#EC6F25;}
	.st15{fill:#ED4E25;}
	.st16{fill:#579041;}
	.st17{fill:#F39B23;}
	.st18{fill:#9A3C2E;}
	.st19{stroke:#F7F7F7;stroke-width:4.7867;stroke-miterlimit:10;}
	.st20{fill:#231F21;}
	.st21{fill:#FDD29E;}
	.st22{fill:#734540;}
	.st23{fill:#827168;}
	.st24{fill:#F05B45;}
	.st25{fill:#807E80;}
	.st26{fill:#8E6051;}
	.st27{fill:#AFB0B4;}
	.st28{fill:#B0B0B4;}
	.st29{fill:#DD896E;}
	.st30{fill:#67544A;}
	.st31{fill:#DD896D;}
	.st32{fill:#FCFDFB;}
	.st33{fill:#72443F;}
	.st34{fill:#DD8B6C;}
	.st35{fill:#FFFFFC;}
	.st36{fill:#4C494E;}
	.st37{fill:#8B5E50;}
	.st38{fill:#FAD19E;}
	.st39{fill:#FCD29E;}
	.st40{fill:#DC8A6D;}
	.st41{fill:#DD8A6E;}
	.st42{fill:#4C494F;}
	.st43{fill:#4B494E;}
	.st44{fill:#DC8A6E;}
	.st45{fill:#807D80;}
	.st46{fill:#4D4A4F;}
	.st47{fill:#4B494F;}
	.st48{fill:#FAFAFA;}
	.st49{fill:#F6F7F7;}
	.st50{fill:#EDECEC;}
	.st51{fill:#221F21;}
	.st52{fill:#9B3A2C;}
	.st53{fill:#F9CFA0;}
	.st54{fill:#ED5A44;}
	.st55{fill:#C45748;}
	.st56{fill:#D1CFCF;}
	.st57{fill:#2D292B;}
	.st58{fill:#DC8B6D;}
	.st59{fill:#DA8B6E;}
	.st60{fill:#322D2C;}
	.st61{fill:#2D2A2B;}
	.st62{fill:#FBFBF9;}
	.st63{fill:#F7F7F7;}
	.st64{stroke:#F7F7F7;stroke-width:4.7867;stroke-linecap:round;stroke-linejoin:round;stroke-miterlimit:10;}
	.st65{fill:#38373A;}
	.st66{fill:#5F6060;}
	.st67{fill:#8C191B;}
	.st68{fill:#EB1F27;}
	.st69{fill:#3C4FA1;}
	.st70{fill:#229FD9;}
	.st71{fill:#E48924;}
	.st72{fill:#FBCD0B;}
	.st73{fill:#606060;}
	.st74{fill:#FACE0B;}
	.st75{fill:#FACF0A;}
	.st76{fill:#616262;}
	.st77{fill:#383639;}
	.st78{fill:#DD8A6D;}
	.st79{fill:#8E191C;}
	.st80{fill:#383739;}
	.st81{fill:#606061;}
	.st82{fill:#8D191B;}
	.st83{fill:#5F5E5E;}
	.st84{fill:#222021;}
	.st85{fill:#5F5F60;}
	.st86{fill:#E91F28;}
	.st87{fill:#E28925;}
	.st88{fill:#249ED9;}
	.st89{fill:#636464;}
	.st90{fill:#D98A6E;}
	.st91{fill:#575657;}
	.st92{fill:#D98A6D;}
	.st93{fill:#E5C293;}
	.st94{fill:#333233;}
	.st95{fill:#312D2F;}
	.st96{fill:#EB2229;}
	.st97{fill:#BB2630;}
	.st98{fill:#019147;}
	.st99{fill:#36B04A;}
	.st100{opacity:0.24;clip-path:url(#SVGID_3_);}
	.st101{fill:#885E3B;}
	.st102{fill:#240F0F;}
	.st103{fill:#A81F24;}
	.st104{fill:none;}
	.st105{fill:#EA202C;}
	.st106{fill:#211E1F;}
	.st107{fill:#F8A81A;}
	.st108{fill:#28A6DE;}
	.st109{fill:#F79420;}
	.st110{fill:#C99C66;}
	.st111{fill:#EC1B34;}
	.st112{fill:#3B2314;}
	.st113{fill:#FE7D15;}
	.st114{fill:#151E27;}
	.st115{fill:#FD7C15;}
	.st116{fill:#570A0B;}
	.st117{fill:#E82429;}
	.st118{fill:#F4831F;}
	.st119{fill:#111320;}
	.st120{fill:none;stroke:#211E1F;stroke-width:0.1212;stroke-miterlimit:10;}
	.st121{fill:#EA6427;}
	.st122{fill:none;stroke:#211E1F;stroke-width:0.1266;stroke-miterlimit:10;}
	.st123{fill:#20808C;}
	.st124{fill:#0D743D;}
	.st125{fill:#E6252B;}
</style>
<g>
	<g>
		<path class="st116" d="M218.3,37.5C194.2,13.3,162.1,0,127.9,0S61.6,13.3,37.5,37.5C13.3,61.6,0,93.7,0,127.9
			c0,18.9,4.1,37.2,11.8,53.8h9.8c-8.2-16.2-12.9-34.5-12.9-53.8C8.7,62.2,62.2,8.7,127.9,8.7c65.7,0,119.2,53.5,119.2,119.2
			c0,19.4-4.6,37.7-12.9,53.8h9.8c7.7-16.6,11.8-34.9,11.8-53.8C255.8,93.7,242.5,61.6,218.3,37.5z"/>
	</g>
	<g>
		<path class="st116" d="M207.3,48.5c-21.2-21.2-49.4-32.9-79.4-32.9S69.7,27.3,48.5,48.5s-32.9,49.4-32.9,79.4
			c0,19.1,4.8,37.5,13.7,53.8h3c-9-15.9-14.1-34.3-14.1-53.8c0-60.5,49.2-109.7,109.7-109.7s109.7,49.2,109.7,109.7
			c0,19.5-5.1,37.9-14.1,53.8h3c8.9-16.3,13.7-34.7,13.7-53.8C240.2,97.9,228.5,69.7,207.3,48.5z"/>
	</g>
	<g>
		<path class="st116" d="M62.3,54c-0.4-0.6-0.4-0.6-0.6-0.9l-0.2,0.1c-1.4,1.2-1.4,2.5-0.6,3.4c0.4,0.4,0.8,0.5,1.2,0.2
			c0.2-0.1,0.2-0.3,0.2-0.3s0.1,0,0.1,0.1c0.3,0.4,0.4,1.2-0.4,1.8c-1,0.8-2.1,0.7-2.9-0.2c-1.3-1.5-0.8-3.8,1.6-5.8l1.3-1.1
			c0.8-0.7,1.5-0.7,2.5,0l9.3,6.4l-3.5-5.9c-2.1-3.7-3.6-4.4-3.6-4.4s0-0.3,0.4-0.6c0.6-0.5,1-0.4,1.6,0.3c0.4,0.5,1,1.4,1.6,2.6
			l4.6,7.8c0.7,1.2,1.1,1.5,1.2,1.6c0,0-0.2,0.4-0.9,1.1c-0.8,0.7-1.5,0.6-2.5,0l-9.4-6.5l3.5,6.1c2.1,3.7,3.6,4.4,3.6,4.4
			s0,0.3-0.4,0.6c-0.6,0.5-1,0.4-1.6-0.3c-0.4-0.5-1-1.4-1.6-2.6L62.3,54z"/>
		<path class="st116" d="M83.4,50.5c0.4,1.2,1,1.4,1.7,1.1c0.6-0.4,1-1.4,0.8-2.6c0.2-0.1,0.5-0.1,0.6,0.3c0.4,1,0.2,3.4-1.4,4.4
			c-1.1,0.7-2.3,0.4-3.2-0.7c0.1,1.7-0.4,2.9-1.4,3.5c-1.4,0.8-3.1,0.6-4.3-1.5c-2.4-3.9-1.3-7,0.7-8.2c0.8-0.5,1.6-0.5,2.3-0.3
			c-0.1-0.8,0.2-1.3,1-1.8c0.6-0.3,0.9-0.3,0.9-0.3s0,0.4,0.4,1.5L83.4,50.5z M80,48.7l-0.3-0.9c-0.4-0.3-1-0.5-1.6-0.2
			c-1.1,0.7-1.4,3.2,0.3,6c0.6,1,1.2,1.2,1.9,0.8C81.4,53.8,80.7,50.7,80,48.7z"/>
		<path class="st116" d="M83.9,42.7l-0.3-1.1c-0.3-1.3-0.7-1.6-0.7-1.6s0.2-0.3,0.8-0.6c1.4-0.7,1.8-0.2,2.2,1.2l0.3,1l1.8-0.9
			c0,0,0.2,0.1,0.3,0.3c0.2,0.3,0,0.6-0.3,0.8l-1.4,0.7l1.6,5.4c0.3,1.1,1,1.5,1.8,1.1c1-0.5,1.3-1.7,1.4-2.6c0.2-0.1,0.5,0,0.6,0.3
			c0.3,1.2-0.4,3.5-2.1,4.3c-1.3,0.6-2.8,0.2-3.5-1.3c-0.2-0.4-0.5-1-0.8-2l-1.2-4.2L83,44.3c0,0-0.2-0.1-0.3-0.3
			c-0.2-0.3,0-0.6,0.3-0.8L83.9,42.7z"/>
		<path class="st116" d="M96.5,44.7c-0.1,0.6-0.2,1.2-0.3,1.7c-0.4,1.4-1,2.2-2,2.6c-1.2,0.5-2.3-0.1-2.8-1.4
			c-0.3-0.7-0.4-1.4-0.7-2.4l-0.6-3.3c-0.2-1.3-0.6-1.6-0.6-1.6s0.2-0.3,0.9-0.5c1.4-0.5,1.8,0,2.1,1.4l0.9,4.7
			c0.2,1.1,0.7,1.5,1.2,1.3c0.4-0.2,0.7-0.8,0.9-1.8c0.3-1.5,0.4-3.9,0-5.6c-0.2-1.1-0.5-1.4-0.5-1.4s0.2-0.3,0.9-0.5
			c1.4-0.5,1.8,0,2.1,1.4l0.9,4.6c0.2,1.2,0.8,1.6,1.4,1.4c0.6-0.2,1.2-1.2,1.3-2.4c0.2-0.1,0.5,0,0.5,0.4c0.2,1.1-0.5,3.4-2.3,4
			c-1.3,0.5-2.5,0-3-1.6C96.7,45.2,96.6,45,96.5,44.7z"/>
		<path class="st116" d="M103.6,38.2c0.7-2.4,1.8-3.4,2.7-3.7c0.9-0.2,1.7,0.1,1.9,1.1c0.3,1.1-0.2,2-1.1,2.3
			c-0.5,0.1-0.9,0.1-0.9,0.1s0.1-0.5,0-1c-0.1-0.3-0.2-0.4-0.5-0.3c-0.3,0.1-0.7,0.4-1.1,1.5c-0.5,1.2-0.8,2.6-0.5,5.5
			c0.1,1.2,0.4,1.6,0.4,1.6s-0.2,0.2-0.9,0.4c-1.5,0.4-1.8-0.2-1.9-1.6l-0.5-6.3c-0.1-1.3-0.4-1.7-0.4-1.7s0.2-0.2,0.9-0.4
			c1.5-0.4,1.8,0.2,1.9,1.6L103.6,38.2z"/>
		<path class="st116" d="M117.9,39.2c0,1.2,0.4,1.7,1.1,1.6c0.7-0.1,1.4-0.9,1.8-2c0.3,0,0.5,0.1,0.4,0.5c0,1.1-1.2,3.2-3.1,3.5
			c-1.3,0.2-2.3-0.5-2.6-1.9c-0.6,1.6-1.6,2.5-2.7,2.7c-1.6,0.2-3-0.7-3.4-3c-0.6-4.5,1.6-6.9,3.9-7.3c1-0.1,1.7,0.2,2.2,0.7
			c0.2-0.8,0.7-1.1,1.6-1.2c0.7-0.1,1,0.1,1,0.1s-0.2,0.4-0.2,1.5L117.9,39.2z M115.5,36.2l0-1c-0.2-0.4-0.7-0.9-1.4-0.8
			c-1.3,0.2-2.5,2.4-2.1,5.7c0.2,1.1,0.7,1.6,1.4,1.5C114.8,41.4,115.5,38.3,115.5,36.2z"/>
		<path class="st116" d="M122.1,27.5c0.2-1.3-0.1-1.7-0.1-1.7s0.3-0.2,1-0.2c1.5-0.1,1.7,0.5,1.6,1.9l-1.4,11.3
			c-0.1,1.2,0.2,1.8,0.9,1.7c0.8,0,1.6-0.7,2.1-1.9c0.3,0,0.4,0.1,0.4,0.5c-0.1,1.1-1.6,3.1-3.5,3.2c-1.4,0.1-2.3-0.8-2.4-2.4
			c0-0.4,0-1.1,0.1-1.9L122.1,27.5z"/>
		<path class="st116" d="M128.1,27.3c0.2-1.3,0-1.7,0-1.7s0.3-0.2,1-0.2c1.5,0,1.7,0.6,1.4,2l-2.1,11.2c-0.2,1.2,0.1,1.8,0.8,1.8
			c0.8,0,1.7-0.6,2.2-1.7c0.3,0,0.4,0.2,0.4,0.5c-0.2,1.1-1.8,3-3.7,3c-1.4,0-2.3-0.9-2.3-2.6c0-0.4,0.1-1.1,0.2-1.9L128.1,27.3z"/>
		<path class="st116" d="M138.8,42.6c-1.3,4.6-3.4,7-6.3,6.7c-1.3-0.1-2.1-1.1-2-2.3c0.1-1.2,0.9-2.2,2-2.9c1.1-0.8,2.1-1.3,3.8-1.9
			l0.7-2.6c-0.3,0.5-0.6,0.9-1,1.3c-0.9,1.1-1.9,1.5-2.9,1.4c-1.3-0.1-2-1.2-1.9-2.6c0.1-0.7,0.2-1.4,0.5-2.5l0.9-3.3
			c0.3-1.2,0.2-1.7,0.2-1.7s0.3-0.2,1-0.1c1.5,0.2,1.6,0.8,1.2,2.1l-1.3,4.6c-0.3,1.1-0.1,1.7,0.5,1.7c0.4,0,1-0.4,1.6-1.2
			c0.9-1.1,1.9-2.9,2.5-4.9c0.4-1.2,0.2-1.7,0.2-1.7s0.3-0.2,1-0.1c1.5,0.2,1.6,0.8,1.2,2.1L138.8,42.6z M136,43.4
			c-1.4,0.5-2.3,1-3,1.6c-0.8,0.7-1.3,1.3-1.4,2c-0.1,0.5,0.2,0.9,0.8,1C133.9,48.1,135.1,46.5,136,43.4z"/>
		<path class="st116" d="M161.9,33.2c1.1,0.3,1.9,0.2,1.9,0.2c0.1,0.1,0.1,0.4,0,0.7c-0.3,1-1.2,1.6-2.8,1.2
			c-1.9-0.5-2.7-1.5-3.9-2.3l-2.2,4.5l2.5,0.7c0.7,0.2,1.1,0.2,1.1,0.2s0.1,0.2,0,0.6c-0.1,0.5-0.6,0.9-1.6,0.6
			c-0.8-0.2-1.6-0.6-2.6-1l-2.4,4.9c-0.6,1.3-0.6,1.8-0.6,1.8s-0.4,0.1-1.1-0.1c-1.4-0.4-1.5-1.1-0.8-2.5l4.8-9.9
			c0.2-0.4,0.3-0.7,0.4-0.9l-0.2,0c-1.7-0.5-2.9,0.2-3.2,1.3c-0.2,0.5,0,1,0.5,1.1c0.2,0.1,0.3,0,0.3,0s0,0.1,0,0.2
			c-0.1,0.5-0.8,0.9-1.8,0.7c-1.2-0.4-1.8-1.4-1.4-2.5c0.6-1.9,2.6-2.8,6.1-1.8C157.2,31.4,158.2,32.1,161.9,33.2z"/>
		<path class="st116" d="M162.9,41.8c2-1.5,3.5-1.7,4.3-1.3c0.9,0.4,1.2,1.1,0.8,2.1c-0.4,1-1.4,1.5-2.3,1.1
			c-0.5-0.2-0.8-0.5-0.8-0.5s0.4-0.3,0.6-0.8c0.1-0.3,0.1-0.5-0.2-0.6c-0.3-0.1-0.8-0.1-1.8,0.6c-1.1,0.7-2.2,1.6-3.8,4
			c-0.7,1-0.6,1.5-0.6,1.5s-0.3,0.1-1-0.2c-1.4-0.6-1.3-1.2-0.6-2.4l3.4-5.3c0.7-1.1,0.7-1.6,0.7-1.6s0.3-0.1,1,0.2
			c1.4,0.6,1.3,1.3,0.6,2.4L162.9,41.8z"/>
		<path class="st116" d="M166.8,46.5c1.7-3.1,5.1-3.8,7.4-2.5c1.8,1,2,2.3,1.5,3.2c-0.9,1.6-3.3,1.7-6.6,0.6
			c-0.6,1.4-0.3,2.9,1.2,3.7c1.8,1,3.4,0.6,4.3,0.2c0.2,0.1,0.3,0.3,0,0.6c-0.6,0.7-3.3,1.6-5.9,0.2
			C166.3,51.2,165.4,48.9,166.8,46.5z M169.4,47c2.4,0.6,3.9,0,4.5-1.1c0.2-0.4,0.1-0.8-0.3-1C172.7,44.3,170.8,44.8,169.4,47z"/>
		<path class="st116" d="M179.8,52.8c0.8,1.4,0.7,2.4,0.1,3.3c-0.9,1.3-2.8,1.7-5.1,0.1c-2.1-1.4-2.2-3.1-1.6-4
			c0.4-0.6,1.2-0.7,1.8-0.3c0.6,0.4,0.6,0.8,0.6,0.8s-0.2,0.1-0.4,0.4c-0.6,0.8-0.5,1.7,0.4,2.3c0.9,0.6,1.7,0.4,2.1-0.1
			c0.3-0.4,0.3-0.9-0.1-1.6l-1-2c-0.5-1-0.7-1.9,0-3.1c0.9-1.4,2.8-1.7,5.1-0.1c2,1.4,2.2,3.1,1.6,4c-0.4,0.6-1.2,0.7-1.8,0.3
			c-0.6-0.4-0.6-0.8-0.6-0.8s0.2-0.1,0.4-0.4c0.5-0.8,0.5-1.7-0.4-2.4c-0.9-0.6-1.7-0.4-2.1,0.1c-0.3,0.5-0.3,0.9,0.1,1.6
			L179.8,52.8z"/>
		<path class="st116" d="M189.1,58.2c0.8-0.6,0.8-1,0.5-1.3c-0.9-0.8-4.3,0.2-7,2.4c-1,0.8-1.2,1.3-1.2,1.3s-0.3-0.1-0.9-0.5
			c-1.1-1-0.9-1.6,0.2-2.5l10.1-8.3c1-0.8,1.2-1.3,1.2-1.3s0.3,0.1,0.9,0.5c1.1,1,0.9,1.6-0.2,2.5l-6,4.9c0.7-0.2,1.3-0.4,1.9-0.4
			c1.3-0.1,2.3,0.2,2.9,0.7c0.9,0.8,1,2,0.2,2.9c-0.2,0.3-0.6,0.6-1.2,1.1l-2.2,1.8c-1.1,0.9-1.2,1.5-0.8,1.8
			c0.4,0.4,0.9,0.1,0.9,0.1c0.2,0.2,0.2,0.4-0.1,0.7c-0.6,0.6-1.9,0.7-2.9-0.2c-0.8-0.7-1-1.9,0.1-3.1c0.4-0.4,0.9-0.9,1.5-1.4
			L189.1,58.2z"/>
	</g>
	<g>
		<path class="st116" d="M164.9,180.1L164.9,180.1c-18.8,0-34.1-15.3-34.1-34.1V89.1h0c18.8,0,34.1,15.3,34.1,34.1V180.1z"/>
		<path class="st116" d="M215.8,180.1L215.8,180.1c0-18.8-15.3-34.1-34.1-34.1h-13.2v0c0,18.8,15.3,34.1,34.1,34.1H215.8z"/>
		<path class="st116" d="M195,105.3L195,105.3c-14.6,0-26.5,11.9-26.5,26.5V142h0c14.6,0,26.5-11.9,26.5-26.5V105.3z"/>
		<path class="st116" d="M90.9,180.1L90.9,180.1c18.8,0,34.1-15.3,34.1-34.1V89.1h0c-18.8,0-34.1,15.3-34.1,34.1V180.1z"/>
		<path class="st116" d="M40,180.1L40,180.1c0-18.8,15.3-34.1,34.1-34.1h13.2v0c0,18.8-15.3,34.1-34.1,34.1H40z"/>
		<path class="st116" d="M60.8,105.3L60.8,105.3c14.6,0,26.5,11.9,26.5,26.5V142h0c-14.6,0-26.5-11.9-26.5-26.5V105.3z"/>
	</g>
	<g>
		<g>
			<path class="st116" d="M34.2,222.2l-9.8,10.2v14.2h-7.6v-55h7.6v30.7l29-30.7h8.7l-22.9,24.7l24.3,30.2h-8.9L34.2,222.2z"/>
			<path class="st116" d="M89.1,222.2l-9.8,10.2v14.2h-7.6v-55h7.6v30.7l29-30.7h8.7l-22.9,24.7l24.3,30.2h-8.9L89.1,222.2z"/>
		</g>
		<g>
			<path class="st116" d="M126.7,204.9v-14.6h6v14.4c0,5,2.2,7,5.8,7c3.7,0,5.8-2,5.8-7v-14.4h6v14.6c0,7.7-4.4,11.9-11.8,11.9
				C131.1,216.8,126.7,212.6,126.7,204.9z"/>
			<path class="st116" d="M168.3,196.1v5.4c-0.5,0-0.9-0.1-1.3-0.1c-3.2,0-5.3,1.7-5.3,5.6v9.5h-5.8v-20h5.5v2.6
				C162.8,197.1,165.2,196.1,168.3,196.1z"/>
			<path class="st116" d="M193.6,206.4c0,6.3-4.4,10.3-10,10.3c-2.7,0-4.8-0.9-6.3-2.6v2.3h-5.5v-27.6h5.8v9.7
				c1.5-1.6,3.5-2.4,6-2.4C189.2,196.1,193.6,200.1,193.6,206.4z M187.7,206.4c0-3.5-2.2-5.5-5.1-5.5c-2.9,0-5.1,2.1-5.1,5.5
				s2.2,5.5,5.1,5.5C185.5,211.9,187.7,209.8,187.7,206.4z"/>
			<path class="st116" d="M214.8,205v11.4h-5.4v-2.5c-1.1,1.8-3.2,2.8-6.1,2.8c-4.7,0-7.5-2.6-7.5-6.1c0-3.5,2.5-6,8.6-6h4.6
				c0-2.5-1.5-3.9-4.6-3.9c-2.1,0-4.3,0.7-5.8,1.9l-2.1-4.1c2.2-1.6,5.4-2.4,8.6-2.4C211.3,196.1,214.8,198.9,214.8,205z M209,210.1
				v-2h-4c-2.7,0-3.6,1-3.6,2.3c0,1.5,1.2,2.4,3.3,2.4C206.7,212.8,208.4,211.9,209,210.1z"/>
			<path class="st116" d="M240.6,204.9v11.5h-5.8v-10.6c0-3.2-1.5-4.7-4.1-4.7c-2.8,0-4.8,1.7-4.8,5.4v9.9h-5.8v-20h5.5v2.3
				c1.6-1.7,3.9-2.6,6.6-2.6C237,196.1,240.6,198.8,240.6,204.9z"/>
			<path class="st116" d="M146.8,232.6c0,5.2-3.9,8.4-10.1,8.4H132v6.4h-5.4v-23.3h10.1C142.9,224.1,146.8,227.3,146.8,232.6z
				 M141.4,232.6c0-2.6-1.7-4.1-5-4.1H132v8.1h4.4C139.7,236.6,141.4,235.1,141.4,232.6z"/>
			<path class="st116" d="M166,237.2v10.2h-4.9v-2.2c-1,1.6-2.8,2.5-5.5,2.5c-4.2,0-6.7-2.3-6.7-5.4c0-3.2,2.2-5.4,7.7-5.4h4.1
				c0-2.2-1.3-3.5-4.1-3.5c-1.9,0-3.9,0.6-5.2,1.7l-1.9-3.6c2-1.4,4.9-2.2,7.7-2.2C162.8,229.2,166,231.8,166,237.2z M160.8,241.7
				v-1.8h-3.6c-2.4,0-3.2,0.9-3.2,2.1c0,1.3,1.1,2.2,2.9,2.2C158.7,244.2,160.2,243.4,160.8,241.7z"/>
			<path class="st116" d="M189,237.2v10.3h-5.2V238c0-2.9-1.3-4.2-3.6-4.2c-2.5,0-4.3,1.5-4.3,4.8v8.9h-5.2v-17.9h5v2.1
				c1.4-1.5,3.5-2.4,5.9-2.4C185.8,229.2,189,231.7,189,237.2z"/>
			<path class="st116" d="M205.2,246.5c-1.1,0.8-2.6,1.1-4.2,1.1c-4.2,0-6.7-2.2-6.7-6.4v-7.4h-2.8v-4h2.8v-4.4h5.2v4.4h4.5v4h-4.5
				v7.3c0,1.5,0.8,2.4,2.2,2.4c0.8,0,1.5-0.2,2.1-0.7L205.2,246.5z"/>
			<path class="st116" d="M219.3,229.2v4.8c-0.4,0-0.8-0.1-1.2-0.1c-2.9,0-4.8,1.6-4.8,5v8.5h-5.2v-17.9h5v2.4
				C214.4,230.1,216.5,229.2,219.3,229.2z"/>
			<path class="st116" d="M240.8,229.5l-8.1,19c-1.7,4.3-4.2,5.6-7.4,5.6c-1.8,0-3.8-0.6-5-1.6l1.9-3.7c0.8,0.7,1.9,1.1,2.9,1.1
				c1.4,0,2.2-0.6,2.9-2.2l0.1-0.2l-7.8-18h5.4l5,12.2l5.1-12.2H240.8z"/>
		</g>
	</g>
	<g>
		<path class="st116" d="M195,66.8c2.6,0,2.6-4,0-4C192.4,62.8,192.4,66.8,195,66.8L195,66.8z"/>
	</g>
	<g>
		<path class="st116" d="M60.8,66.8c2.6,0,2.6-4,0-4C58.2,62.8,58.2,66.8,60.8,66.8L60.8,66.8z"/>
	</g>
</g>
</svg>
