<?xml version="1.0" encoding="utf-8"?>
<!-- Generator: Adobe Illustrator 25.1.0, SVG Export Plug-In . SVG Version: 6.00 Build 0)  -->
<svg version="1.1" id="Layer_1" xmlns="http://www.w3.org/2000/svg" xmlns:xlink="http://www.w3.org/1999/xlink" x="0px" y="0px"
	 viewBox="0 0 695.3 131.4" style="enable-background:new 0 0 695.3 131.4;" xml:space="preserve">
<style type="text/css">
	.st0{fill:#001E28;}
	.st1{fill:#009245;}
	.st2{fill:#FC4755;}
	.st3{fill:#00B4FF;}
	.st4{fill:#FFAF00;}
	.st5{fill:none;stroke:#FFAF00;stroke-width:3;stroke-miterlimit:10;}
	.st6{fill:#1A1A1A;}
	.st7{fill:#FFFFFF;}
	.st8{fill:#FF7A00;}
	.st9{fill:url(#SVGID_1_);}
	.st10{fill:#F08221;}
	.st11{fill:#DBB425;}
	.st12{fill:#A4B73A;}
	.st13{fill:#72B144;}
	.st14{fill:#EC6F25;}
	.st15{fill:#ED4E25;}
	.st16{fill:#579041;}
	.st17{fill:#F39B23;}
	.st18{fill:#9A3C2E;}
	.st19{stroke:#F7F7F7;stroke-width:4.7867;stroke-miterlimit:10;}
	.st20{fill:#231F21;}
	.st21{fill:#FDD29E;}
	.st22{fill:#734540;}
	.st23{fill:#827168;}
	.st24{fill:#F05B45;}
	.st25{fill:#807E80;}
	.st26{fill:#8E6051;}
	.st27{fill:#AFB0B4;}
	.st28{fill:#B0B0B4;}
	.st29{fill:#DD896E;}
	.st30{fill:#67544A;}
	.st31{fill:#DD896D;}
	.st32{fill:#FCFDFB;}
	.st33{fill:#72443F;}
	.st34{fill:#DD8B6C;}
	.st35{fill:#FFFFFC;}
	.st36{fill:#4C494E;}
	.st37{fill:#8B5E50;}
	.st38{fill:#FAD19E;}
	.st39{fill:#FCD29E;}
	.st40{fill:#DC8A6D;}
	.st41{fill:#DD8A6E;}
	.st42{fill:#4C494F;}
	.st43{fill:#4B494E;}
	.st44{fill:#DC8A6E;}
	.st45{fill:#807D80;}
	.st46{fill:#4D4A4F;}
	.st47{fill:#4B494F;}
	.st48{fill:#FAFAFA;}
	.st49{fill:#F6F7F7;}
	.st50{fill:#EDECEC;}
	.st51{fill:#221F21;}
	.st52{fill:#9B3A2C;}
	.st53{fill:#F9CFA0;}
	.st54{fill:#ED5A44;}
	.st55{fill:#C45748;}
	.st56{fill:#D1CFCF;}
	.st57{fill:#2D292B;}
	.st58{fill:#DC8B6D;}
	.st59{fill:#DA8B6E;}
	.st60{fill:#322D2C;}
	.st61{fill:#2D2A2B;}
	.st62{fill:#FBFBF9;}
	.st63{fill:#F7F7F7;}
	.st64{stroke:#F7F7F7;stroke-width:4.7867;stroke-linecap:round;stroke-linejoin:round;stroke-miterlimit:10;}
	.st65{fill:#38373A;}
	.st66{fill:#5F6060;}
	.st67{fill:#8C191B;}
	.st68{fill:#EB1F27;}
	.st69{fill:#3C4FA1;}
	.st70{fill:#229FD9;}
	.st71{fill:#E48924;}
	.st72{fill:#FBCD0B;}
	.st73{fill:#606060;}
	.st74{fill:#FACE0B;}
	.st75{fill:#FACF0A;}
	.st76{fill:#616262;}
	.st77{fill:#383639;}
	.st78{fill:#DD8A6D;}
	.st79{fill:#8E191C;}
	.st80{fill:#383739;}
	.st81{fill:#606061;}
	.st82{fill:#8D191B;}
	.st83{fill:#5F5E5E;}
	.st84{fill:#222021;}
	.st85{fill:#5F5F60;}
	.st86{fill:#E91F28;}
	.st87{fill:#E28925;}
	.st88{fill:#249ED9;}
	.st89{fill:#636464;}
	.st90{fill:#D98A6E;}
	.st91{fill:#575657;}
	.st92{fill:#D98A6D;}
	.st93{fill:#E5C293;}
	.st94{fill:#333233;}
	.st95{fill:#312D2F;}
	.st96{fill:#EB2229;}
	.st97{fill:#BB2630;}
	.st98{fill:#019147;}
	.st99{fill:#36B04A;}
	.st100{opacity:0.24;clip-path:url(#SVGID_3_);}
	.st101{fill:#885E3B;}
	.st102{fill:#240F0F;}
	.st103{fill:#A81F24;}
	.st104{fill:none;}
	.st105{fill:#EA202C;}
	.st106{fill:#211E1F;}
	.st107{fill:#F8A81A;}
	.st108{fill:#28A6DE;}
	.st109{fill:#F79420;}
	.st110{fill:#C99C66;}
	.st111{fill:#EC1B34;}
	.st112{fill:#3B2314;}
	.st113{fill:#FE7D15;}
	.st114{fill:#151E27;}
	.st115{fill:#FD7C15;}
	.st116{fill:#570A0B;}
	.st117{fill:#E82429;}
	.st118{fill:#F4831F;}
	.st119{fill:#111320;}
	.st120{fill:none;stroke:#211E1F;stroke-width:0.1212;stroke-miterlimit:10;}
	.st121{fill:#EA6427;}
	.st122{fill:none;stroke:#211E1F;stroke-width:0.1266;stroke-miterlimit:10;}
	.st123{fill:#20808C;}
	.st124{fill:#0D743D;}
	.st125{fill:#E6252B;}
</style>
<g>
	<g>
		<g>
			<path class="st8" d="M110.8,67.7c-5.4,5.4-7.4,12.9-6.1,19.8c0.9,4.7-0.5,9.6-3.9,13l-0.5,0.5c-3.4,3.4-8.4,4.9-13.1,4
				c-7.9-1.5-16.4,1.3-21.8,8.4c-3.6,4.7-5.1,10.5-4.4,16.2h44.2h3.8c11.2,0,20.3-9.1,20.3-20.3v-3.8V61.3
				C122.7,60.5,115.8,62.6,110.8,67.7z"/>
			<path class="st8" d="M20,63.8c5.4-5.4,7.4-12.9,6.1-19.8c-0.9-4.7,0.5-9.6,3.9-13l0.5-0.5c3.4-3.4,8.3-4.9,13.1-4
				c7.9,1.5,16.4-1.3,21.8-8.4c3.6-4.7,5.1-10.6,4.4-16.2H25.6h-3.8c-11.2,0-20.3,9.1-20.3,20.3V26v44.2C8.1,70.9,14.9,68.8,20,63.8
				z"/>
			<linearGradient id="SVGID_1_" gradientUnits="userSpaceOnUse" x1="137.2123" y1="-6.1136" x2="-1.418061e-02" y2="131.1129">
				<stop  offset="0" style="stop-color:#8E72FF"/>
				<stop  offset="0.9695" style="stop-color:#3B1BD4"/>
			</linearGradient>
			<path class="st9" d="M81.1,81.4c5.4-5.4,7.4-12.9,6.1-19.8c-0.9-4.7,0.5-9.6,3.9-13l0.7-0.7c3.3-3.3,8.1-4.8,12.7-3.9
				c7.9,1.6,16.5-1.2,22-8.3c5.7-7.4,5.6-20-0.3-27.3c-8.4-10.5-23.9-11.2-33.2-1.9c-5.4,5.4-7.4,12.9-6.1,19.8
				c0.9,4.7-0.5,9.6-3.9,13L82.4,40c-3.4,3.4-8.3,4.7-13,3.9c-7-1.3-14.4,0.7-19.8,6.1s-7.4,12.9-6.1,19.8c0.9,4.7-0.5,9.6-3.9,13
				L39,83.5c-3.3,3.3-8.1,4.8-12.7,3.9c-7.9-1.6-16.5,1.2-22,8.3c-5.7,7.4-5.6,20,0.3,27.3c8.4,10.5,23.9,11.2,33.2,1.9
				c5.4-5.4,7.4-12.9,6.1-19.8c-0.9-4.7,0.5-9.6,3.9-13l0.7-0.7c3.4-3.4,8.3-4.7,13-3.9C68.3,88.9,75.7,86.8,81.1,81.4z"/>
		</g>
	</g>
	<g>
		<path d="M158.6,59.5c0-26.3,15.5-42.7,43.5-42.7s43.5,16.4,43.5,42.7v61.7h-20V59.5c0-15.2-7.8-24.1-23.5-24.1
			c-15.7,0-23.5,8.9-23.5,24.1v61.7h-20V59.5z"/>
		<path d="M296.8,78.1h46.3V60.2h-66.4v60.9h75.4v-18.5h-55.4V78.1z M276.7,18.8v18.6h75.4V18.8H276.7z"/>
		<path d="M406.6,37.4h-30.5V18.8h81.1v18.6h-30.5v83.7h-20V37.4z"/>
		<path d="M473.3,69.9c0-30.7,22.5-53.2,54.5-53.2c31.9,0,54.5,22.5,54.5,53.2c0,30.7-22.5,53.2-54.5,53.2
			C495.9,123.2,473.3,100.6,473.3,69.9z M561.9,69.9c0-20-13.8-34.6-34.1-34.6c-20.3,0-34.1,14.6-34.1,34.6s13.8,34.8,34.1,34.8
			C548.2,104.7,561.9,90,561.9,69.9z"/>
		<path d="M608.3,59.5c0-26.3,15.5-42.7,43.5-42.7c28,0,43.5,16.4,43.5,42.7v61.7h-20V59.5c0-15.2-7.8-24.1-23.5-24.1
			c-15.7,0-23.5,8.9-23.5,24.1v61.7h-20V59.5z"/>
	</g>
</g>
</svg>
