<?xml version="1.0" encoding="utf-8"?>
<!-- Generator: Adobe Illustrator 25.1.0, SVG Export Plug-In . SVG Version: 6.00 Build 0)  -->
<svg version="1.1" id="Layer_1" xmlns="http://www.w3.org/2000/svg" xmlns:xlink="http://www.w3.org/1999/xlink" x="0px" y="0px"
	 viewBox="0 0 612.6 149.2" style="enable-background:new 0 0 612.6 149.2;" xml:space="preserve">
<style type="text/css">
	.st0{fill:#001E28;}
	.st1{fill:#009245;}
	.st2{fill:#FC4755;}
	.st3{fill:#00B4FF;}
	.st4{fill:#FFAF00;}
	.st5{fill:none;stroke:#FFAF00;stroke-width:3;stroke-miterlimit:10;}
	.st6{fill:#1A1A1A;}
	.st7{fill:#FFFFFF;}
	.st8{fill:#FF7A00;}
	.st9{fill:url(#SVGID_1_);}
	.st10{fill:#F08221;}
	.st11{fill:#DBB425;}
	.st12{fill:#A4B73A;}
	.st13{fill:#72B144;}
	.st14{fill:#EC6F25;}
	.st15{fill:#ED4E25;}
	.st16{fill:#579041;}
	.st17{fill:#F39B23;}
	.st18{fill:#9A3C2E;}
	.st19{stroke:#F7F7F7;stroke-width:4.7867;stroke-miterlimit:10;}
	.st20{fill:#231F21;}
	.st21{fill:#FDD29E;}
	.st22{fill:#734540;}
	.st23{fill:#827168;}
	.st24{fill:#F05B45;}
	.st25{fill:#807E80;}
	.st26{fill:#8E6051;}
	.st27{fill:#AFB0B4;}
	.st28{fill:#B0B0B4;}
	.st29{fill:#DD896E;}
	.st30{fill:#67544A;}
	.st31{fill:#DD896D;}
	.st32{fill:#FCFDFB;}
	.st33{fill:#72443F;}
	.st34{fill:#DD8B6C;}
	.st35{fill:#FFFFFC;}
	.st36{fill:#4C494E;}
	.st37{fill:#8B5E50;}
	.st38{fill:#FAD19E;}
	.st39{fill:#FCD29E;}
	.st40{fill:#DC8A6D;}
	.st41{fill:#DD8A6E;}
	.st42{fill:#4C494F;}
	.st43{fill:#4B494E;}
	.st44{fill:#DC8A6E;}
	.st45{fill:#807D80;}
	.st46{fill:#4D4A4F;}
	.st47{fill:#4B494F;}
	.st48{fill:#FAFAFA;}
	.st49{fill:#F6F7F7;}
	.st50{fill:#EDECEC;}
	.st51{fill:#221F21;}
	.st52{fill:#9B3A2C;}
	.st53{fill:#F9CFA0;}
	.st54{fill:#ED5A44;}
	.st55{fill:#C45748;}
	.st56{fill:#D1CFCF;}
	.st57{fill:#2D292B;}
	.st58{fill:#DC8B6D;}
	.st59{fill:#DA8B6E;}
	.st60{fill:#322D2C;}
	.st61{fill:#2D2A2B;}
	.st62{fill:#FBFBF9;}
	.st63{fill:#F7F7F7;}
	.st64{stroke:#F7F7F7;stroke-width:4.7867;stroke-linecap:round;stroke-linejoin:round;stroke-miterlimit:10;}
	.st65{fill:#38373A;}
	.st66{fill:#5F6060;}
	.st67{fill:#8C191B;}
	.st68{fill:#EB1F27;}
	.st69{fill:#3C4FA1;}
	.st70{fill:#229FD9;}
	.st71{fill:#E48924;}
	.st72{fill:#FBCD0B;}
	.st73{fill:#606060;}
	.st74{fill:#FACE0B;}
	.st75{fill:#FACF0A;}
	.st76{fill:#616262;}
	.st77{fill:#383639;}
	.st78{fill:#DD8A6D;}
	.st79{fill:#8E191C;}
	.st80{fill:#383739;}
	.st81{fill:#606061;}
	.st82{fill:#8D191B;}
	.st83{fill:#5F5E5E;}
	.st84{fill:#222021;}
	.st85{fill:#5F5F60;}
	.st86{fill:#E91F28;}
	.st87{fill:#E28925;}
	.st88{fill:#249ED9;}
	.st89{fill:#636464;}
	.st90{fill:#D98A6E;}
	.st91{fill:#575657;}
	.st92{fill:#D98A6D;}
	.st93{fill:#E5C293;}
	.st94{fill:#333233;}
	.st95{fill:#312D2F;}
	.st96{fill:#EB2229;}
	.st97{fill:#BB2630;}
	.st98{fill:#019147;}
	.st99{fill:#36B04A;}
	.st100{opacity:0.24;clip-path:url(#SVGID_3_);}
	.st101{fill:#885E3B;}
	.st102{fill:#240F0F;}
	.st103{fill:#A81F24;}
	.st104{fill:none;}
	.st105{fill:#EA202C;}
	.st106{fill:#211E1F;}
	.st107{fill:#F8A81A;}
	.st108{fill:#28A6DE;}
	.st109{fill:#F79420;}
	.st110{fill:#C99C66;}
	.st111{fill:#EC1B34;}
	.st112{fill:#3B2314;}
	.st113{fill:#FE7D15;}
	.st114{fill:#151E27;}
	.st115{fill:#FD7C15;}
	.st116{fill:#570A0B;}
	.st117{fill:#E82429;}
	.st118{fill:#F4831F;}
	.st119{fill:#111320;}
	.st120{fill:none;stroke:#211E1F;stroke-width:0.1212;stroke-miterlimit:10;}
	.st121{fill:#EA6427;}
	.st122{fill:none;stroke:#211E1F;stroke-width:0.1266;stroke-miterlimit:10;}
	.st123{fill:#20808C;}
	.st124{fill:#0D743D;}
	.st125{fill:#E6252B;}
</style>
<g>
	<g>
		<g>
			<path class="st113" d="M186.8,53h27.7c4.7,0,8.9,0.9,12.5,2.8c3.6,1.9,6.4,4.5,8.4,7.8c2,3.3,3,7.1,3,11.2s-1,7.8-2.9,11.1
				c-2,3.2-4.8,5.8-8.4,7.6c-3.6,1.9-7.8,2.8-12.6,2.8h-14.8v22.6h-12.8V53z M220.1,83.7c1.6-0.9,2.9-2.1,3.8-3.7
				c0.9-1.5,1.3-3.3,1.3-5.2c0-1.9-0.4-3.7-1.3-5.3c-0.9-1.6-2.1-2.8-3.8-3.7c-1.6-0.9-3.5-1.3-5.6-1.3h-14.8V85h14.8
				C216.6,85,218.4,84.6,220.1,83.7z"/>
			<path class="st113" d="M245.6,51.7c1.4-1.4,3.2-2.2,5.3-2.2c2,0,3.7,0.7,5.2,2.2c1.4,1.4,2.2,3.2,2.2,5.2c0,2-0.7,3.7-2.2,5.2
				c-1.4,1.4-3.2,2.2-5.2,2.2c-2.1,0-3.8-0.7-5.3-2.2c-1.4-1.4-2.2-3.2-2.2-5.2C243.5,54.9,244.2,53.2,245.6,51.7z M244.8,70.5H257
				v48.6h-12.2V70.5z"/>
			<path class="st113" d="M284.3,90.6l-0.1,8.9l-20.9-29h14.9l13.2,20.2h-5.8l13.5-20.2h14.1l-21,28.5l0.1-8.9l20.9,29h-14.9
				l-13.2-20.2h5.9l-13.5,20.2h-14.2L284.3,90.6z"/>
			<path class="st113" d="M318.3,109.1l34.3-37.7l4.2,9.9h-38.4V70.5h40.8v10l-34.3,37.7l-4.2-9.8h38.4v10.7h-40.8V109.1z"/>
			<path class="st113" d="M375.6,89.7h30.9l-2.8,3.9c-0.1-2.6-0.8-4.9-1.9-7c-1.2-2.1-2.8-3.7-4.8-4.9c-2-1.2-4.3-1.7-6.8-1.7
				c-2.5,0-4.8,0.6-6.9,1.9c-2.1,1.3-3.7,3.1-4.9,5.3c-1.2,2.3-1.8,4.8-1.8,7.6c0,2.8,0.6,5.3,1.8,7.5c1.2,2.2,2.9,4,5.1,5.3
				c2.2,1.3,4.7,1.9,7.5,1.9c2.7,0,5.2-0.6,7.4-1.9c2.2-1.3,3.9-3,5.2-5.3l10,4.5c-2.2,4-5.3,7.1-9.3,9.5c-4,2.4-8.5,3.6-13.6,3.6
				c-4.8,0-9.2-1.1-13.2-3.3c-3.9-2.2-7-5.2-9.3-9.1c-2.3-3.9-3.4-8.1-3.4-12.8c0-4.7,1.1-9,3.4-12.9c2.2-3.9,5.3-6.9,9.2-9.1
				c3.9-2.2,8.2-3.3,12.9-3.3c5.3,0,10,1.3,14.1,4c4.1,2.7,7.2,6.3,9.2,10.8c2,4.5,2.6,9.4,1.7,14.8h-39.5V89.7z"/>
			<path class="st113" d="M424.1,49.3h12.2v69.8h-12.2V49.3z"/>
			<path class="st113" d="M446.6,49.3h12.2v69.8h-12.2V49.3z M455.3,81.9c1.8-3.8,4.4-6.9,7.7-9.1c3.3-2.2,7.2-3.3,11.6-3.3
				c4.3,0,8.3,1.1,11.9,3.3c3.6,2.2,6.4,5.2,8.4,9.1c2,3.9,3.1,8.1,3.1,12.8c0,4.7-1,9-3.1,12.9c-2,3.9-4.9,6.9-8.4,9.1
				c-3.6,2.2-7.6,3.3-11.9,3.3c-4.4,0-8.3-1.1-11.6-3.3c-3.3-2.2-5.9-5.2-7.7-9c-1.8-3.8-2.7-8.1-2.7-12.9
				C452.6,90.1,453.5,85.7,455.3,81.9z M460.6,102c1.2,2.1,2.8,3.8,4.8,5c2,1.2,4.3,1.8,6.8,1.8c2.5,0,4.8-0.6,6.8-1.8
				c2-1.2,3.6-2.9,4.8-5c1.2-2.1,1.7-4.5,1.7-7.2c0-2.6-0.6-5-1.7-7.2c-1.2-2.2-2.8-3.9-4.8-5.1c-2-1.2-4.3-1.8-6.8-1.8
				c-2.5,0-4.8,0.6-6.8,1.8c-2,1.2-3.6,2.9-4.8,5.1c-1.2,2.2-1.7,4.6-1.7,7.2C458.8,97.5,459.4,99.9,460.6,102z"/>
			<path class="st113" d="M515.4,89.7h30.9l-2.8,3.9c-0.1-2.6-0.8-4.9-1.9-7c-1.2-2.1-2.8-3.7-4.8-4.9c-2-1.2-4.3-1.7-6.8-1.7
				c-2.5,0-4.8,0.6-6.9,1.9c-2.1,1.3-3.7,3.1-4.9,5.3c-1.2,2.3-1.8,4.8-1.8,7.6c0,2.8,0.6,5.3,1.8,7.5c1.2,2.2,2.9,4,5.1,5.3
				c2.2,1.3,4.7,1.9,7.5,1.9c2.7,0,5.2-0.6,7.4-1.9c2.2-1.3,3.9-3,5.2-5.3l10,4.5c-2.2,4-5.3,7.1-9.3,9.5c-4,2.4-8.5,3.6-13.6,3.6
				c-4.8,0-9.2-1.1-13.2-3.3c-3.9-2.2-7-5.2-9.3-9.1c-2.3-3.9-3.4-8.1-3.4-12.8c0-4.7,1.1-9,3.4-12.9c2.2-3.9,5.3-6.9,9.2-9.1
				c3.9-2.2,8.2-3.3,12.9-3.3c5.3,0,10,1.3,14.1,4c4.1,2.7,7.2,6.3,9.2,10.8c2,4.5,2.6,9.4,1.7,14.8h-39.5V89.7z"/>
			<path class="st113" d="M572.7,89.7h30.9l-2.8,3.9c-0.1-2.6-0.8-4.9-1.9-7c-1.2-2.1-2.8-3.7-4.8-4.9c-2-1.2-4.3-1.7-6.8-1.7
				c-2.5,0-4.8,0.6-6.9,1.9c-2.1,1.3-3.7,3.1-4.9,5.3c-1.2,2.3-1.8,4.8-1.8,7.6c0,2.8,0.6,5.3,1.8,7.5c1.2,2.2,2.9,4,5.1,5.3
				c2.2,1.3,4.7,1.9,7.5,1.9c2.7,0,5.2-0.6,7.4-1.9c2.2-1.3,3.9-3,5.2-5.3l10,4.5c-2.2,4-5.3,7.1-9.3,9.5c-4,2.4-8.5,3.6-13.6,3.6
				c-4.8,0-9.2-1.1-13.2-3.3c-3.9-2.2-7-5.2-9.3-9.1c-2.3-3.9-3.4-8.1-3.4-12.8c0-4.7,1.1-9,3.4-12.9c2.2-3.9,5.3-6.9,9.2-9.1
				c3.9-2.2,8.2-3.3,12.9-3.3c5.3,0,10,1.3,14.1,4c4.1,2.7,7.2,6.3,9.2,10.8c2,4.5,2.6,9.4,1.7,14.8h-39.5V89.7z"/>
		</g>
	</g>
	<g>
		<path class="st114" d="M68.8,138.1c-13.3,0-26.7,0-40,0c-0.4,0-0.8,0.1-1.2,0.3c-7.6,3.5-15.2,7-22.8,10.5c-1.9,0.9-3.9,0-4.6-1.9
			c-0.4-1.1-0.1-2.2,0.6-3.1c3.2-4,6.4-8,9.5-12c1.7-2.1,3.4-4.2,5-6.3c0.2-0.3,0.2-0.6,0.2-0.9c0-3.5,0-7.1,0-10.6
			c0-11.7,0-23.4,0-35.1c0-5.3,2.5-9.1,7.3-11.3c4.2-1.9,8.4-3.7,12.6-5.5c2-0.9,4-1.3,6.1-1.2c0.3,0,0.6,0,0.9,0
			c0.4,0,0.5-0.1,0.5-0.5c0-2.4,0-4.9,0-7.3c0.1-5.4,2.6-9.3,7.6-11.5c4.2-1.9,8.5-3.7,12.7-5.6c1.6-0.7,3.3-1.1,5.1-1.1
			c5.9,0,11.7,0,17.6,0c0.6,0,0.7-0.2,0.7-0.7c0-3.2,0-6.4,0-9.6c0-0.5-0.1-0.6-0.6-0.8c-4.2-1.1-7.1-5-7-9.4
			c0.1-4.5,3.2-8.2,7.4-9.2c5-1.1,10.1,2,11.3,7c1.3,5.1-1.7,10.2-6.8,11.5c-0.4,0.1-0.6,0.3-0.5,0.7c0,3.2,0,6.5,0,9.7
			c0,0.4,0.1,0.6,0.6,0.6c7,0,14.1,0,21.1,0c0.5,0,0.5-0.2,0.5-0.6c0-5,0-10,0-15c0-0.4-0.1-0.6-0.5-0.7c-3.4-1-5.7-3.2-6.7-6.7
			c-1.7-5.5,2.4-11.5,8.1-12c5.2-0.5,9.6,2.8,10.4,7.9c0.8,5.2-2.4,9.5-6.9,10.7c-0.5,0.1-0.6,0.3-0.6,0.8c0,5,0,10,0,15
			c0,0.5,0.2,0.6,0.6,0.6c6.1,0,12.2,0,18.4,0c6.7,0,12.1,5.3,12.1,12.1c0,8.7,0,17.4,0,26c0,9,0,17.9,0,26.9
			c0,5.8-3.9,10.6-9.6,11.9c-0.8,0.2-1.7,0.3-2.6,0.3c-4.8,0-9.6,0-14.4,0c-0.8,0-0.8,0-0.8,0.8c0,4.2,0,8.4,0,12.6
			c0,3-0.8,5.7-2.7,8c-2.4,3-5.6,4.5-9.5,4.5C95.1,138.2,81.9,138.1,68.8,138.1z"/>
		<path class="st115" d="M95.4,101.8c-12.4,0-24.8,0-37.2,0c-1.3,0-2.6-0.3-3.5-1.3c-0.9-0.9-1.3-1.9-1.3-3.1c0-1.6,0-3.2,0-4.9
			c0-12.6,0-25.2,0-37.8c0-2.1,0.9-3.6,2.9-4.4c3.4-1.5,6.8-3,10.2-4.5c0.8-0.3,1.6-0.5,2.4-0.5c21.3,0,42.7,0,64,0
			c2.8,0,4.6,1.8,4.6,4.6c0,15.8,0,31.7,0,47.5c0,2.1-1.3,3.8-3.4,4.3c-0.5,0.1-0.9,0.1-1.4,0.1C120.2,101.8,107.8,101.8,95.4,101.8
			z"/>
		<path class="st115" d="M68,127.8c-12.6,0-25.1,0-37.7,0c-2.3,0-4.4-1.5-4.4-4.4c0-14.2,0-28.5,0-42.7c0-2,0.9-3.4,2.8-4.2
			c3.7-1.6,7.4-3.2,11.1-4.8c1-0.4,2-0.2,2.9-0.3c0.2,0,0.2,0.1,0.2,0.3c0,0.2,0,0.4,0,0.5c0,9.3,0,18.6,0,27.9
			c0,6.7,5.4,12.1,12.1,12.1c17.9,0,35.9,0,53.8,0c0.2,0,0.4,0,0.5,0c0.4,0,0.5,0.1,0.5,0.5c0,1,0,2.1,0,3.1c0,2.6,0,5.2,0,7.9
			c0,2.5-1.7,4.2-4.2,4.2C93.2,127.8,80.6,127.8,68,127.8z"/>
		<path class="st114" d="M83.2,75.5c-5.6,0-10.1-4.5-10.1-10.1c0-5.5,4.5-10.1,10-10.1c5.7,0,10.2,4.4,10.2,10
			C93.3,71,88.9,75.5,83.2,75.5z"/>
		<path class="st114" d="M117.4,75.5c-5.5,0-10.1-4.5-10.1-10c0-5.6,4.4-10.2,9.9-10.2c5.7,0,10.3,4.4,10.3,10
			C127.5,71,123,75.5,117.4,75.5z"/>
	</g>
</g>
</svg>
