<?xml version="1.0" encoding="utf-8"?>
<!-- Generator: Adobe Illustrator 25.1.0, SVG Export Plug-In . SVG Version: 6.00 Build 0)  -->
<svg version="1.1" id="Layer_1" xmlns="http://www.w3.org/2000/svg" xmlns:xlink="http://www.w3.org/1999/xlink" x="0px" y="0px"
	 viewBox="0 0 528 211.2" style="enable-background:new 0 0 528 211.2;" xml:space="preserve">
<style type="text/css">
	.st0{fill:#001E28;}
	.st1{fill:#009245;}
	.st2{fill:#FC4755;}
	.st3{fill:#00B4FF;}
	.st4{fill:#FFAF00;}
	.st5{fill:none;stroke:#FFAF00;stroke-width:3;stroke-miterlimit:10;}
	.st6{fill:#1A1A1A;}
	.st7{fill:#FFFFFF;}
	.st8{fill:#FF7A00;}
	.st9{fill:url(#SVGID_1_);}
	.st10{fill:#F08221;}
	.st11{fill:#DBB425;}
	.st12{fill:#A4B73A;}
	.st13{fill:#72B144;}
	.st14{fill:#EC6F25;}
	.st15{fill:#ED4E25;}
	.st16{fill:#579041;}
	.st17{fill:#F39B23;}
	.st18{fill:#9A3C2E;}
	.st19{stroke:#F7F7F7;stroke-width:4.7867;stroke-miterlimit:10;}
	.st20{fill:#231F21;}
	.st21{fill:#FDD29E;}
	.st22{fill:#734540;}
	.st23{fill:#827168;}
	.st24{fill:#F05B45;}
	.st25{fill:#807E80;}
	.st26{fill:#8E6051;}
	.st27{fill:#AFB0B4;}
	.st28{fill:#B0B0B4;}
	.st29{fill:#DD896E;}
	.st30{fill:#67544A;}
	.st31{fill:#DD896D;}
	.st32{fill:#FCFDFB;}
	.st33{fill:#72443F;}
	.st34{fill:#DD8B6C;}
	.st35{fill:#FFFFFC;}
	.st36{fill:#4C494E;}
	.st37{fill:#8B5E50;}
	.st38{fill:#FAD19E;}
	.st39{fill:#FCD29E;}
	.st40{fill:#DC8A6D;}
	.st41{fill:#DD8A6E;}
	.st42{fill:#4C494F;}
	.st43{fill:#4B494E;}
	.st44{fill:#DC8A6E;}
	.st45{fill:#807D80;}
	.st46{fill:#4D4A4F;}
	.st47{fill:#4B494F;}
	.st48{fill:#FAFAFA;}
	.st49{fill:#F6F7F7;}
	.st50{fill:#EDECEC;}
	.st51{fill:#221F21;}
	.st52{fill:#9B3A2C;}
	.st53{fill:#F9CFA0;}
	.st54{fill:#ED5A44;}
	.st55{fill:#C45748;}
	.st56{fill:#D1CFCF;}
	.st57{fill:#2D292B;}
	.st58{fill:#DC8B6D;}
	.st59{fill:#DA8B6E;}
	.st60{fill:#322D2C;}
	.st61{fill:#2D2A2B;}
	.st62{fill:#FBFBF9;}
	.st63{fill:#F7F7F7;}
	.st64{stroke:#F7F7F7;stroke-width:4.7867;stroke-linecap:round;stroke-linejoin:round;stroke-miterlimit:10;}
	.st65{fill:#38373A;}
	.st66{fill:#5F6060;}
	.st67{fill:#8C191B;}
	.st68{fill:#EB1F27;}
	.st69{fill:#3C4FA1;}
	.st70{fill:#229FD9;}
	.st71{fill:#E48924;}
	.st72{fill:#FBCD0B;}
	.st73{fill:#606060;}
	.st74{fill:#FACE0B;}
	.st75{fill:#FACF0A;}
	.st76{fill:#616262;}
	.st77{fill:#383639;}
	.st78{fill:#DD8A6D;}
	.st79{fill:#8E191C;}
	.st80{fill:#383739;}
	.st81{fill:#606061;}
	.st82{fill:#8D191B;}
	.st83{fill:#5F5E5E;}
	.st84{fill:#222021;}
	.st85{fill:#5F5F60;}
	.st86{fill:#E91F28;}
	.st87{fill:#E28925;}
	.st88{fill:#249ED9;}
	.st89{fill:#636464;}
	.st90{fill:#D98A6E;}
	.st91{fill:#575657;}
	.st92{fill:#D98A6D;}
	.st93{fill:#E5C293;}
	.st94{fill:#333233;}
	.st95{fill:#312D2F;}
	.st96{fill:#EB2229;}
	.st97{fill:#BB2630;}
	.st98{fill:#019147;}
	.st99{fill:#36B04A;}
	.st100{opacity:0.24;clip-path:url(#SVGID_3_);}
	.st101{fill:#885E3B;}
	.st102{fill:#240F0F;}
	.st103{fill:#A81F24;}
	.st104{fill:none;}
	.st105{fill:#EA202C;}
	.st106{fill:#211E1F;}
	.st107{fill:#F8A81A;}
	.st108{fill:#28A6DE;}
	.st109{fill:#F79420;}
	.st110{fill:#C99C66;}
	.st111{fill:#EC1B34;}
	.st112{fill:#3B2314;}
	.st113{fill:#FE7D15;}
	.st114{fill:#151E27;}
	.st115{fill:#FD7C15;}
	.st116{fill:#570A0B;}
	.st117{fill:#E82429;}
	.st118{fill:#F4831F;}
	.st119{fill:#111320;}
	.st120{fill:none;stroke:#211E1F;stroke-width:0.1212;stroke-miterlimit:10;}
	.st121{fill:#EA6427;}
	.st122{fill:none;stroke:#211E1F;stroke-width:0.1266;stroke-miterlimit:10;}
	.st123{fill:#20808C;}
	.st124{fill:#0D743D;}
	.st125{fill:#E6252B;}
</style>
<g>
	<g>
		<path class="st3" d="M43.2,188.4h-7.5V81.7l-23.4,23.4V88.4L100.7,0v50c-1.4-0.8-3.3-1.6-5.5-2.3c-2.4-0.7-4.6-1-6.3-1
			c0-7.7,0-10.4,0-18.1L47.6,69.8v112.7v5.9L43.2,188.4z"/>
		<g>
			<polygon class="st4" points="84.6,75.5 87.5,76.8 91.2,68.3 89.5,64.1 			"/>
			<path class="st4" d="M105,80.2c0.7-1.1,2.5-4.2,2.3-8.5c-0.2-3.2-1.3-5.5-2-6.7c0.3-1.7,0.6-3.5,0.9-5.2
				c-1.5-1.7-6.3-6.6-14.3-8.2c-7-1.4-12.6,0.5-14.8,1.3c-0.7,0.9-1.4,1.8-2.1,2.7c-0.9,0.4-2,0.9-3,1.7c-3.4,2.7-4.4,6.5-4.7,8
				c-1.2,0.2-2.3,0.4-3.5,0.6l1,2.8c5.5,2.4,11.1,4.8,16.6,7.2l6.2-14.2L84.4,63l-4.2,9.7l-3.1-1.4l2.9-6.6l4.5-1.8l1.5-3.4
				l10.9-4.3l-5.6,13l2.1,5.4l-2.6,6.1l19.6,8.5l1.7-0.7L105,80.2z"/>
		</g>
		<polygon points="24.2,199.3 24.2,113.1 12.4,125 12.4,199.3 0,199.3 0,211.2 132,211.2 132,199.3 		"/>
		<g>
			<path class="st3" d="M118.3,187.8H59V71.9L118.3,97V187.8z M69.8,177h37.7v-72.8l-37.7-16V177z"/>
		</g>
		<polyline class="st5" points="96,162.1 96,113.3 82.8,107.7 82.8,172.9 74.3,172.9 74.3,141.1 89.3,130.3 89.3,172.9 102.9,172.9 
			102.9,144.4 95.6,144.4 		"/>
	</g>
	<g>
		<path class="st3" d="M173.4,95.4h-13.4V84.7h39.7v10.7h-13.4v35.2h-12.9V95.4z"/>
		<path class="st3" d="M232.9,123.1h-20.5l-3,7.5h-13.8l20.6-45.9h13.1l20.5,45.9h-13.9L232.9,123.1z M222.7,97.6l-5.9,14.6h11.7
			L222.7,97.6z"/>
		<path class="st3" d="M266.5,84.7v34.9h22v11h-34.9V84.7H266.5z"/>
		<path class="st3" d="M336.2,84.8v25.6c0.1,13.6-8.2,21.2-21.6,21.2c-13.4,0-21.6-7.3-21.6-21.3V84.8h12.9v25.5
			c0,7.2,3.5,10.2,8.7,10.2c5.2,0,8.7-3.1,8.7-10.1V84.8H336.2z"/>
		<path class="st3" d="M385.5,85.5l-18.6,21.7c6.4,7.1,13.8,15.3,20.2,22.6v0.8H371l-13.1-15.3v15.3h-13V84.7h13v15.1
			c3.9-4.9,8.2-10.2,12.1-15.1h15.5V85.5z"/>
		<path class="st3" d="M410.6,84.7c16.2,0,24,10,24,22.6c0,12.7-7.5,23.3-24,23.3H391V84.7H410.6z M403.8,119.7h6.8
			c8.3,0,11.1-6.2,11.1-12.5c0-6.3-3.2-11.7-11.1-11.7h-6.8V119.7z"/>
		<path class="st3" d="M478.2,130.6h-36.7V84.7h35.8v10.9h-23v6.6H476v10.6h-21.7v6.9h23.9V130.6z"/>
		<path class="st3" d="M528,130.6h-14.3l-10.7-14.9h-4.5v14.9h-13V84.7H508c11.7,0,17.8,7.5,17.8,15.8c0,5.6-2,10.4-9.7,13.8
			l11.9,15.5V130.6z M498.5,95.1v11h9.6c3.4,0,4.9-2.6,4.9-5.3c0-2.9-1.6-5.7-5-5.7H498.5z"/>
		<path class="st4" d="M177.1,153c10.2,0,14.8,7.3,14.9,14.6c0.2,7.5-4.5,15.2-14.9,15.2c-3.6,0-7.7,0-11.3,0V153H177.1z
			 M170.6,178.2h6.6c7.3,0,10.3-5.4,10.2-10.6c-0.1-5-3.2-10-10.2-10h-6.6V178.2z"/>
		<path class="st4" d="M232.1,182.8h-22c0-9.9,0-19.9,0-29.8h21.9v4.6h-17.1v8h16.4v4.4h-16.4v8h17.2V182.8z"/>
		<path class="st4" d="M264.6,182.9h-5L247.2,153h5.4l9.5,24.2l9.5-24.2h5.3L264.6,182.9z"/>
		<path class="st4" d="M315.5,182.8h-22c0-9.9,0-19.9,0-29.8h21.9v4.6h-17.1v8h16.4v4.4h-16.4v8h17.2V182.8z"/>
		<path class="st4" d="M338.7,153v25.4h15.7v4.4h-20.5V153H338.7z"/>
		<path class="st4" d="M399.1,168c0,8-4.9,15.4-15.2,15.4s-15.2-7.5-15.2-15.4c0-9.1,6.3-15.6,15.3-15.6
			C394.2,152.5,399.1,160,399.1,168z M383.9,179c7.4,0,10.5-5.2,10.5-10.9c0-5.5-3.2-11.2-10.4-11.3c-6.9,0-10.6,4.8-10.6,11.3
			C373.5,173.4,376.5,179,383.9,179z"/>
		<path class="st4" d="M421.9,173.6v9.2h-4.8V153c4.6,0,9.2,0,13.8,0c14.2,0,14.3,20.6,0,20.7H421.9z M421.9,169.2h9
			c7.9,0,7.8-11.9,0-11.9h-9V169.2z"/>
		<path class="st4" d="M480.8,182.8h-22c0-9.9,0-19.9,0-29.8h21.9v4.6h-17.1v8H480v4.4h-16.4v8h17.2V182.8z"/>
		<path class="st4" d="M525,182.8h-5.6l-9.1-10.3H504v10.3h-4.8v-29.8c4.6,0,9.2,0,13.9,0c6.9,0,10.5,4.7,10.5,9.7
			c0,4.3-2.2,8.4-8.1,9.3l8.9,9.9L525,182.8z M504,157.3v10.8h9.1c4,0,5.7-2.5,5.7-5.3c0-2.7-1.7-5.5-5.7-5.5H504z"/>
	</g>
</g>
</svg>
