<?xml version="1.0" encoding="utf-8"?>
<!-- Generator: Adobe Illustrator 25.1.0, SVG Export Plug-In . SVG Version: 6.00 Build 0)  -->
<svg version="1.1" id="Layer_1" xmlns="http://www.w3.org/2000/svg" xmlns:xlink="http://www.w3.org/1999/xlink" x="0px" y="0px"
	 viewBox="0 0 1353.4 504.6" style="enable-background:new 0 0 1353.4 504.6;" xml:space="preserve">
<style type="text/css">
	.st0{fill:#0046BE;}
	.st1{fill:#FDE74C;}
</style>
<g>
	<g id="XMLID_44_">
		<g id="XMLID_46_">
			<path id="XMLID_48_" class="st0" d="M427.8,32.2l-38,61.1l-6.6-8.3l-86.7-4.3l23-28.5c2.8-3.5,2.7-8.4-0.3-11.7l-29-32.3
				l133.5,8.3l-5,6.6L427.8,32.2z"/>
			<polygon id="XMLID_47_" class="st0" points="488.5,223.4 465,246.9 455,233.7 385.7,449.3 133,504.6 85.9,438.5 97.5,438.5 
				58.1,343.4 108,287.7 161.9,425.3 332,392.3 408,170.1 397.7,156.5 422.8,131.3 			"/>
		</g>
		<path id="XMLID_45_" class="st1" d="M319.5,52.3l-23,28.5l-110.7-5.6L80.1,216.4l27.9,71.3l-49.9,55.7L0,203.2L158.6,0l0.7,0
			l131,8.2l29,32.3C322.2,43.8,322.3,48.8,319.5,52.3z"/>
	</g>
	<g>
		<path class="st0" d="M688.8,75.3l-56.1,129.6h-29.6L547.2,75.3h32.4l39.4,92.6l40-92.6H688.8z"/>
		<path class="st0" d="M699.6,75.3h30v129.6h-30V75.3z"/>
		<path class="st0" d="M872.9,149.2c4.2,5.5,6.3,12.3,6.3,20.3c0,11.4-4.4,20.1-13.2,26.2c-8.8,6.1-21.7,9.2-38.6,9.2h-67V75.3h63.3
			c15.8,0,27.9,3,36.4,9.1c8.4,6,12.7,14.3,12.7,24.6c0,6.3-1.5,11.9-4.5,16.9c-3,4.9-7.3,8.8-12.7,11.7
			C862.9,139.8,868.7,143.8,872.9,149.2z M790.1,97.9v30.6h29.8c7.4,0,13-1.3,16.9-3.9c3.8-2.6,5.7-6.4,5.7-11.5s-1.9-8.9-5.7-11.4
			c-3.8-2.5-9.4-3.8-16.9-3.8H790.1z M843,178.4c4-2.6,6-6.6,6-12c0-10.7-8-16.1-23.9-16.1h-35v32h35C833,182.3,839,181,843,178.4z"
			/>
		<path class="st0" d="M1002.3,180.8v24.1H902V75.3h98v24.1h-68.2v28.1H992v23.3h-60.2v30H1002.3z"/>
		<path class="st0" d="M651.8,360.3h27.4v52.6c-7,5.3-15.2,9.4-24.4,12.2c-9.3,2.8-18.6,4.3-28,4.3c-13.5,0-25.6-2.9-36.3-8.6
			c-10.7-5.7-19.2-13.7-25.3-23.9c-6.1-10.2-9.2-21.7-9.2-34.5c0-12.8,3.1-24.4,9.2-34.5c6.1-10.2,14.6-18.1,25.5-23.9
			c10.9-5.7,23.1-8.6,36.7-8.6c11.4,0,21.7,1.9,30.9,5.7c9.3,3.8,17,9.4,23.3,16.7l-19.3,17.8c-9.3-9.8-20.4-14.6-33.5-14.6
			c-8.3,0-15.6,1.7-22,5.2c-6.4,3.5-11.4,8.3-15,14.6c-3.6,6.3-5.4,13.5-5.4,21.7c0,8,1.8,15.2,5.4,21.5c3.6,6.3,8.6,11.2,14.9,14.7
			c6.4,3.5,13.6,5.3,21.8,5.3c8.6,0,16.4-1.9,23.3-5.6V360.3z"/>
		<path class="st0" d="M792.3,399.3h-60.2l-11.5,27.8h-30.7l57.8-129.6h29.6l58,129.6h-31.5L792.3,399.3z M782.9,376.6l-20.5-49.6
			l-20.6,49.6H782.9z"/>
		<path class="st0" d="M966.8,427.1l-0.2-77.8l-38.1,64.1h-13.5L877,351v76.1h-28.2V297.5h24.8l48.5,80.6l47.8-80.6h24.6l0.4,129.6
			H966.8z"/>
		<path class="st0" d="M1025.7,297.5h30v129.6h-30V297.5z"/>
		<path class="st0" d="M1205.3,297.5v129.6h-24.6l-64.6-78.7v78.7h-29.6V297.5h24.8l64.4,78.7v-78.7H1205.3z"/>
		<path class="st0" d="M1323.6,360.3h27.4v52.6c-7,5.3-15.2,9.4-24.4,12.2c-9.3,2.8-18.6,4.3-28,4.3c-13.5,0-25.6-2.9-36.3-8.6
			c-10.7-5.7-19.2-13.7-25.3-23.9c-6.1-10.2-9.2-21.7-9.2-34.5c0-12.8,3.1-24.4,9.2-34.5s14.6-18.1,25.5-23.9
			c10.9-5.7,23.1-8.6,36.7-8.6c11.4,0,21.7,1.9,30.9,5.7c9.3,3.8,17,9.4,23.3,16.7l-19.3,17.8c-9.3-9.8-20.4-14.6-33.5-14.6
			c-8.3,0-15.6,1.7-22,5.2c-6.4,3.5-11.4,8.3-15,14.6c-3.6,6.3-5.4,13.5-5.4,21.7c0,8,1.8,15.2,5.4,21.5c3.6,6.3,8.6,11.2,14.9,14.7
			c6.4,3.5,13.6,5.3,21.8,5.3c8.6,0,16.4-1.9,23.3-5.6V360.3z"/>
	</g>
</g>
</svg>
