<?xml version="1.0" encoding="utf-8"?>
<!-- Generator: Adobe Illustrator 25.1.0, SVG Export Plug-In . SVG Version: 6.00 Build 0)  -->
<svg version="1.1" id="Layer_1" xmlns="http://www.w3.org/2000/svg" xmlns:xlink="http://www.w3.org/1999/xlink" x="0px" y="0px"
	 viewBox="0 0 353 192.3" style="enable-background:new 0 0 353 192.3;" xml:space="preserve">
<style type="text/css">
	.st0{fill:#001E28;}
	.st1{fill:#009245;}
	.st2{fill:#FC4755;}
	.st3{fill:#00B4FF;}
	.st4{fill:#FFAF00;}
	.st5{fill:none;stroke:#FFAF00;stroke-width:3;stroke-miterlimit:10;}
	.st6{fill:#1A1A1A;}
	.st7{fill:#FFFFFF;}
	.st8{fill:#FF7A00;}
	.st9{fill:url(#SVGID_1_);}
	.st10{fill:#F08221;}
	.st11{fill:#DBB425;}
	.st12{fill:#A4B73A;}
	.st13{fill:#72B144;}
	.st14{fill:#EC6F25;}
	.st15{fill:#ED4E25;}
	.st16{fill:#579041;}
	.st17{fill:#F39B23;}
	.st18{fill:#9A3C2E;}
	.st19{stroke:#F7F7F7;stroke-width:4.7867;stroke-miterlimit:10;}
	.st20{fill:#231F21;}
	.st21{fill:#FDD29E;}
	.st22{fill:#734540;}
	.st23{fill:#827168;}
	.st24{fill:#F05B45;}
	.st25{fill:#807E80;}
	.st26{fill:#8E6051;}
	.st27{fill:#AFB0B4;}
	.st28{fill:#B0B0B4;}
	.st29{fill:#DD896E;}
	.st30{fill:#67544A;}
	.st31{fill:#DD896D;}
	.st32{fill:#FCFDFB;}
	.st33{fill:#72443F;}
	.st34{fill:#DD8B6C;}
	.st35{fill:#FFFFFC;}
	.st36{fill:#4C494E;}
	.st37{fill:#8B5E50;}
	.st38{fill:#FAD19E;}
	.st39{fill:#FCD29E;}
	.st40{fill:#DC8A6D;}
	.st41{fill:#DD8A6E;}
	.st42{fill:#4C494F;}
	.st43{fill:#4B494E;}
	.st44{fill:#DC8A6E;}
	.st45{fill:#807D80;}
	.st46{fill:#4D4A4F;}
	.st47{fill:#4B494F;}
	.st48{fill:#FAFAFA;}
	.st49{fill:#F6F7F7;}
	.st50{fill:#EDECEC;}
	.st51{fill:#221F21;}
	.st52{fill:#9B3A2C;}
	.st53{fill:#F9CFA0;}
	.st54{fill:#ED5A44;}
	.st55{fill:#C45748;}
	.st56{fill:#D1CFCF;}
	.st57{fill:#2D292B;}
	.st58{fill:#DC8B6D;}
	.st59{fill:#DA8B6E;}
	.st60{fill:#322D2C;}
	.st61{fill:#2D2A2B;}
	.st62{fill:#FBFBF9;}
	.st63{fill:#F7F7F7;}
	.st64{stroke:#F7F7F7;stroke-width:4.7867;stroke-linecap:round;stroke-linejoin:round;stroke-miterlimit:10;}
	.st65{fill:#38373A;}
	.st66{fill:#5F6060;}
	.st67{fill:#8C191B;}
	.st68{fill:#EB1F27;}
	.st69{fill:#3C4FA1;}
	.st70{fill:#229FD9;}
	.st71{fill:#E48924;}
	.st72{fill:#FBCD0B;}
	.st73{fill:#606060;}
	.st74{fill:#FACE0B;}
	.st75{fill:#FACF0A;}
	.st76{fill:#616262;}
	.st77{fill:#383639;}
	.st78{fill:#DD8A6D;}
	.st79{fill:#8E191C;}
	.st80{fill:#383739;}
	.st81{fill:#606061;}
	.st82{fill:#8D191B;}
	.st83{fill:#5F5E5E;}
	.st84{fill:#222021;}
	.st85{fill:#5F5F60;}
	.st86{fill:#E91F28;}
	.st87{fill:#E28925;}
	.st88{fill:#249ED9;}
	.st89{fill:#636464;}
	.st90{fill:#D98A6E;}
	.st91{fill:#575657;}
	.st92{fill:#D98A6D;}
	.st93{fill:#E5C293;}
	.st94{fill:#333233;}
	.st95{fill:#312D2F;}
	.st96{fill:#EB2229;}
	.st97{fill:#BB2630;}
	.st98{fill:#019147;}
	.st99{fill:#36B04A;}
	.st100{opacity:0.24;clip-path:url(#SVGID_3_);}
	.st101{fill:#885E3B;}
	.st102{fill:#240F0F;}
	.st103{fill:#A81F24;}
	.st104{fill:none;}
	.st105{fill:#EA202C;}
	.st106{fill:#211E1F;}
	.st107{fill:#F8A81A;}
	.st108{fill:#28A6DE;}
	.st109{fill:#F79420;}
	.st110{fill:#C99C66;}
	.st111{fill:#EC1B34;}
	.st112{fill:#3B2314;}
	.st113{fill:#FE7D15;}
	.st114{fill:#151E27;}
	.st115{fill:#FD7C15;}
	.st116{fill:#570A0B;}
	.st117{fill:#E82429;}
	.st118{fill:#F4831F;}
	.st119{fill:#111320;}
	.st120{fill:none;stroke:#211E1F;stroke-width:0.1212;stroke-miterlimit:10;}
	.st121{fill:#EA6427;}
	.st122{fill:none;stroke:#211E1F;stroke-width:0.1266;stroke-miterlimit:10;}
	.st123{fill:#20808C;}
	.st124{fill:#0D743D;}
	.st125{fill:#E6252B;}
</style>
<g>
	<path class="st0" d="M348.2,68.6c-0.1,15.9,1,31.8,2.8,47.6c0.7,7.1,2,14.2,2,21.4c0,14.2-5.1,28.7-15.7,38.5
		c-15.6,14.7-38.4,16.9-58.8,16.1c-16.2-0.8-32.4-3.4-48.2-7c-52-12.1-110.9-30.1-159.4,1.5c0,0-0.8-0.9-0.8-0.9
		c14.5-15.9,36.2-25.2,57.8-27.6c36-4.4,71.4,6.5,105,17.7c25.5,8.9,54.1,19,80.5,8c21-9,30.4-31.6,29-53.5c-0.2-2.5-0.3-5-0.4-7.5
		c-0.8-18.2-0.1-36.9,5.1-54.5C347,68.4,348.2,68.6,348.2,68.6L348.2,68.6z"/>
	<g>
		<path class="st1" d="M100.9,116.8c1.2,1.9,2.1,3.6,2.6,5.3c0.6,1.6,1.1,3,1.6,4.2c0.6,1.3,1.2,2.3,1.9,3c0.7,0.7,1.3,1,2,1
			c0.6,0,1.3-0.4,1.9-1.2c0.6-0.8,1.2-1.9,1.8-3.5c0.5-1.3,0.9-2.6,1.2-3.8c0.3-1.2,0.5-2.3,0.8-3.3c0.3-1,0.6-1.9,1-2.7
			c0.4-0.8,0.9-1.5,1.7-2c0.8-0.6,1.8-1.1,2.9-1.3c1.1-0.2,2.3-0.2,3.3,0.1c1.1,0.2,2,0.7,2.8,1.4c0.8,0.7,1.3,1.6,1.4,2.8
			c0.2,0.9,0.3,2.1,0.5,3.6c0.2,1.5,0.4,3,0.6,4.7c0.2,1.7,0.4,3.4,0.6,5.1c0.2,1.7,0.4,3.3,0.6,4.8c0.2,1.5,0.3,2.8,0.4,3.8
			c0.1,1.1,0.2,1.8,0.2,2.1c0,0.3,0,0.6,0,1.1c0,0.5,0,1-0.1,1.5c-0.1,0.6-0.2,1.1-0.3,1.7c-0.1,0.6-0.4,1.2-0.7,1.7
			c-0.7,1.2-1.5,2.1-2.7,2.7c-1.1,0.6-2.3,0.8-3.5,0.7c-1.2-0.1-2.3-0.5-3.4-1.3c-1.1-0.7-1.9-1.8-2.5-3.1c-0.3-0.7-0.6-1.6-0.7-2.6
			c-0.2-1-0.3-2-0.4-3.1c-0.1-1.1-0.1-2.2-0.2-3.4c0-1.1-0.1-2.2-0.2-3.3c-0.8,1.8-1.7,3.3-2.7,4.4c-1,1.1-2.1,1.7-3.3,1.9
			c-1.2,0.2-2.4-0.1-3.6-0.8c-1.3-0.8-2.5-2.1-3.8-3.9c0.2,0.8,0.3,1.6,0.5,2.6c0.2,0.9,0.4,1.8,0.5,2.8c0.1,1,0.2,1.9,0.2,2.9
			c0,1,0,1.9-0.2,2.8c-0.3,1.4-0.8,2.6-1.5,3.5c-0.7,0.9-1.5,1.6-2.4,2c-0.9,0.4-1.9,0.6-2.9,0.5c-1-0.1-2-0.4-2.9-0.9
			c-0.9-0.5-1.7-1.3-2.4-2.3c-0.7-1-1.2-2.2-1.4-3.6c-0.3-1.7-0.6-3.7-0.8-6.1c-0.3-2.4-0.5-4.9-0.6-7.3c-0.2-2.5-0.2-4.9-0.2-7.1
			c0-2.2,0.1-4,0.3-5.4c0.1-1.2,0.7-2.3,1.7-3.3c1-0.9,2.2-1.6,3.6-1.9c1.2-0.3,2.4-0.2,3.6,0.3C99.1,114.9,100.1,115.7,100.9,116.8
			z"/>
		<path class="st1" d="M151.4,112.2c1.1,0,2.1,0.3,2.9,0.7c0.9,0.4,1.6,1,2.3,1.7c0.7,0.7,1.3,1.5,1.9,2.4c0.5,0.9,1,1.8,1.5,2.7
			c0.7,1.5,1.5,3.3,2.2,5.2c0.8,1.9,1.5,3.9,2.2,6c0.7,2,1.3,4,1.8,5.9c0.5,1.9,0.9,3.6,1.2,5c0.3,1.3,0.3,2.4,0.2,3.3
			c-0.2,0.9-0.5,1.8-0.9,2.4c-0.4,0.6-0.8,1.1-1.3,1.6c-0.5,0.5-1.1,0.9-1.7,1.2c-0.6,0.3-1.3,0.5-2,0.6c-0.7,0.1-1.4,0.1-2.2-0.1
			c-0.8-0.2-1.5-0.5-2.1-0.9c-0.6-0.4-1.1-0.9-1.5-1.5c-0.4-0.5-0.8-1.1-1.1-1.7c-0.3-0.6-0.5-1.2-0.7-1.7c-2.4-0.1-4.9-0.2-7.3-0.3
			c-0.2,0.5-0.5,1-0.8,1.6c-0.3,0.5-0.7,1.1-1.1,1.6c-0.4,0.5-0.9,0.9-1.5,1.3c-0.6,0.4-1.2,0.7-2,0.8c-1.5,0.3-2.9,0.1-4.3-0.5
			c-1.3-0.6-2.4-1.7-3.1-3.2c-0.4-0.7-0.6-1.5-0.7-2.5c-0.1-1,0-2.1,0.4-3.4c0.4-1.3,0.9-2.9,1.5-4.7c0.6-1.8,1.3-3.7,2-5.6
			c0.7-1.9,1.5-3.8,2.4-5.6c0.8-1.8,1.6-3.5,2.4-5c0.4-0.9,0.9-1.7,1.5-2.6c0.6-0.9,1.2-1.6,1.9-2.3c0.7-0.7,1.6-1.3,2.6-1.7
			C149,112.5,150.1,112.2,151.4,112.2z M150.4,138.5c0.6,0,1.1-0.1,1.7-0.3c0.6-0.2,1-0.5,1.4-0.8c0.4-0.4,0.7-0.8,1-1.3
			c0.3-0.5,0.4-1,0.4-1.6c0-0.6-0.1-1.1-0.3-1.7c-0.2-0.5-0.5-1-0.9-1.4c-0.4-0.4-0.9-0.7-1.4-1c-0.6-0.2-1.1-0.4-1.7-0.4
			c-0.7,0-1.3,0.1-1.8,0.3c-0.5,0.2-1,0.5-1.5,0.9c-0.4,0.4-0.8,0.8-1,1.3c-0.2,0.5-0.4,1.1-0.4,1.6c0,0.6,0.1,1.1,0.3,1.6
			c0.2,0.5,0.5,1,0.9,1.4c0.4,0.4,0.9,0.7,1.4,0.9C149.1,138.4,149.7,138.5,150.4,138.5z"/>
		<path class="st1" d="M199.5,153.9c-0.7,0.7-1.5,1.2-2.5,1.5c-0.9,0.3-1.9,0.3-3,0c-1.3-0.3-2.4-0.8-3.4-1.6
			c-1-0.8-1.9-1.7-2.7-2.8c-0.8-1.1-1.5-2.2-2.1-3.4c-0.6-1.2-1.2-2.4-1.7-3.5c-0.2,0-0.4-0.1-0.5-0.1c0,0.1,0,0.2,0,0.3
			c0,0.4-0.1,0.8-0.2,1.4c-0.1,0.6-0.2,1.2-0.4,1.8c-0.2,0.7-0.5,1.3-0.9,2c-0.4,0.6-0.9,1.2-1.5,1.7c-0.7,0.5-1.4,0.9-2.2,1.1
			c-0.8,0.2-1.6,0.2-2.4,0.2c-0.8-0.1-1.6-0.3-2.3-0.7c-0.8-0.4-1.4-0.9-2-1.5c-0.6-0.6-1.2-1.4-1.6-2.4c-0.4-1-0.6-2.2-0.6-3.7
			c0.1-1.2,0.2-2.6,0.3-4.2c0.1-1.6,0.3-3.2,0.4-4.9c0.2-1.7,0.4-3.4,0.6-5.2c0.2-1.7,0.4-3.3,0.7-4.8c0.3-1.5,0.5-2.9,0.8-4
			c0.3-1.2,0.6-2.1,1-2.7c0.4-0.8,0.9-1.4,1.5-1.8c0.6-0.4,1.3-0.7,2-1c0.8-0.2,1.6-0.3,2.4-0.4c0.8-0.1,1.7-0.1,2.7-0.1
			c1.7,0,3.7,0.1,5.9,0.3c2.2,0.2,4.4,0.7,6.5,1.3c2.1,0.7,4.1,1.6,5.9,2.8c1.8,1.2,3.1,2.7,3.9,4.6c0.5,1.2,0.9,2.5,1,3.8
			c0.1,1.3,0.1,2.7-0.2,4c-0.2,1.3-0.7,2.6-1.3,3.8c-0.6,1.2-1.4,2.3-2.4,3.2c-1,0.9-2.1,1.7-3.4,2.2c-1.3,0.6-2.8,0.9-4.4,0.9
			c0.5,0.8,1.2,1.5,2.2,2.3c1,0.8,2,1.5,3,2.1c1.8,1.2,2.7,2.4,2.8,3.7C201.3,151.3,200.7,152.6,199.5,153.9z M189.1,134.3
			c0.6,0.1,1.1,0.1,1.7-0.1c0.6-0.1,1-0.4,1.5-0.6c0.4-0.3,0.8-0.7,1.1-1.1c0.3-0.4,0.5-0.9,0.5-1.4c0.2-1.1-0.1-2.1-0.9-3
			c-0.7-0.9-1.7-1.4-2.9-1.6c-1.2-0.2-2.3,0.1-3.2,0.7c-0.9,0.7-1.4,1.5-1.6,2.6c-0.1,1.1,0.2,2,0.9,2.9
			C187,133.6,187.9,134.1,189.1,134.3z"/>
		<path class="st1" d="M217.2,134.1c-0.8,0-1.5,0-2.1,0.1c-0.5,0.1-0.9,0.1-1.1,0.2c-0.3,0-0.9,0-1.6-0.1c-0.8-0.1-1.5-0.4-2.3-0.8
			c-0.8-0.4-1.4-1-2-1.8c-0.6-0.8-0.8-1.8-0.7-3.1c0.1-1.1,0.4-2,0.8-2.7c0.4-0.7,0.9-1.3,1.4-1.8c0.5-0.5,1.1-0.9,1.7-1.1
			c0.6-0.3,1.1-0.5,1.6-0.6c0.7-0.2,1.6-0.4,2.6-0.5c1-0.1,2.3-0.2,3.7-0.1c1.4,0.1,3.1,0.2,4.8,0.5c1.8,0.3,3.8,0.8,5.9,1.5
			c2.2,0.8,4.1,1.7,5.8,2.7c1.7,1,3,2.1,4,3.2c1,1.1,1.7,2.2,2,3.4c0.4,1.1,0.4,2.2,0.1,3.1c-0.3,1-0.8,1.7-1.5,2.3
			c-0.7,0.6-1.5,1-2.6,1.1c-1,0.1-2.3,0-3.7-0.3c-1.4-0.4-3-1-4.8-2c-0.1-0.1-0.1-0.1-0.2-0.1c-0.1,0-0.2-0.1-0.3-0.1
			c-0.2,1.6-0.4,3.4-0.6,5.2c-0.3,1.8-0.5,3.5-0.8,5.2c-0.3,1.6-0.5,3-0.7,4.2c-0.2,1.2-0.4,2-0.5,2.3c-0.1,0.3-0.2,0.7-0.3,1.1
			c-0.1,0.4-0.3,0.9-0.5,1.4c-0.2,0.5-0.5,1-0.8,1.5c-0.3,0.5-0.8,0.9-1.3,1.3c-0.7,0.6-1.5,1-2.4,1.1c-0.9,0.2-1.8,0.2-2.7,0
			c-0.9-0.2-1.8-0.5-2.6-1c-0.8-0.5-1.5-1.1-2.1-2c-0.5-0.6-0.8-1.4-1.1-2.3c-0.3-0.9-0.3-2-0.1-3.3c0.2-1.1,0.4-2.4,0.8-3.9
			c0.3-1.5,0.7-3,1.2-4.6c0.4-1.6,0.9-3.2,1.4-4.8C216.1,136.9,216.7,135.4,217.2,134.1z"/>
	</g>
	<g>
		<path class="st0" d="M53.7,121.9c-2.2-10.7-4.3-21.4-6.5-32.1C32.7,69.5,17.2,49,0.6,28.5c-0.2-0.4-0.3-0.8-0.5-1.2
			C-1.7,20.3,15,10.9,26,9.2c3.7-0.6,6.7-0.3,8.1,0.9c7.5,11.1,14.7,22.1,21.7,33.1c2.6-12.5,5.5-24.9,8.6-37.2
			c0.9-1.5,3.6-2.5,7.3-2.9c10.9-1.2,29.8,3.1,30.5,9.6c0,0.4,0,0.8,0,1.2c-8.6,20-16.3,40.8-23,62.2c1.5,11.8,2.9,23.7,4.5,35.5
			c0.6,5.7-8.1,10.4-16.1,12.4C60.8,125.7,54.5,125.4,53.7,121.9z"/>
		<path class="st0" d="M147,108.1c-5.9-0.5-10.9-2.3-15.1-5.4c-4.2-2.9-7.4-7-9.8-12.4c-2.6-5.9-3.6-11.8-4.3-18.1
			c-0.2-2-0.4-4-0.7-6c-0.1-2.7-0.5-6.3-0.9-10.9c-0.5-4.6-1-10.9-1.5-18.9c-0.7-9.5-1.4-19.1-2.1-28.6c-0.5-4.6,6.9-7.6,14.9-7.9
			c9-0.3,18.9,2.9,19.3,10.8c0,0.7,0,1.4-0.1,2.1c-0.1,5.8-3.1,29.1-1.8,46.7c0.7,10.3,2.8,18.8,7.4,20.2c1.2,0.4,2.2,0.5,3.2,0.4
			c8.1-0.6,9.4-16.5,8.8-32.7c-0.6-14.9-3-30.1-3.3-33.3c0.1-6.7,7.4-9.9,15.5-9.6c6.7,0.2,13.5,2.8,17,7.2
			c0.3,11.6,0.8,20.8,1,27.9c0.1,8.3,0.3,16.5,0.4,24.8c0,4.6-0.2,9.2-1.2,13.9c-0.7,4.3-2.2,8.2-4.3,11.7c-2.1,3.5-5,6.6-8.5,9.3
			c-3.6,2.7-7.9,4.7-13.3,6.3c-4.4,1.2-8.4,1.9-12,2.2C152.6,108.3,149.8,108.5,147,108.1z"/>
		<path class="st0" d="M299.5,104.6c-2.7-11.2-5.5-22.5-8.6-34C277,87.5,270,97.8,263.5,97.2c-6.2-0.5-11.7-10.5-22.7-33.6
			c-5.2,11.7-10.2,23.7-14.9,35.9c-1.4,4.1-5.6,5.8-10.3,5.8c-7.1,0.1-15.7-3.8-15.7-8.5c0.1-0.4,0.1-0.8,0.2-1.2
			c7.1-28.6,15.2-56.5,24.2-83.5c1.6-4.1,12.3-6.1,20.6-5c4.6,0.6,8.4,2,9.7,4.4c10.4,21.3,12.4,30.7,15.6,31.2
			c3.2,0.5,6.8-9.1,20.6-25.2c1.8-1.8,5.7-1.9,10.3-0.9c8.2,1.7,18.2,6.9,18.9,11c2.8,26.4,4.8,52.2,6.1,77.3c0,0.4,0,0.7-0.1,1.1
			c-0.9,4-10.3,6.1-17.4,5.2C303.8,110.5,300,108.5,299.5,104.6z"/>
	</g>
	<g>
		<g>
			<path class="st2" d="M254.6,145.6c-2.7,0-5.1-1.9-5.7-4.6l-5.5-24.1c-0.4-1.7,0-3.5,1.1-4.9c1.1-1.4,2.7-2.2,4.4-2.3l76.5-3.2
				c1,0,1.9,0.3,2.7,1s1.1,1.6,1.1,2.6v12.9c0,5.5-2.1,10.6-5.9,14.5c-3.8,3.9-8.9,6.2-14.4,6.3l0,0l-54.1,1.6
				C254.7,145.6,254.7,145.6,254.6,145.6z M308.8,140.3L308.8,140.3L308.8,140.3z M250.8,116.9l4.9,21.4l53-1.6
				c7.4-0.2,13.2-6.2,13.2-13.6V114L250.8,116.9z"/>
		</g>
		<g>
			<circle class="st2" cx="321.9" cy="159.7" r="8"/>
		</g>
		<g>
			<circle class="st2" cx="272.2" cy="159.5" r="10.4"/>
		</g>
		<path class="st2" d="M257.7,147.2l0-0.2l-10.1-43.9c-0.7-4.8-4-8.8-8.6-10.5l-11.1-4c-1.9-0.7-4,0.3-4.6,2.2
			c-0.7,1.9,0.3,4,2.2,4.6l11.1,4c2.1,0.8,3.6,2.6,3.9,4.8l0,0.2l10.1,43.9c0.8,5.3,4.8,9.6,9.9,10.9c0-2.6,0.9-5,2.4-6.9
			C260.2,152,258.1,149.9,257.7,147.2z"/>
		<path class="st2" d="M316.6,152.4h-35c1.5,2,2.4,4.4,2.4,7.1c0,0.1,0,0.1,0,0.2h29C312.9,156.7,314.4,154.1,316.6,152.4z"/>
		<g>
			<path class="st2" d="M265.4,142.3c-0.3,0-0.6-0.2-0.7-0.6l-5.9-28.7c-0.1-0.4,0.2-0.8,0.6-0.9c0.4-0.1,0.8,0.2,0.9,0.6l5.9,28.7
				c0.1,0.4-0.2,0.8-0.6,0.9C265.5,142.3,265.4,142.3,265.4,142.3z"/>
		</g>
		<g>
			<path class="st2" d="M274.1,142.1c-0.3,0-0.6-0.2-0.7-0.6l-5.1-28.4c-0.1-0.4,0.2-0.8,0.6-0.8c0.4-0.1,0.8,0.2,0.8,0.6l5.1,28.4
				c0.1,0.4-0.2,0.8-0.6,0.8C274.1,142.1,274.1,142.1,274.1,142.1z"/>
		</g>
		<g>
			<path class="st2" d="M282.7,142.7c-0.3,0-0.7-0.3-0.7-0.6l-4.7-29c-0.1-0.4,0.2-0.8,0.6-0.8c0.4-0.1,0.8,0.2,0.8,0.6l4.7,29
				c0.1,0.4-0.2,0.8-0.6,0.8C282.7,142.7,282.7,142.7,282.7,142.7z"/>
		</g>
		<g>
			<path class="st2" d="M291.1,142.1c-0.4,0-0.7-0.3-0.7-0.6L286,113c-0.1-0.4,0.2-0.8,0.6-0.8c0.4-0.1,0.8,0.2,0.8,0.6l4.4,28.4
				c0.1,0.4-0.2,0.8-0.6,0.8C291.2,142.1,291.2,142.1,291.1,142.1z"/>
		</g>
		<g>
			<path class="st2" d="M299.6,142.1c-0.4,0-0.7-0.3-0.7-0.6l-4.4-28.4c-0.1-0.4,0.2-0.8,0.6-0.8c0.4-0.1,0.8,0.2,0.8,0.6l4.4,28.4
				c0.1,0.4-0.2,0.8-0.6,0.8C299.7,142.1,299.6,142.1,299.6,142.1z"/>
		</g>
		<g>
			<path class="st2" d="M308.3,142.1c-0.4,0-0.7-0.3-0.7-0.6l-4.4-28.4c-0.1-0.4,0.2-0.8,0.6-0.8c0.4-0.1,0.8,0.2,0.8,0.6l4.4,28.4
				c0.1,0.4-0.2,0.8-0.6,0.8C308.4,142.1,308.3,142.1,308.3,142.1z"/>
		</g>
		<g>
			<path class="st2" d="M316.8,142.1c-0.4,0-0.7-0.3-0.7-0.6l-4.4-28.4c-0.1-0.4,0.2-0.8,0.6-0.8c0.4-0.1,0.8,0.2,0.8,0.6l4.4,28.4
				c0.1,0.4-0.2,0.8-0.6,0.8C316.9,142.1,316.8,142.1,316.8,142.1z"/>
		</g>
	</g>
</g>
</svg>
