<?xml version="1.0" encoding="utf-8"?>
<!-- Generator: Adobe Illustrator 25.1.0, SVG Export Plug-In . SVG Version: 6.00 Build 0)  -->
<svg version="1.1" id="Layer_1" xmlns="http://www.w3.org/2000/svg" xmlns:xlink="http://www.w3.org/1999/xlink" x="0px" y="0px"
	 viewBox="0 0 1894.5 549.2" style="enable-background:new 0 0 1894.5 549.2;" xml:space="preserve">
<style type="text/css">
	.st0{fill:#FE5F50;}
	.st1{fill:#006196;}
	.st2{fill:#2BA8E0;}
	.st3{fill:#6ECFF5;}
</style>
<g>
	<g>
		<path d="M205.1,224.5h-1.4l-1.8,0.4c-1.4,0.3-3.8,0.4-7.2,0.4c-17.3,0-33.1-4-47.3-12c-14.2-8-25.5-19.1-33.8-33.5
			S101,149.2,101,131c0-19.6,4.4-37.1,13-52.5s20.8-27.5,36.5-36.2c15.6-8.7,33.4-13,53.4-13c22.2,0,40.9,4.4,56.4,13.2
			c15.5,8.8,27.1,20.4,34.8,34.6c7.9,14.2,11.7,29.4,11.7,45.6c0,14.9-1.9,28.4-5.6,40.4s-9.7,25.2-17.9,39.7l-60,108.2h-67.1
			L205.1,224.5z M167.8,163.5c8.9,8.3,20,12.5,33.2,12.5c8.4,0,16.3-2,23.5-6s13-9.5,17.2-16.3c4.2-6.9,6.3-14.3,6.3-22.3
			c0-13.6-4.4-24.7-13-33.8c-8.7-8.9-20-13.4-33.9-13.4c-13.5,0-24.7,4.6-33.4,13.8c-8.8,9.2-13.2,20.2-13.2,33.1
			C154.5,144.3,159,155.2,167.8,163.5z"/>
		<path d="M398,224.5h-1.4l-1.8,0.4c-1.4,0.3-3.8,0.4-7.2,0.4c-17.3,0-33.1-4-47.3-12c-14.2-8-25.5-19.1-33.8-33.5
			S294,149.2,294,131c0-19.6,4.4-37.1,13-52.5c8.7-15.5,20.8-27.5,36.5-36.2c15.6-8.7,33.4-13,53.4-13c22.2,0,40.9,4.4,56.4,13.2
			c15.5,8.8,27.1,20.4,34.8,34.6c7.9,14.2,11.7,29.4,11.7,45.6c0,14.9-1.9,28.4-5.6,40.4c-3.8,12-9.7,25.2-17.9,39.7l-60,108.2
			h-67.2L398,224.5z M360.9,163.5c8.9,8.3,20,12.5,33.2,12.5c8.4,0,16.3-2,23.5-6s13-9.5,17.2-16.3c4.2-6.9,6.3-14.3,6.3-22.3
			c0-13.6-4.4-24.7-13-33.8c-8.7-8.9-20-13.4-33.9-13.4c-13.5,0-24.7,4.6-33.4,13.8s-13.2,20.2-13.2,33.1
			C347.5,144.3,351.9,155.2,360.9,163.5z"/>
	</g>
	<g>
		<g>
			<path class="st0" d="M567.9,295.4c-13.5-8.8-23.9-20.5-31.2-34.9c-7.3-14.5-11-30-11-46.8c0-18.8,3.8-35.6,11.6-50.7
				c7.8-15,18.5-26.8,32.2-35.4s29.1-12.9,46.2-12.9c11,0,20.1,1.3,27.2,3.8c7.1,2.6,13.3,7.5,18.7,14.7h1.3V41.6h53.2v263h-53.2
				v-22.2h-1.3c-2.7,8.6-8.1,15.1-16.3,19.6c-8.2,4.5-18.5,6.7-30.8,6.7C596.8,308.6,581.4,304.3,567.9,295.4z M589.9,245.7
				c7.8,8.9,18.5,13.5,32.2,13.5c13.9,0,24.7-4.5,32.5-13.3c7.8-8.8,11.6-20.4,11.6-34.4c0-14.1-3.8-25.6-11.6-34.6
				c-7.8-8.9-18.6-13.5-32.5-13.5c-13.8,0-24.5,4.6-32.2,13.7c-7.7,9.1-11.6,20.5-11.6,34.4C578.3,225.2,582.2,236.6,589.9,245.7z"
				/>
			<path class="st0" d="M790.6,296.7c-14.5-8-26.2-19.3-34.9-33.9c-8.8-14.7-13.1-31.4-13.1-50.6c0-18.9,4.2-35.7,12.5-50.6
				c8.3-14.8,19.7-26.4,34-34.6c14.4-8.2,30.4-12.3,47.9-12.3c18.7,0,34.6,4.2,47.7,12.7c13.1,8.4,23,20,29.7,34.8
				s9.9,31.3,9.9,49.8c0,3.4-0.4,9-1,16.9H793.5c0.9,9.5,5.8,17.1,14.8,22.8s19.7,8.6,32.1,8.6c8.1,0,15.8-0.9,23.1-2.7
				c7.3-1.8,14.5-5.1,21.4-9.7l30.4,31.4c-9.2,9.5-20.4,16.7-33.6,21.9c-13.2,5.2-27.8,7.8-44,7.8
				C820.7,308.6,805.1,304.6,790.6,296.7z M873.3,189.3c-0.9-8.3-4.8-15.2-11.8-20.5c-7-5.4-15.5-8.1-25.6-8.1
				c-11.4,0-21,2.6-28.5,7.8c-7.5,5.2-12.3,12.2-14.3,20.9L873.3,189.3L873.3,189.3z"/>
			<path class="st0" d="M980.1,300.6c-13.4-5.4-24.6-12.5-33.6-21.3l31.4-31.4c7.9,7.2,15.8,12.1,23.8,14.5c8,2.5,16.3,3.8,25.1,3.8
				c5.2,0,10.1-1.1,14.8-3.2c4.7-2.1,7.1-5.8,7.1-11s-2.3-8.8-6.9-11c-4.6-2.1-12-4.3-22.1-6.6l-10.1-2.1
				c-19.6-4.3-34-11.3-43.5-21.3s-14.2-21.4-14.2-34.4c0-12.3,3.6-23.2,10.6-32.7c7.1-9.5,16.6-16.7,28.7-21.7
				c12.1-5.1,25.2-7.6,39.6-7.6c11,0,22.4,2,34.2,5.9c11.8,3.9,22.1,10.7,30.8,20.4l-31,31c-10.1-10.1-21.4-15.2-34-15.2
				c-8.3,0-14.7,1.3-19.4,4c-4.6,2.7-6.9,6.6-6.9,11.8c0,3.4,2.2,6.4,6.6,9.3c4.4,2.8,12.1,5.4,23.1,8l7.1,1.7
				c19.1,4.3,33.9,11.2,44.3,20.5c10.5,9.5,15.7,21.6,15.7,36.5c0,11.7-3.6,22.1-10.8,31.2c-7.2,9.1-16.6,16.2-28.1,21.3
				c-11.6,5.1-23.8,7.6-36.6,7.6C1008.7,308.6,993.4,306,980.1,300.6z"/>
			<path class="st0" d="M1132,55.3c6.1-6,13.2-8.9,21.6-8.9c8.6,0,15.8,2.9,21.7,8.9c6,6,8.9,13.2,8.9,21.7c0,8.3-2.9,15.5-8.9,21.6
				c-6,6.1-13.2,9.1-21.7,9.1c-8.3,0-15.5-3-21.6-9.1c-6.1-6.1-9.1-13.2-9.1-21.6C1122.8,68.5,1125.9,61.2,1132,55.3z M1127,120.5
				h53.2v184.1H1127V120.5z"/>
			<path class="st0" d="M1255.9,384.5c-16.5-5.6-29.4-12.8-38.6-21.6l33.7-33.7c7.9,5.6,15.5,9.6,23,12.2c7.4,2.5,17.1,3.8,29,3.8
				c8.1,0,15.4-1.9,21.7-5.7c6.4-3.8,11.3-8.8,14.7-14.7c3.4-6,5.1-12.3,5.1-19v-23.2h-1.3c-2.7,8.6-8.2,15.1-16.5,19.6
				c-8.3,4.5-19.2,6.7-32.7,6.7c-16,0-30.6-4.2-43.9-12.7c-13.2-8.5-23.8-20-31.4-34.6c-7.7-14.6-11.4-30.5-11.4-47.6
				c0-18.8,3.8-35.6,11.6-50.7c7.8-15,18.5-26.8,32.2-35.4c13.7-8.6,29.1-12.9,46.2-12.9c11,0,20.1,1.4,27.2,4.4
				c7.1,2.9,13.3,8,18.7,15.2h1.3v-13.8h53.2v184.8c0,15.1-3.8,29.3-11.2,42.8s-18.2,24.3-32.5,32.5c-14.3,8.2-31.2,12.3-50.7,12.3
				C1288.2,393,1272.4,390.1,1255.9,384.5z M1271.4,245.7c7.8,8.9,18.5,13.5,32.2,13.5c13.9,0,24.7-4.5,32.5-13.3
				s11.6-20.4,11.6-34.4c0-14.1-3.8-25.6-11.6-34.6c-7.8-8.9-18.6-13.5-32.5-13.5c-13.8,0-24.5,4.6-32.2,13.7
				c-7.8,9.1-11.6,20.5-11.6,34.4C1259.8,225.2,1263.6,236.6,1271.4,245.7z"/>
			<path class="st0" d="M1592.6,131.9c11.9,11.4,17.9,27.6,17.9,48.5v124.2h-53.2V200.9c0-15.5-2.9-26.2-8.8-32.1
				c-5.8-5.9-13.5-8.8-23-8.8c-28.1,0-42.2,15.3-42.2,45.7v98.9h-53.2V120.5h53.2v29.7h1.3c5.6-9.9,13.5-18.2,23.6-25.1
				c10.1-6.9,21.7-10.3,34.8-10.3C1564.1,114.8,1580.6,120.5,1592.6,131.9z"/>
			<path class="st0" d="M1672.3,300.6c-13.4-5.4-24.6-12.5-33.6-21.3L1670,248c7.9,7.2,15.8,12.1,23.8,14.5c8,2.5,16.3,3.8,25.1,3.8
				c5.2,0,10.1-1.1,14.8-3.2c4.7-2.1,7.1-5.8,7.1-11s-2.3-8.8-6.9-11c-4.6-2.1-12-4.3-22.1-6.6l-10.1-2.1
				c-19.6-4.3-34-11.3-43.5-21.3c-9.5-9.9-14.2-21.4-14.2-34.4c0-12.3,3.6-23.2,10.6-32.7c7.1-9.5,16.6-16.7,28.7-21.7
				c12.1-5.1,25.2-7.6,39.6-7.6c11,0,22.4,2,34.2,5.9c11.8,3.9,22.1,10.7,30.8,20.4l-31,31c-10.1-10.1-21.4-15.2-34-15.2
				c-8.3,0-14.7,1.3-19.4,4c-4.6,2.7-6.9,6.6-6.9,11.8c0,3.4,2.2,6.4,6.6,9.3c4.4,2.8,12.1,5.4,23.1,8l7.1,1.7
				c19.1,4.3,33.9,11.2,44.3,20.5c10.5,9.5,15.7,21.6,15.7,36.5c0,11.7-3.6,22.1-10.8,31.2c-7.2,9.1-16.6,16.2-28.1,21.3
				c-11.6,5.1-23.8,7.6-36.6,7.6C1701,308.6,1685.7,306,1672.3,300.6z"/>
		</g>
	</g>
	<g>
		<g>
			<path d="M154.1,362.9h20.1v122.3h-20.1V362.9z M168.4,420c3.1-6.7,7.4-12,13-15.8c5.6-3.8,12.2-5.7,19.7-5.7c7.3,0,14,2,20.2,5.8
				c6.1,3.8,10.9,9.1,14.4,15.9c3.5,6.7,5.2,14.2,5.2,22.3c0,8.3-1.7,15.8-5.2,22.6c-3.5,6.8-8.2,12.1-14.4,16
				c-6.2,3.8-12.9,5.8-20.2,5.8c-7.4,0-14-1.9-19.7-5.7c-5.6-3.8-10-9-13-15.8c-3.1-6.7-4.6-14.3-4.6-22.6
				C163.9,434.3,165.4,426.8,168.4,420z M177.3,455.4c2.1,3.8,4.7,6.9,8.2,9c3.5,2.1,7.3,3.2,11.7,3.2c4.3,0,8.1-1.1,11.6-3.2
				c3.5-2.1,6.2-5.2,8.2-9c2.1-3.8,3-8.1,3-12.7c0-4.6-1-8.8-3-12.7c-2.1-3.8-4.7-6.9-8.2-9.1c-3.5-2.2-7.3-3.3-11.7-3.3
				c-4.3,0-8.1,1.1-11.6,3.3c-3.5,2.2-6.2,5.3-8.2,9.1s-3,8.1-3,12.7C174.2,447.4,175.2,451.6,177.3,455.4z"/>
			<path d="M275.1,488l-33.9-87.8H263l30.6,85h-15.2l30.5-85h20.5l-45.8,118h-20.5L275.1,488z"/>
		</g>
	</g>
	<g>
		<g>
			<path d="M678.5,405.1l-32.1,78.4h-20.2L594,405.1h20.3l10.4,25.8l11.6,32.9l11.4-32.6l10.4-26.1L678.5,405.1L678.5,405.1z"/>
			<path d="M710.6,383.2c0,15-22,15-22,0C688.7,368.2,710.6,368.2,710.6,383.2z M690.4,404.9v78.3H709v-78.3H690.4z"/>
			<path d="M776.5,425.9c-5.4-5.2-11.4-7-18.7-7c-8.8,0-13.8,2.9-13.8,7.8c0,5.1,4.5,8,14,8.6c14.2,1,32.3,4.3,32.3,25
				c0,13.8-10.8,25.6-32.3,25.6c-11.9,0-23.9-2.1-34.8-13.9l9.2-13.8c7.1,7.8,17.6,10.7,26,10.9c7.1,0.2,13.6-2.9,13.6-8.6
				c0-5.4-4.3-8.4-15-9c-14.2-1.1-31.2-6.5-31.2-24.2c0-18,18-24.4,31.8-24.4c11.8,0,20.6,2.4,29.3,10.3L776.5,425.9z"/>
			<path d="M832,383.2v22.2h20.7V422h-20.9v33.7c0,7.4,3.9,11.1,9.7,11.1c2.9,0,6.3-1,9-2.4l5.2,16.4c-5.4,2.2-9.7,3.1-15.5,3.3
				c-16.3,0.6-27.1-9-27.1-28.5v-33.7h-14v-16.5h14v-20.1L832,383.2z"/>
			<path d="M927.8,405.2h17.9v78h-17.6l-0.9-11.3c-4.3,9.2-16,13.6-24.4,13.8c-22.3,0.2-38.8-14.1-38.8-41.5
				c0-26.9,17.2-41,39.2-40.8c10.1,0,19.7,4.9,23.9,12.7L927.8,405.2z M882.6,444.2c0,14.8,9.9,23.8,22.3,23.8
				c29.3,0,29.3-47.3,0-47.3C892.5,420.6,882.6,429.2,882.6,444.2z"/>
		</g>
	</g>
	<g>
		<polygon class="st1" points="562.9,368.7 476,519.9 439,454.3 513.6,454.3 476.3,388.4 487.6,368.7 		"/>
		<polygon class="st2" points="513.6,454.3 439,454.3 476.3,388.4 		"/>
		<polygon class="st3" points="476.3,388.4 439,454.3 439,454.3 389.7,368.7 465,368.7 		"/>
	</g>
</g>
</svg>
