<?xml version="1.0" encoding="utf-8"?>
<!-- Generator: Adobe Illustrator 25.1.0, SVG Export Plug-In . SVG Version: 6.00 Build 0)  -->
<svg version="1.1" id="Layer_1" xmlns="http://www.w3.org/2000/svg" xmlns:xlink="http://www.w3.org/1999/xlink" x="0px" y="0px"
	 viewBox="0 0 925.4 282.1" style="enable-background:new 0 0 925.4 282.1;" xml:space="preserve">
<style type="text/css">
	.st0{fill:#221F1F;}
	.st1{fill:#36B24A;}
</style>
<g id="XMLID_452_">
	<path id="XMLID_459_" class="st0" d="M301.5,104.3c-0.7-0.1-1.2,0-1.9,0c-23.9,0-47.8,0-71.7,0c-0.6,0-1.2,0-1.8,0
		c-1.6-0.1-1.9-0.3-1.9-1.8c0-2.1-0.1-4.2,0-6.3c0.2-5.4,3.5-9.9,8.6-11.7c2-0.7,4-1,6.1-1c7.3,0,14.7,0,21.9,0
		c1.8,0,1.9-0.1,1.9-1.9c0-10.1,0-20.2,0-30.3c0-1.6-0.2-1.8-1.8-1.9c-0.5,0-1,0-1.4,0c-8.9,0-17.9,0-26.8,0
		c-5.5-0.1-10.9,0.7-16.3,2.1c-6.8,2-13,5.1-18.3,10c-9,8.3-13.3,18.6-13.7,30.7c-0.1,3.4,0,6.8,0,10.3c0,1.6-0.3,1.8-1.8,1.9
		c-0.5,0-1,0-1.4,0c-5.6,0-11.3,0-16.9,0c-2.9,0-2.9,0-2.9,2.9c0,9.5,0,19,0,28.6c0,0.4,0,0.7,0,1.1c0.1,1.5,0.3,1.7,1.8,1.8
		c0.5,0,1,0,1.4,0c5.7,0,11.4,0,17.1,0c0.5,0,1,0,1.6,0.1c0.8,0.1,1.2,0.5,1.2,1.2c0,0.7,0.1,1.4,0.1,2c0,28.5,0,56.9,0,85.4
		c0,2.5,0,2.5,2.5,2.5c11.4,0,22.7,0,34.1,0c3.6,0,3.2-0.2,3.2-3.3c0-28.4,0-56.8,0-85.2c0-2.7,0-2.7,2.7-2.7c11,0,22,0,33,0
		c2.8,0,2.8,0,2.8,2.8c0,14.3,0,28.5,0,42.8c0,14.4,0,28.7,0,43.1c0,2.5,0,2.6,2.5,2.6c11.7,0,23.2,0,34.9,0c2.7,0,2.7,0,2.7-2.6
		c0-40.1,0-80.2,0-120.3c0-0.4,0-0.8,0-1.2C302.8,104.6,302.6,104.3,301.5,104.3z"/>
	<path id="XMLID_458_" class="st0" d="M714.4,116.1c0.2-3.1,0.1-6.3,0.1-9.4c0-0.5,0-1-0.1-1.4c-0.1-0.5-0.4-0.8-0.9-0.9
		c-0.5-0.1-1-0.1-1.4-0.1c-3.5,0-7,0-10.4,0c-2.7,0-5.3,0.2-8,0.6c-5.6,0.9-10.5,3.1-14.5,7.3c-2.5,2.7-4.5,5.7-6.1,8.9
		c-0.3,0.5-0.4,1-0.9,1.4c-0.3-0.7-0.2-1.2-0.2-1.8c0-4.6,0-9.1,0-13.5c0-0.4,0-0.8,0-1.2c-0.1-1.3-0.3-1.6-1.6-1.6
		c-0.5,0-1,0-1.6,0c-8,0-16-0.1-24,0c-8.7,0.1-17.5-0.3-26.2,0.3c-2.9,0.2-5.9,0.7-8.7,1.7c-6.3,2.2-10.6,6.6-13.9,12.2
		c-0.7,1.2-1.4,2.5-2.2,3.9c-0.3-0.8-0.2-1.4-0.2-2c0-4.5,0-9.1,0-13.5c0-2.5,0-2.5-2.5-2.5c-11.9,0-23.7,0-35.6,0
		c-0.4,0-0.7,0-1.1,0c-1.2,0.1-1.5,0.3-1.6,1.5c0,0.5,0,1,0,1.6c0,39.7,0,79.4,0,119.2c0,0.5,0,1,0,1.6c0.1,1.3,0.3,1.6,1.6,1.6
		c0.3,0,0.5,0,0.8,0c12,0,24,0,36,0c2.2,0,2.3-0.1,2.3-2.3c0-0.6,0-1.2,0-1.8c0-20.3,0-40.6,0-60.9c0-4,0.5-7.9,1.7-11.7
		c1-3.3,2.5-6.3,4.9-8.9c3.5-3.8,7.8-5.6,12.9-5.7c5.4-0.1,10.9,0,16.3,0c2,0,2.1,0.2,2.1,2.2c0,0.6,0,1.2,0,1.8
		c0,28.1,0,56.2,0,84.3c0,3,0,3,2.9,3c11.6,0,23.2,0,34.8,0c2.8,0,2.8,0,2.8-2.8c0-17.1,0-34.3,0-51.4c0-4.5-0.2-8.9,0.3-13.4
		c0.2-2.3,0.5-4.7,1-7c0.8-3.6,2.3-7.1,4.7-10c3.6-4.3,8.2-6.4,13.8-6.5c6.4-0.1,13,0,19.4,0c0.5,0,1,0,1.6-0.1
		c0.7-0.1,1.2-0.5,1.2-1.2c0-1.6,0.3-3.3,0.3-4.9C714.2,127,714.1,121.6,714.4,116.1z"/>
	<path id="XMLID_455_" class="st0" d="M534.7,129.6c-5.8-9.6-13.8-16.9-24.1-21.6c-7.9-3.6-16.3-5.3-24.9-5.7
		c-5.3-0.3-10.6,0-15.9,0.8c-13.1,2.1-24.4,7.7-33.3,17.6c-3.1,3.4-5.7,7-7.9,11c-4.9,9.1-7.6,18.8-8.4,29
		c-0.3,4.9-0.3,9.8,0.5,14.8c1.5,10.5,5.1,20.2,11,28.9c7.4,10.9,17.3,18.4,29.7,22.7c9.8,3.4,19.8,4.3,30,3.3
		c9.2-0.8,17.9-3.3,26-7.7c4.8-2.7,9.2-5.9,13-9.9c4-4.2,7.2-8.9,9.7-14.1c1.2-2.7,1.3-2.7-1.5-3.5c-10-2.9-19.9-5.7-29.9-8.5
		c-0.7-0.2-1.4-0.4-2.1-0.6c-0.8-0.3-1.4-0.1-1.6,0.7c-0.1,0.3-0.3,0.5-0.3,0.7c-2,4-5,6.7-9.1,8.4c-6.3,2.6-12.8,2.7-19.3,1.1
		c-5.6-1.4-10-4.5-13-9.5c-1.6-2.7-2.6-5.5-3.3-8.5c-0.6-2.7-0.6-2.8,2.1-2.8c13.1,0,26.2,0,39.3,0c13,0,26,0,39,0
		c0.6,0,1.2,0,1.8,0c1.1-0.1,1.4-0.3,1.6-1.4c0.1-0.9,0.3-1.9,0.3-2.8c0.1-6.4,0.2-12.8-0.8-19.2C541.6,144.7,539,136.8,534.7,129.6
		z M504.4,151.7c0,0.5-0.3,0.8-0.8,0.8c-0.5,0.1-1,0.1-1.6,0.1c-6.7,0-13.5,0-20.2,0s-13.5,0-20.2,0c-2.3,0-2.3-0.1-1.9-2.3
		c0.7-3.1,1.8-6.1,3.4-8.8c2.1-3.5,4.9-6.1,8.7-7.4c6.7-2.3,13.6-2.6,20.2,0.3c7,3.1,10.9,8.8,12.3,16.3
		C504.4,150.9,504.4,151.3,504.4,151.7z"/>
	<path id="XMLID_454_" class="st0" d="M427,104.8c-11.9,0-23.7,0-35.6,0c-0.4,0-0.8,0-1.2,0c-0.9,0-1.5,0.4-1.7,1.3
		c-0.1,0.3-0.2,0.6-0.3,0.9c-2.7,8.9-5.3,17.7-7.9,26.6c-3.4,11.5-6.8,22.9-10.2,34.3c-0.8,2.7-1.6,5.5-2.4,8.1
		c-0.1,0.3-0.1,0.7-0.5,0.7c-0.3-0.1-0.3-0.4-0.4-0.7c-0.1-0.2-0.1-0.4-0.2-0.6c-3.5-11.9-7-23.8-10.5-35.7
		c-2.9-10-5.9-19.9-8.8-29.8c-0.5-1.5-0.9-3-1.4-4.6c-0.3-0.9-0.8-1.3-1.8-1.3c-0.5,0-1,0-1.4,0c-5.9,0-11.7,0-17.5,0
		c-1.6,0-3.1,0-4.8,0c-4.6,0-9.2,0-13.7,0c-1.7,0-1.8,0.3-1.3,1.7c3.3,9.1,6.5,18.2,9.8,27.3c5,14.1,10,28.2,15.1,42.3
		c3.6,10.2,7.3,20.5,11,30.7c2.6,7.2,5.1,14.5,7.7,21.7c0.6,1.6,0.7,1.7,2.4,1.7c0.4,0,0.7,0,1.1,0c9.3,0,18.6,0,27.9,0
		c1,0,1.9-0.1,2.9,0c1,0.1,1.6-0.5,2-1.4c0.8-2.4,1.7-4.8,2.5-7.1c4-11.1,8-22.3,12-33.4c4.9-13.8,9.9-27.6,14.8-41.4
		c4.7-13,9.3-26,14-39.1C429.6,104.8,429.6,104.8,427,104.8z"/>
	<path id="XMLID_453_" class="st1" d="M738.9,182.7c-13.5,0-25,11.5-25,25.1S725.4,233,739,233c13.5,0,25.1-11.6,25-25.3
		C763.9,193.8,752.1,182.5,738.9,182.7z"/>
</g>
</svg>
