<?xml version="1.0" encoding="utf-8"?>
<!-- Generator: Adobe Illustrator 25.1.0, SVG Export Plug-In . SVG Version: 6.00 Build 0)  -->
<svg version="1.1" id="Layer_1" xmlns="http://www.w3.org/2000/svg" xmlns:xlink="http://www.w3.org/1999/xlink" x="0px" y="0px"
	 viewBox="0 0 1893.6 390.3" style="enable-background:new 0 0 1893.6 390.3;" xml:space="preserve">
<style type="text/css">
	.st0{fill:#6EBDE2;}
	.st1{fill:#0A92CD;}
	.st2{fill:#1092CD;}
	.st3{fill:#B7D9EE;}
	.st4{fill:#221F1F;}
</style>
<g id="XMLID_2_">
	<g id="XMLID_94_">
		<path id="XMLID_100_" class="st0" d="M333.1,60.6c-2.5,14.5-5,29-7.4,43.6c-5.1,30.2-10.3,60.5-15.2,90.7
			c-1.3,7.9-3.8,14.4-9.9,20.2c-23.3,22.2-46.2,44.8-69,67.5c-3.3,3.3-5,3-8-0.2c-22.2-24.3-44.6-48.6-67.1-72.6
			c-3.3-3.5-3.1-6-1.1-9.8c21.1-39.6,42-79.4,63-119.1c4.2-7.9,8.6-15.8,12.5-23.9c1.7-3.6,4.1-4.3,7.6-4.1
			c25.7,1.3,51.4,2.5,77.1,3.7c4.6,0.2,9.2,0.2,13.8,0.2C332.1,56.8,333.7,57.6,333.1,60.6z"/>
		<path id="XMLID_99_" class="st1" d="M0,41.4c7.1,0,13.6-0.3,20,0c20.7,1,41.5,2.1,62.2,3.3c34.9,1.9,69.8,3.8,104.7,5.7
			c11.6,0.6,23.1,1.2,34.7,1.5c4.7,0.1,6.2,0.8,3.6,5.7c-24.5,46.2-48.9,92.4-73.2,138.7c-2.3,4.3-3.5,5.3-7.3,1.2
			C97.1,146.1,49.3,94.8,1.6,43.5C1.1,42.9,0.7,42.3,0,41.4z"/>
		<path id="XMLID_98_" class="st2" d="M120.5,390.3c2.7-11.4,5.3-22.1,7.9-32.9c10.3-42.4,20.7-84.8,31.1-127.2
			c0.5-1.8,0.2-4.6,2.1-5.2c2.1-0.8,3.2,1.9,4.5,3.3c18.3,19.6,36.5,39.2,54.8,58.7c2.2,2.3,2.6,3.9,0.1,6.3
			c-32.8,32-65.4,64-98.2,96C122.4,389.7,121.8,389.8,120.5,390.3z"/>
		<path id="XMLID_97_" class="st2" d="M303,7.6c74.8,0,148.6,0,222.3,0c0,0.2,0.1,0.4,0.1,0.6c-16.4,3.7-32.8,7.5-49.2,11.2
			c-44.9,10.2-89.8,20.4-134.7,30.7c-4.1,0.9-6.6,0.3-9.1-3.2C323,34.1,313.3,21.4,303,7.6z"/>
		<path id="XMLID_96_" class="st2" d="M213.2,46.3c-22.7-1.1-45.4-2.3-68.1-3.4c-9.2-0.5-18.3-1.2-27.5-1.6
			c-2.6-0.1-4.4-0.7-5.6-3.4C106.7,25.7,101.1,13.6,95,0c40.2,15.3,79.3,30.1,118.3,44.9C213.4,45.4,213.3,45.8,213.2,46.3z"/>
		<path id="XMLID_95_" class="st3" d="M327.4,52c-12.3-0.7-24.5-1.5-36.8-2.2c-1.8-0.1-3.6-0.3-5.4-0.3c-12.7-0.4-25.4-0.8-38.2-1.3
			c-1.6-0.1-3.7,0.4-4.1-1.5c-0.4-1.7,1.5-2.8,2.7-3.6c16.1-10.6,31.5-22.1,46.9-33.7c1.7-1.3,3.5-2,5.1,0.2
			c10.2,13.6,20.4,27.2,30.6,40.9C328,51,327.7,51.5,327.4,52z"/>
	</g>
	<g id="XMLID_3_">
		<g id="XMLID_18_">
			<path id="XMLID_93_" class="st4" d="M1327.8,351.2c-5.4,0-10.8,0-16.2,0c-13.2-0.1-14.3-1.3-12.3-14c5.2-32.7,10.3-65.3,15.5-98
				c3.8-23.7-4.1-30.4-27.6-24.8c-10.6,2.5-15.1,7.4-16.6,18.8c-4.9,36.4-11.6,72.6-17.3,108.9c-1.1,6.9-4.6,9.1-10.9,9
				c-12.5-0.1-25,0-37.5,0c-12.7-0.1-14.1-1.8-12.1-14.3c5.5-34,11.1-67.9,16.6-101.9c3.2-19.7,6.2-39.3,9.1-59.1
				c1.1-7.7,4.8-11.3,12.7-11.1c12.2,0.3,24.3,0.1,36.5,0c3.9,0,8.8,0.3,8.5,4.9c-0.7,10.2,3.6,6.7,8.5,4
				c21.4-11.9,44.3-13.7,67.8-8.8c14.2,2.9,24.3,16.5,26.1,32.4c2.1,18.8-1.7,37-4.5,55.3c-4.2,27.7-8.6,55.4-12.9,83.1
				c-2.2,14.3-3.6,15.5-18.1,15.5C1337.9,351.2,1332.8,351.2,1327.8,351.2z"/>
			<path id="XMLID_90_" class="st4" d="M880.3,274.8c-14.5,0-29.1,0.4-43.6-0.1c-8-0.3-10.1,3.1-9.4,10.3c0.9,9.7,6.7,16.1,17.4,18
				c17.8,3,35.7-0.1,53.5-0.5c25.4-0.6,24.6-1.1,21.1,24.7c-1.6,11.6-6.4,17.1-17.4,19.5c-28.5,6.3-57.2,11.1-86.2,4.9
				c-32.8-7.1-50.6-29.7-48.9-63.3c1.4-29.3,4.5-58.9,21.4-84.3c23.4-35.2,58.3-45.8,98-40.6c40.3,5.3,57.9,31.1,54.3,75.5
				c-0.7,9.1-2.7,18-3.8,27.1c-0.8,6.6-4.3,9.2-10.9,9.1C910.7,274.6,895.5,274.8,880.3,274.8L880.3,274.8z M858.1,241.7
				c6,0,12.1,0,18.1,0c2.8,0,5.4-0.3,5.9-3.9c2-16.7-2.9-31-24.4-27.6c-11.3,1.8-20.8,12.5-22.6,24.1c-0.9,5.9,1.1,7.9,6.9,7.5
				C847.3,241.4,852.7,241.7,858.1,241.7z"/>
			<path id="XMLID_87_" class="st4" d="M1636.2,274.9c-13.2,0-26.4-0.2-39.5,0.1c-4.3,0.1-10.5-2.7-12.4,3.4c-2.1,7-1.1,14.2,5,19.5
				c6.3,5.5,14.2,6.2,22,6c17.5-0.4,35.1-1.2,52.6-1.9c3-0.1,6.1-0.2,9.1-0.3c4.4-0.1,6.1,1.9,5,6.3c-0.6,2.3-0.9,4.6-1.4,7
				c-6,31.3,1.6,27-34.2,34.5c-25.5,5.3-51.5,7.8-77.3,0.4c-25.4-7.3-41.8-27.8-42.3-54.1c-0.5-28.3,3.3-56.1,15.6-81.8
				c15.7-32.8,43.3-48.7,79-51.5c10.1-0.8,20.2-0.7,30.3,1.5c30.4,6.5,47.3,26.3,49.1,57.3c0.9,15.3-1.6,30.3-4.4,45.2
				c-1.1,5.9-4.5,8.5-10.7,8.4c-15.2-0.2-30.4-0.1-45.6-0.1C1636.2,274.8,1636.2,274.9,1636.2,274.9z M1613.5,241.7L1613.5,241.7
				c6.1,0,12.1,0,18.2-0.1c2.3,0,4.7,0,6.1-2.5c5.1-8.9-1.9-25.8-11.9-28.6c-15.7-4.3-29.1,4.2-34.3,21.5c-2,6.6-1.6,10.4,6.8,9.7
				C1603.4,241.4,1608.5,241.7,1613.5,241.7z"/>
			<path id="XMLID_75_" class="st4" d="M701.9,274.8c-13.2,0-26.4-0.3-39.5,0.1c-4.5,0.1-11.4-3.2-12.9,4
				c-1.7,7.8-0.4,15.7,7.2,20.6c5.9,3.8,12.7,4.6,19.5,4.4c19.2-0.6,38.5-1,57.7-2.2c8.5-0.5,11.2,2.3,9,10.4
				c-0.9,3.2-1.2,6.6-1.8,9.9c-4,21.3-4,21.5-25.9,26c-27.2,5.6-54.7,9.4-82.2,2.2c-26.3-7-42.4-24.4-44-51.6
				c-1.9-33.4,2.5-66.7,21.1-95.3c22.7-34.9,57.7-44.9,97.2-40.2c42.8,5.1,58.5,35,54.7,77.2c-0.8,8.4-2.7,16.7-3.8,25
				c-1,6.9-4.6,9.7-11.7,9.5C731.6,274.5,716.7,274.8,701.9,274.8L701.9,274.8z M679.7,241.7L679.7,241.7c5.7,0,11.5,0,17.2,0
				c3.1,0,6.2,0,6.7-4.2c2.5-19.7-5.7-30.6-24.9-27.4c-11,1.9-16.8,9.2-20.5,18.8c-4.5,11.5-3.6,12.7,8.3,12.7
				C670.9,241.7,675.3,241.7,679.7,241.7z"/>
			<path id="XMLID_72_" class="st4" d="M1089,212.8c-10.1,0.5-20.2,0.7-30.3,1.6c-7.5,0.7-10.9-1.3-9.3-9.5c1.6-8.3,2.8-16.6,3.8-25
				c0.7-6,4.3-9.6,9.4-10.6c29.8-5.8,59.8-10.9,90.2-3.6c26.4,6.3,40,22.7,39.2,49.8c-0.9,30.4-8.8,60-12.8,90
				c-1.6,12-4.1,23.9-5.8,35.9c-0.9,5.8-3.3,9.4-9.6,9.4c-13.5,0-27,0.1-40.5,0.1c-2.7,0-6.5-0.4-6.5-3.5c0-13.5-6.9-5.7-11.1-3.5
				c-14.5,7.3-29.6,10.9-45.9,9.2c-22.7-2.3-37.6-17.9-38.2-40.8c-0.6-23,4.2-44,24.9-57.5c13.9-9.1,30-11.8,46.2-13.2
				c8.7-0.7,17.5-1.2,26.3-0.9c6.9,0.2,10.9-1.2,10.9-9.2c0-7.7,2.8-16.1-8.4-18.4C1110.6,211.2,1099.8,212.9,1089,212.8z
				 M1111,273.9c-5.4,0.2-10.8-0.3-15.9,1.9c-8.9,3.7-15.2,15.9-12.2,26.1c2.9,10,11.6,8.6,19.2,7.8c17.1-1.8,17.3-2.1,20.1-19.5
				c0.2-1,0.5-2,0.7-2.9C1125,273.8,1125,273.8,1111,273.9z"/>
			<path id="XMLID_30_" class="st4" d="M388,351.2c-5.7,0-11.5,0.1-17.2,0c-12.3-0.1-13.7-1.7-11.7-13.6c4-24.6,8-49.2,12-73.9
				c6.2-38.6,12-77.3,18.8-115.8c3.8-21.6,13.6-39.9,36.5-46.7c17.8-5.3,36-4.1,54.1-1.3c5.7,0.9,8.2,3.9,6.6,10
				c-0.9,3.6-0.8,7.4-1.3,11c-3.1,20.3-3.2,20.3-23.7,21.6c-7.8,0.5-16.4,13.4-13.3,20.1c1.5,3.3,4.7,2.1,7.1,2.2
				c23.5,1.1,23.5,1.1,19.6,24.2c-0.4,2.3-1,4.6-1.4,6.9c-2.5,13.7-3,14-17.1,14c-2.7,0-5.4,0.2-8.1-0.1c-6.5-0.7-8.6,2.4-9.5,8.6
				c-6.1,39.7-12.9,79.2-18.8,118.9c-1.6,10.5-5.9,15-16.5,13.9C398.9,350.8,393.4,351.2,388,351.2z"/>
			<path id="XMLID_29_" class="st4" d="M1454.8,353.8c-26.6,0.6-49.2-4.9-62.3-29.4c-9.6-17.9-8.9-37.1-5.4-56.3
				c3.3-18.5,5.1-37.4,13.4-54.8c15.1-31.9,39.9-49.1,75.3-50.9c15.3-0.8,30.3,0.9,45.3,4c6.9,1.4,8.9,4.8,7.7,11.4
				c-1.7,9.3-3.3,18.6-4.5,28c-1,7.3-4.3,10.7-12.2,9.7c-9.4-1.1-18.8-1.7-28.2-1.9c-16.2-0.4-24.4,4.8-28.6,20
				c-4.5,16.2-7.6,32.9-7.7,49.8c-0.1,13.4,5.7,19.1,19.2,19c11.1-0.1,22.3-0.7,33.4-1.5c6.4-0.5,8.7,1.8,7.6,8.2
				c-1.7,9.6-3.4,19.3-4.4,29c-0.8,7.4-4.7,10.5-11.6,11.6C1479.1,351.9,1466.5,354.2,1454.8,353.8z"/>
			<path id="XMLID_28_" class="st4" d="M1008.9,103.6c6.8,0,13.5,0.3,20.2-0.1c7.8-0.4,10.3,3,9.1,10.4
				c-3.6,22.3-7.1,44.6-10.6,66.9c-8.1,50.9-16.2,101.9-24.3,152.8c-2.7,17.1-3.1,17.5-20.1,17.5c-10.1,0-20.2,0.1-30.4,0
				c-12.3-0.2-13.7-1.9-11.9-13.6c11-68.6,21.9-137.1,33-205.6c5.2-32.4-0.3-27.9,33-28.3C1007.5,103.6,1008.2,103.6,1008.9,103.6z"
				/>
			<path id="XMLID_27_" class="st4" d="M549,179.2c14.3-12.2,27.8-17.1,43.2-16.9c6.2,0.1,8.7,2.2,7.6,8.4c-2,11.6-3.9,23.3-5.5,35
				c-0.7,5.4-4,6.2-8.5,6.3c-10.8,0.1-21.5,1.2-32,4.2c-6.3,1.8-9.5,5.2-10.4,11.7c-5.4,36-11.1,71.9-16.6,107.9
				c-2.1,14-3.6,15.4-18.2,15.5c-11.1,0-22.3-0.4-33.4,0.1c-9.2,0.4-12.2-3.4-10.8-12.1c6.2-38.6,12.4-77.1,18.6-115.7
				c2.5-15.6,5.2-31.3,7.3-47c1-8,3.9-12.1,12.8-11.7c11.8,0.6,23.6,0.5,35.4-0.1C546.9,164.3,551.7,166.6,549,179.2z"/>
			<path id="XMLID_19_" class="st4" d="M1783.6,167.2c1.6,8.6-0.5,15.2-1.5,21.8c-7.5,48.4-15.2,96.7-22.9,145
				c-2.6,16.5-3.4,17.2-19.8,17.3c-11.5,0-23-0.1-34.5-0.1c-6.9,0-9.6-2.9-8.4-10.1c6-36.6,11.6-73.4,17.5-110c0.5-2.8,1-5.7,3.7-8
				C1739.4,204.9,1760.9,186.5,1783.6,167.2z"/>
		</g>
		<polygon id="XMLID_17_" class="st1" points="1783.7,228.5 1792.9,167.4 1893.6,167.4 		"/>
	</g>
</g>
</svg>
