<?xml version="1.0" encoding="utf-8"?>
<!-- Generator: Adobe Illustrator 25.1.0, SVG Export Plug-In . SVG Version: 6.00 Build 0)  -->
<svg version="1.1" id="Layer_1" xmlns="http://www.w3.org/2000/svg" xmlns:xlink="http://www.w3.org/1999/xlink" x="0px" y="0px"
	 viewBox="0 0 1042.7 306.6" style="enable-background:new 0 0 1042.7 306.6;" xml:space="preserve">
<style type="text/css">
	.st0{fill:#36B24A;}
	.st1{fill:#221F1F;}
</style>
<g id="XMLID_442_">
	<path id="XMLID_449_" class="st0" d="M332.2,186.2c-13.3,0-25.7-5.6-37.1-14.8l2.8-12.9l0.2-0.5c2.5-13.8,10.2-36.9,34.2-36.9
		c18,0,32.6,14.6,32.6,32.6C364.8,171.5,350.1,186.2,332.2,186.2L332.2,186.2z M332.2,88c-30.6,0-54.3,19.9-64,52.6
		c-14.7-22.1-25.9-48.7-32.4-71H203v85.7c0,16.9-13.8,30.6-30.6,30.6s-30.6-13.8-30.6-30.6V69.5l-33.1,0.1v85.7
		c-0.2,35.1,28.4,63.9,63.6,63.9c35.1,0,63.7-28.8,63.7-63.9v-14.4c6.4,13.4,14.3,26.8,23.8,38.8l-20.2,94.9h33.7l14.6-68.8
		c12.8,8.2,27.6,13.4,44.5,13.4c36.1,0,65.6-29.6,65.6-65.7C397.8,117.4,368.3,88,332.2,88L332.2,88z"/>
	<path id="XMLID_443_" class="st1" d="M505.9,91.7l21.3,85.7l23.4-85.7h27.9l-36,123.9h-27.9l-22.1-86.3l-22.1,86.2h-27.9
		L406.5,91.7h27.9l23.4,85.7l21.2-85.7H505.9L505.9,91.7L505.9,91.7z M645.3,88c-36.3,0-65.6,29.5-65.6,65.6
		c0,36.3,29.5,65.6,65.6,65.6c36.3,0,65.6-29.4,65.6-65.6S681.5,88,645.3,88L645.3,88z M645.3,192.3c-21.3,0-38.6-17.3-38.6-38.6
		s17.3-38.6,38.6-38.6s38.6,17.3,38.6,38.6C683.8,174.9,666.7,192.3,645.3,192.3z M790.7,119.5c-18.8,0-33.9,15.2-33.9,33.9v62.2
		h-28.1V91.8h28.1v19.1c0,0,12-19.1,36.6-19.1h8.6v27.8L790.7,119.5L790.7,119.5z M885,148.8c20-11.2,33.5-32.6,33.5-57.2h-28.1
		c0,20.7-16.8,37.4-37.4,37.4h-3.8V31.9H821v183.6h28.1v-58.3h3.3c2.8,0,6.3,1.8,8,4l39.9,54.3H934L885,148.8L885,148.8z"/>
</g>
</svg>
